  999
DXF file created by gear template generator. 2015-11-10T14:24:27
  999
G1:Toothspacing=.74  Teeth=72  Spur gear  Angle=20.0  Addendum=.2
  999
G2:Toothspacing=.74  Teeth=18  Spur gear  Angle=20.0  Addendum=.2
  0
SECTION
  2
HEADER
  9
$MEASUREMENT
  70
1
  0
ENDSEC
  0
SECTION
  2
TABLES
  0
TABLE
  2
LTYPE
  70
1
  0
LTYPE
  2
Continuous
  3
_
  70
0
  72
65
  73
0
  40
0.0
  0
ENDTAB
  0
TABLE
  2
LAYER
  70
4
  0
LAYER
  2
profile
  70
0
  62
7
  6
Continuous
  0
LAYER
  2
construction
  70
0
  62
5
  6
Continuous
  0
LAYER
  2
grid
  70
0
  62
3
  6
Continuous
  0
LAYER
  2
labels
  70
0
  62
1
  6
Continuous
  0
ENDTAB
  0
TABLE
  2
STYLE
  70
1
  0
STYLE
  2
ARIAL
  3
Arial.ttf
  70
0
  40
0.0
  41
1.0
  50
0.0
  71
0
  42
1.0
  0
ENDTAB
  0
ENDSEC
  0
SECTION
  2
ENTITIES
  0
POLYLINE
  8
a
  66
1
  10
0.0
  20
0.0
  70
1
  0
VERTEX
  8
a
  10
16.99992
  20
8.64152
  30
0.0
  70
0
  0
VERTEX
  8
a
  10
17.02213
  20
8.63479
  30
0.0
  70
0
  0
VERTEX
  8
a
  10
17.06654
  20
8.62066
  30
0.0
  70
0
  0
VERTEX
  8
a
  10
17.15525
  20
8.58977
  30
0.0
  70
0
  0
VERTEX
  8
a
  10
17.24381
  20
8.55558
  30
0.0
  70
0
  0
VERTEX
  8
a
  10
17.33218
  20
8.51829
  30
0.0
  70
0
  0
VERTEX
  8
a
  10
17.35424
  20
8.50851
  30
0.0
  70
0
  0
VERTEX
  8
a
  10
17.3464
  20
8.27201
  30
0.0
  70
0
  0
VERTEX
  8
a
  10
17.32374
  20
8.2637
  30
0.0
  70
0
  0
VERTEX
  8
a
  10
17.23308
  20
8.23235
  30
0.0
  70
0
  0
VERTEX
  8
a
  10
17.14245
  20
8.20411
  30
0.0
  70
0
  0
VERTEX
  8
a
  10
17.05189
  20
8.17917
  30
0.0
  70
0
  0
VERTEX
  8
a
  10
17.00665
  20
8.16801
  30
0.0
  70
0
  0
VERTEX
  8
a
  10
16.98404
  20
8.16277
  30
0.0
  70
0
  0
VERTEX
  8
a
  10
16.96508
  20
7.91635
  30
0.0
  70
0
  0
VERTEX
  8
a
  10
16.98662
  20
7.90772
  30
0.0
  70
0
  0
VERTEX
  8
a
  10
17.02962
  20
7.88977
  30
0.0
  70
0
  0
VERTEX
  8
a
  10
17.1153
  20
7.85126
  30
0.0
  70
0
  0
VERTEX
  8
a
  10
17.20055
  20
7.80948
  30
0.0
  70
0
  0
VERTEX
  8
a
  10
17.28534
  20
7.76464
  30
0.0
  70
0
  0
VERTEX
  8
a
  10
17.30646
  20
7.75296
  30
0.0
  70
0
  0
VERTEX
  8
a
  10
17.27803
  20
7.51805
  30
0.0
  70
0
  0
VERTEX
  8
a
  10
17.25473
  20
7.51175
  30
0.0
  70
0
  0
VERTEX
  8
a
  10
17.16169
  20
7.48842
  30
0.0
  70
0
  0
VERTEX
  8
a
  10
17.06895
  20
7.46819
  30
0.0
  70
0
  0
VERTEX
  8
a
  10
16.97655
  20
7.45123
  30
0.0
  70
0
  0
VERTEX
  8
a
  10
16.93051
  20
7.44405
  30
0.0
  70
0
  0
VERTEX
  8
a
  10
16.90753
  20
7.44081
  30
0.0
  70
0
  0
VERTEX
  8
a
  10
16.86716
  20
7.19697
  30
0.0
  70
0
  0
VERTEX
  8
a
  10
16.88787
  20
7.1865
  30
0.0
  70
0
  0
VERTEX
  8
a
  10
16.92915
  20
7.16487
  30
0.0
  70
0
  0
VERTEX
  8
a
  10
17.01115
  20
7.11904
  30
0.0
  70
0
  0
VERTEX
  8
a
  10
17.09242
  20
7.07
  30
0.0
  70
0
  0
VERTEX
  8
a
  10
17.17298
  20
7.01793
  30
0.0
  70
0
  0
VERTEX
  8
a
  10
17.19301
  20
7.00446
  30
0.0
  70
0
  0
VERTEX
  8
a
  10
17.14421
  20
6.77291
  30
0.0
  70
0
  0
VERTEX
  8
a
  10
17.12045
  20
6.76867
  30
0.0
  70
0
  0
VERTEX
  8
a
  10
17.02574
  20
6.75354
  30
0.0
  70
0
  0
VERTEX
  8
a
  10
16.93158
  20
6.74147
  30
0.0
  70
0
  0
VERTEX
  8
a
  10
16.83806
  20
6.73263
  30
0.0
  70
0
  0
VERTEX
  8
a
  10
16.79157
  20
6.72949
  30
0.0
  70
0
  0
VERTEX
  8
a
  10
16.76839
  20
6.72826
  30
0.0
  70
0
  0
VERTEX
  8
a
  10
16.70693
  20
6.48887
  30
0.0
  70
0
  0
VERTEX
  8
a
  10
16.72664
  20
6.47663
  30
0.0
  70
0
  0
VERTEX
  8
a
  10
16.76587
  20
6.45149
  30
0.0
  70
0
  0
VERTEX
  8
a
  10
16.84357
  20
6.39869
  30
0.0
  70
0
  0
VERTEX
  8
a
  10
16.92026
  20
6.34274
  30
0.0
  70
0
  0
VERTEX
  8
a
  10
16.99598
  20
6.28385
  30
0.0
  70
0
  0
VERTEX
  8
a
  10
17.01475
  20
6.26869
  30
0.0
  70
0
  0
VERTEX
  8
a
  10
16.94596
  20
6.04228
  30
0.0
  70
0
  0
VERTEX
  8
a
  10
16.92192
  20
6.04012
  30
0.0
  70
0
  0
VERTEX
  8
a
  10
16.82625
  20
6.03331
  30
0.0
  70
0
  0
VERTEX
  8
a
  10
16.73139
  20
6.02948
  30
0.0
  70
0
  0
VERTEX
  8
a
  10
16.63746
  20
6.02883
  30
0.0
  70
0
  0
VERTEX
  8
a
  10
16.59087
  20
6.02976
  30
0.0
  70
0
  0
VERTEX
  8
a
  10
16.56768
  20
6.03055
  30
0.0
  70
0
  0
VERTEX
  8
a
  10
16.48558
  20
5.79743
  30
0.0
  70
0
  0
VERTEX
  8
a
  10
16.50416
  20
5.78352
  30
0.0
  70
0
  0
VERTEX
  8
a
  10
16.54105
  20
5.75505
  30
0.0
  70
0
  0
VERTEX
  8
a
  10
16.61384
  20
5.69568
  30
0.0
  70
0
  0
VERTEX
  8
a
  10
16.68537
  20
5.63327
  30
0.0
  70
0
  0
VERTEX
  8
a
  10
16.75566
  20
5.568
  30
0.0
  70
0
  0
VERTEX
  8
a
  10
16.77305
  20
5.55126
  30
0.0
  70
0
  0
VERTEX
  8
a
  10
16.68479
  20
5.3317
  30
0.0
  70
0
  0
VERTEX
  8
a
  10
16.66065
  20
5.33165
  30
0.0
  70
0
  0
VERTEX
  8
a
  10
16.56474
  20
5.3332
  30
0.0
  70
0
  0
VERTEX
  8
a
  10
16.46992
  20
5.33766
  30
0.0
  70
0
  0
VERTEX
  8
a
  10
16.37629
  20
5.34519
  30
0.0
  70
0
  0
VERTEX
  8
a
  10
16.32995
  20
5.35018
  30
0.0
  70
0
  0
VERTEX
  8
a
  10
16.30692
  20
5.35299
  30
0.0
  70
0
  0
VERTEX
  8
a
  10
16.20482
  20
5.12791
  30
0.0
  70
0
  0
VERTEX
  8
a
  10
16.22211
  20
5.11243
  30
0.0
  70
0
  0
VERTEX
  8
a
  10
16.25638
  20
5.08086
  30
0.0
  70
0
  0
VERTEX
  8
a
  10
16.32372
  20
5.01537
  30
0.0
  70
0
  0
VERTEX
  8
a
  10
16.38954
  20
4.94696
  30
0.0
  70
0
  0
VERTEX
  8
a
  10
16.45388
  20
4.87582
  30
0.0
  70
0
  0
VERTEX
  8
a
  10
16.46973
  20
4.85762
  30
0.0
  70
0
  0
VERTEX
  8
a
  10
16.36267
  20
4.6466
  30
0.0
  70
0
  0
VERTEX
  8
a
  10
16.33863
  20
4.64865
  30
0.0
  70
0
  0
VERTEX
  8
a
  10
16.24322
  20
4.65855
  30
0.0
  70
0
  0
VERTEX
  8
a
  10
16.14914
  20
4.67125
  30
0.0
  70
0
  0
VERTEX
  8
a
  10
16.05652
  20
4.68692
  30
0.0
  70
0
  0
VERTEX
  8
a
  10
16.0108
  20
4.69593
  30
0.0
  70
0
  0
VERTEX
  8
a
  10
15.9881
  20
4.70074
  30
0.0
  70
0
  0
VERTEX
  8
a
  10
15.86677
  20
4.48541
  30
0.0
  70
0
  0
VERTEX
  8
a
  10
15.88265
  20
4.46848
  30
0.0
  70
0
  0
VERTEX
  8
a
  10
15.91403
  20
4.43404
  30
0.0
  70
0
  0
VERTEX
  8
a
  10
15.97541
  20
4.36293
  30
0.0
  70
0
  0
VERTEX
  8
a
  10
16.03502
  20
4.28905
  30
0.0
  70
0
  0
VERTEX
  8
a
  10
16.09291
  20
4.21257
  30
0.0
  70
0
  0
VERTEX
  8
a
  10
16.10712
  20
4.19306
  30
0.0
  70
0
  0
VERTEX
  8
a
  10
15.98208
  20
3.99217
  30
0.0
  70
0
  0
VERTEX
  8
a
  10
15.9583
  20
3.99631
  30
0.0
  70
0
  0
VERTEX
  8
a
  10
15.86412
  20
4.01449
  30
0.0
  70
0
  0
VERTEX
  8
a
  10
15.77151
  20
4.03534
  30
0.0
  70
0
  0
VERTEX
  8
a
  10
15.6806
  20
4.05902
  30
0.0
  70
0
  0
VERTEX
  8
a
  10
15.63584
  20
4.07198
  30
0.0
  70
0
  0
VERTEX
  8
a
  10
15.61365
  20
4.07875
  30
0.0
  70
0
  0
VERTEX
  8
a
  10
15.47401
  20
3.87482
  30
0.0
  70
0
  0
VERTEX
  8
a
  10
15.48835
  20
3.85657
  30
0.0
  70
0
  0
VERTEX
  8
a
  10
15.51662
  20
3.81953
  30
0.0
  70
0
  0
VERTEX
  8
a
  10
15.57157
  20
3.74334
  30
0.0
  70
0
  0
VERTEX
  8
a
  10
15.6245
  20
3.66454
  30
0.0
  70
0
  0
VERTEX
  8
a
  10
15.67551
  20
3.5833
  30
0.0
  70
0
  0
VERTEX
  8
a
  10
15.68797
  20
3.56263
  30
0.0
  70
0
  0
VERTEX
  8
a
  10
15.54589
  20
3.3734
  30
0.0
  70
0
  0
VERTEX
  8
a
  10
15.52256
  20
3.3796
  30
0.0
  70
0
  0
VERTEX
  8
a
  10
15.43032
  20
3.40592
  30
0.0
  70
0
  0
VERTEX
  8
a
  10
15.33988
  20
3.43477
  30
0.0
  70
0
  0
VERTEX
  8
a
  10
15.25139
  20
3.46628
  30
0.0
  70
0
  0
VERTEX
  8
a
  10
15.20793
  20
3.48308
  30
0.0
  70
0
  0
VERTEX
  8
a
  10
15.18641
  20
3.49176
  30
0.0
  70
0
  0
VERTEX
  8
a
  10
15.02953
  20
3.30078
  30
0.0
  70
0
  0
VERTEX
  8
a
  10
15.04222
  20
3.28135
  30
0.0
  70
0
  0
VERTEX
  8
a
  10
15.06715
  20
3.24198
  30
0.0
  70
0
  0
VERTEX
  8
a
  10
15.11525
  20
3.1613
  30
0.0
  70
0
  0
VERTEX
  8
a
  10
15.16112
  20
3.07818
  30
0.0
  70
0
  0
VERTEX
  8
a
  10
15.20485
  20
2.99281
  30
0.0
  70
0
  0
VERTEX
  8
a
  10
15.21546
  20
2.97113
  30
0.0
  70
0
  0
VERTEX
  8
a
  10
15.05743
  20
2.79501
  30
0.0
  70
0
  0
VERTEX
  8
a
  10
15.03473
  20
2.80321
  30
0.0
  70
0
  0
VERTEX
  8
a
  10
14.94514
  20
2.83747
  30
0.0
  70
0
  0
VERTEX
  8
a
  10
14.85756
  20
2.87409
  30
0.0
  70
0
  0
VERTEX
  8
a
  10
14.77215
  20
2.9132
  30
0.0
  70
0
  0
VERTEX
  8
a
  10
14.73032
  20
2.93373
  30
0.0
  70
0
  0
VERTEX
  8
a
  10
14.70963
  20
2.94425
  30
0.0
  70
0
  0
VERTEX
  8
a
  10
14.53671
  20
2.76767
  30
0.0
  70
0
  0
VERTEX
  8
a
  10
14.54766
  20
2.74721
  30
0.0
  70
0
  0
VERTEX
  8
a
  10
14.56907
  20
2.70581
  30
0.0
  70
0
  0
VERTEX
  8
a
  10
14.60995
  20
2.62124
  30
0.0
  70
0
  0
VERTEX
  8
a
  10
14.6484
  20
2.53445
  30
0.0
  70
0
  0
VERTEX
  8
a
  10
14.68452
  20
2.44559
  30
0.0
  70
0
  0
VERTEX
  8
a
  10
14.6932
  20
2.42307
  30
0.0
  70
0
  0
VERTEX
  8
a
  10
14.52042
  20
2.26139
  30
0.0
  70
0
  0
VERTEX
  8
a
  10
14.49853
  20
2.27154
  30
0.0
  70
0
  0
VERTEX
  8
a
  10
14.41226
  20
2.31347
  30
0.0
  70
0
  0
VERTEX
  8
a
  10
14.3282
  20
2.35759
  30
0.0
  70
0
  0
VERTEX
  8
a
  10
14.24653
  20
2.40399
  30
0.0
  70
0
  0
VERTEX
  8
a
  10
14.20664
  20
2.42809
  30
0.0
  70
0
  0
VERTEX
  8
a
  10
14.18696
  20
2.44037
  30
0.0
  70
0
  0
VERTEX
  8
a
  10
13.9993
  20
2.27953
  30
0.0
  70
0
  0
VERTEX
  8
a
  10
14.00843
  20
2.2582
  30
0.0
  70
0
  0
VERTEX
  8
a
  10
14.02614
  20
2.2151
  30
0.0
  70
0
  0
VERTEX
  8
a
  10
14.0595
  20
2.12728
  30
0.0
  70
0
  0
VERTEX
  8
a
  10
14.09024
  20
2.03747
  30
0.0
  70
0
  0
VERTEX
  8
a
  10
14.11848
  20
1.9458
  30
0.0
  70
0
  0
VERTEX
  8
a
  10
14.12516
  20
1.92261
  30
0.0
  70
0
  0
VERTEX
  8
a
  10
13.93895
  20
1.7766
  30
0.0
  70
0
  0
VERTEX
  8
a
  10
13.91802
  20
1.78862
  30
0.0
  70
0
  0
VERTEX
  8
a
  10
13.83574
  20
1.83791
  30
0.0
  70
0
  0
VERTEX
  8
a
  10
13.75585
  20
1.88919
  30
0.0
  70
0
  0
VERTEX
  8
a
  10
13.67853
  20
1.94253
  30
0.0
  70
0
  0
VERTEX
  8
a
  10
13.6409
  20
1.97001
  30
0.0
  70
0
  0
VERTEX
  8
a
  10
13.62235
  20
1.98397
  30
0.0
  70
0
  0
VERTEX
  8
a
  10
13.42139
  20
1.84009
  30
0.0
  70
0
  0
VERTEX
  8
a
  10
13.42863
  20
1.81804
  30
0.0
  70
0
  0
VERTEX
  8
a
  10
13.44252
  20
1.77356
  30
0.0
  70
0
  0
VERTEX
  8
a
  10
13.46809
  20
1.68318
  30
0.0
  70
0
  0
VERTEX
  8
a
  10
13.49089
  20
1.59102
  30
0.0
  70
0
  0
VERTEX
  8
a
  10
13.51103
  20
1.49724
  30
0.0
  70
0
  0
VERTEX
  8
a
  10
13.51567
  20
1.47356
  30
0.0
  70
0
  0
VERTEX
  8
a
  10
13.31744
  20
1.34433
  30
0.0
  70
0
  0
VERTEX
  8
a
  10
13.29764
  20
1.35813
  30
0.0
  70
0
  0
VERTEX
  8
a
  10
13.21996
  20
1.41441
  30
0.0
  70
0
  0
VERTEX
  8
a
  10
13.14485
  20
1.47245
  30
0.0
  70
0
  0
VERTEX
  8
a
  10
13.07247
  20
1.53233
  30
0.0
  70
0
  0
VERTEX
  8
a
  10
13.03737
  20
1.56299
  30
0.0
  70
0
  0
VERTEX
  8
a
  10
13.02012
  20
1.57851
  30
0.0
  70
0
  0
VERTEX
  8
a
  10
12.80738
  20
1.45269
  30
0.0
  70
0
  0
VERTEX
  8
a
  10
12.81267
  20
1.4301
  30
0.0
  70
0
  0
VERTEX
  8
a
  10
12.82263
  20
1.38458
  30
0.0
  70
0
  0
VERTEX
  8
a
  10
12.84023
  20
1.2923
  30
0.0
  70
0
  0
VERTEX
  8
a
  10
12.8549
  20
1.19852
  30
0.0
  70
0
  0
VERTEX
  8
a
  10
12.8668
  20
1.10334
  30
0.0
  70
0
  0
VERTEX
  8
a
  10
12.86935
  20
1.07934
  30
0.0
  70
0
  0
VERTEX
  8
a
  10
12.66062
  20
0.96788
  30
0.0
  70
0
  0
VERTEX
  8
a
  10
12.6421
  20
0.98335
  30
0.0
  70
0
  0
VERTEX
  8
a
  10
12.56962
  20
1.04619
  30
0.0
  70
0
  0
VERTEX
  8
a
  10
12.49985
  20
1.11056
  30
0.0
  70
0
  0
VERTEX
  8
a
  10
12.43296
  20
1.17651
  30
0.0
  70
0
  0
VERTEX
  8
a
  10
12.40068
  20
1.21011
  30
0.0
  70
0
  0
VERTEX
  8
a
  10
12.38484
  20
1.22708
  30
0.0
  70
0
  0
VERTEX
  8
a
  10
12.16195
  20
1.12029
  30
0.0
  70
0
  0
VERTEX
  8
a
  10
12.16524
  20
1.09731
  30
0.0
  70
0
  0
VERTEX
  8
a
  10
12.1712
  20
1.0511
  30
0.0
  70
0
  0
VERTEX
  8
a
  10
12.18069
  20
0.95764
  30
0.0
  70
0
  0
VERTEX
  8
a
  10
12.18713
  20
0.86293
  30
0.0
  70
0
  0
VERTEX
  8
a
  10
12.19069
  20
0.76708
  30
0.0
  70
0
  0
VERTEX
  8
a
  10
12.19114
  20
0.74295
  30
0.0
  70
0
  0
VERTEX
  8
a
  10
11.97349
  20
0.65011
  30
0.0
  70
0
  0
VERTEX
  8
a
  10
11.95638
  20
0.66714
  30
0.0
  70
0
  0
VERTEX
  8
a
  10
11.88966
  20
0.73605
  30
0.0
  70
0
  0
VERTEX
  8
a
  10
11.82576
  20
0.80625
  30
0.0
  70
0
  0
VERTEX
  8
a
  10
11.76488
  20
0.87779
  30
0.0
  70
0
  0
VERTEX
  8
a
  10
11.73565
  20
0.91408
  30
0.0
  70
0
  0
VERTEX
  8
a
  10
11.72135
  20
0.93235
  30
0.0
  70
0
  0
VERTEX
  8
a
  10
11.48999
  20
0.84539
  30
0.0
  70
0
  0
VERTEX
  8
a
  10
11.49128
  20
0.82222
  30
0.0
  70
0
  0
VERTEX
  8
a
  10
11.49318
  20
0.77566
  30
0.0
  70
0
  0
VERTEX
  8
a
  10
11.49449
  20
0.68174
  30
0.0
  70
0
  0
VERTEX
  8
a
  10
11.49266
  20
0.58682
  30
0.0
  70
0
  0
VERTEX
  8
a
  10
11.48785
  20
0.49103
  30
0.0
  70
0
  0
VERTEX
  8
a
  10
11.48619
  20
0.46695
  30
0.0
  70
0
  0
VERTEX
  8
a
  10
11.26127
  20
0.39343
  30
0.0
  70
0
  0
VERTEX
  8
a
  10
11.24572
  20
0.41189
  30
0.0
  70
0
  0
VERTEX
  8
a
  10
11.18526
  20
0.48635
  30
0.0
  70
0
  0
VERTEX
  8
a
  10
11.12772
  20
0.56186
  30
0.0
  70
0
  0
VERTEX
  8
a
  10
11.0733
  20
0.63843
  30
0.0
  70
0
  0
VERTEX
  8
a
  10
11.04734
  20
0.67712
  30
0.0
  70
0
  0
VERTEX
  8
a
  10
11.03469
  20
0.69658
  30
0.0
  70
0
  0
VERTEX
  8
a
  10
10.79664
  20
0.63011
  30
0.0
  70
0
  0
VERTEX
  8
a
  10
10.7959
  20
0.60692
  30
0.0
  70
0
  0
VERTEX
  8
a
  10
10.79374
  20
0.56037
  30
0.0
  70
0
  0
VERTEX
  8
a
  10
10.78686
  20
0.46669
  30
0.0
  70
0
  0
VERTEX
  8
a
  10
10.77676
  20
0.3723
  30
0.0
  70
0
  0
VERTEX
  8
a
  10
10.76362
  20
0.27728
  30
0.0
  70
0
  0
VERTEX
  8
a
  10
10.75987
  20
0.25344
  30
0.0
  70
0
  0
VERTEX
  8
a
  10
10.5294
  20
0.1998
  30
0.0
  70
0
  0
VERTEX
  8
a
  10
10.51551
  20
0.21955
  30
0.0
  70
0
  0
VERTEX
  8
a
  10
10.46177
  20
0.299
  30
0.0
  70
0
  0
VERTEX
  8
a
  10
10.41103
  20
0.37923
  30
0.0
  70
0
  0
VERTEX
  8
a
  10
10.3635
  20
0.46025
  30
0.0
  70
0
  0
VERTEX
  8
a
  10
10.34101
  20
0.50106
  30
0.0
  70
0
  0
VERTEX
  8
a
  10
10.3301
  20
0.52155
  30
0.0
  70
0
  0
VERTEX
  8
a
  10
10.08716
  20
0.47608
  30
0.0
  70
0
  0
VERTEX
  8
a
  10
10.0844
  20
0.45304
  30
0.0
  70
0
  0
VERTEX
  8
a
  10
10.07819
  20
0.40686
  30
0.0
  70
0
  0
VERTEX
  8
a
  10
10.06318
  20
0.31413
  30
0.0
  70
0
  0
VERTEX
  8
a
  10
10.04489
  20
0.22098
  30
0.0
  70
0
  0
VERTEX
  8
a
  10
10.02351
  20
0.12747
  30
0.0
  70
0
  0
VERTEX
  8
a
  10
10.0177
  20
0.10404
  30
0.0
  70
0
  0
VERTEX
  8
a
  10
9.78344
  20
0.0707
  30
0.0
  70
0
  0
VERTEX
  8
a
  10
9.77132
  20
0.09158
  30
0.0
  70
0
  0
VERTEX
  8
a
  10
9.72471
  20
0.17541
  30
0.0
  70
0
  0
VERTEX
  8
a
  10
9.68116
  20
0.25976
  30
0.0
  70
0
  0
VERTEX
  8
a
  10
9.64086
  20
0.34462
  30
0.0
  70
0
  0
VERTEX
  8
a
  10
9.62202
  20
0.38723
  30
0.0
  70
0
  0
VERTEX
  8
a
  10
9.61294
  20
0.40859
  30
0.0
  70
0
  0
VERTEX
  8
a
  10
9.36696
  20
0.38447
  30
0.0
  70
0
  0
VERTEX
  8
a
  10
9.3622
  20
0.36176
  30
0.0
  70
0
  0
VERTEX
  8
a
  10
9.35199
  20
0.31629
  30
0.0
  70
0
  0
VERTEX
  8
a
  10
9.32895
  20
0.22522
  30
0.0
  70
0
  0
VERTEX
  8
a
  10
9.30261
  20
0.13402
  30
0.0
  70
0
  0
VERTEX
  8
a
  10
9.27317
  20
0.04273
  30
0.0
  70
0
  0
VERTEX
  8
a
  10
9.26534
  20
0.0199
  30
0.0
  70
0
  0
VERTEX
  8
a
  10
9.02906
  20
0.00711
  30
0.0
  70
0
  0
VERTEX
  8
a
  10
9.01881
  20
0.02896
  30
0.0
  70
0
  0
VERTEX
  8
a
  10
8.97968
  20
0.11653
  30
0.0
  70
0
  0
VERTEX
  8
a
  10
8.94365
  20
0.20436
  30
0.0
  70
0
  0
VERTEX
  8
a
  10
8.9109
  20
0.2924
  30
0.0
  70
0
  0
VERTEX
  8
a
  10
8.89584
  20
0.3365
  30
0.0
  70
0
  0
VERTEX
  8
a
  10
8.88866
  20
0.35857
  30
0.0
  70
0
  0
VERTEX
  8
a
  10
8.64152
  20
0.35598
  30
0.0
  70
0
  0
VERTEX
  8
a
  10
8.63479
  20
0.33377
  30
0.0
  70
0
  0
VERTEX
  8
a
  10
8.62066
  20
0.28936
  30
0.0
  70
0
  0
VERTEX
  8
a
  10
8.58977
  20
0.20065
  30
0.0
  70
0
  0
VERTEX
  8
a
  10
8.55558
  20
0.11209
  30
0.0
  70
0
  0
VERTEX
  8
a
  10
8.51829
  20
0.02372
  30
0.0
  70
0
  0
VERTEX
  8
a
  10
8.50851
  20
0.00165
  30
0.0
  70
0
  0
VERTEX
  8
a
  10
8.27201
  20
0.0095
  30
0.0
  70
0
  0
VERTEX
  8
a
  10
8.2637
  20
0.03216
  30
0.0
  70
0
  0
VERTEX
  8
a
  10
8.23235
  20
0.12281
  30
0.0
  70
0
  0
VERTEX
  8
a
  10
8.20411
  20
0.21345
  30
0.0
  70
0
  0
VERTEX
  8
a
  10
8.17917
  20
0.30401
  30
0.0
  70
0
  0
VERTEX
  8
a
  10
8.16801
  20
0.34925
  30
0.0
  70
0
  0
VERTEX
  8
a
  10
8.16277
  20
0.37186
  30
0.0
  70
0
  0
VERTEX
  8
a
  10
7.91635
  20
0.39082
  30
0.0
  70
0
  0
VERTEX
  8
a
  10
7.90772
  20
0.36928
  30
0.0
  70
0
  0
VERTEX
  8
a
  10
7.88977
  20
0.32628
  30
0.0
  70
0
  0
VERTEX
  8
a
  10
7.85126
  20
0.2406
  30
0.0
  70
0
  0
VERTEX
  8
a
  10
7.80948
  20
0.15535
  30
0.0
  70
0
  0
VERTEX
  8
a
  10
7.76464
  20
0.07056
  30
0.0
  70
0
  0
VERTEX
  8
a
  10
7.75296
  20
0.04944
  30
0.0
  70
0
  0
VERTEX
  8
a
  10
7.51805
  20
0.07787
  30
0.0
  70
0
  0
VERTEX
  8
a
  10
7.51175
  20
0.10117
  30
0.0
  70
0
  0
VERTEX
  8
a
  10
7.48842
  20
0.19421
  30
0.0
  70
0
  0
VERTEX
  8
a
  10
7.46819
  20
0.28695
  30
0.0
  70
0
  0
VERTEX
  8
a
  10
7.45123
  20
0.37935
  30
0.0
  70
0
  0
VERTEX
  8
a
  10
7.44405
  20
0.42539
  30
0.0
  70
0
  0
VERTEX
  8
a
  10
7.44081
  20
0.44837
  30
0.0
  70
0
  0
VERTEX
  8
a
  10
7.19697
  20
0.48873
  30
0.0
  70
0
  0
VERTEX
  8
a
  10
7.1865
  20
0.46803
  30
0.0
  70
0
  0
VERTEX
  8
a
  10
7.16487
  20
0.42675
  30
0.0
  70
0
  0
VERTEX
  8
a
  10
7.11904
  20
0.34475
  30
0.0
  70
0
  0
VERTEX
  8
a
  10
7.07
  20
0.26348
  30
0.0
  70
0
  0
VERTEX
  8
a
  10
7.01793
  20
0.18292
  30
0.0
  70
0
  0
VERTEX
  8
a
  10
7.00446
  20
0.16289
  30
0.0
  70
0
  0
VERTEX
  8
a
  10
6.77291
  20
0.21168
  30
0.0
  70
0
  0
VERTEX
  8
a
  10
6.76867
  20
0.23544
  30
0.0
  70
0
  0
VERTEX
  8
a
  10
6.75354
  20
0.33016
  30
0.0
  70
0
  0
VERTEX
  8
a
  10
6.74147
  20
0.42432
  30
0.0
  70
0
  0
VERTEX
  8
a
  10
6.73263
  20
0.51784
  30
0.0
  70
0
  0
VERTEX
  8
a
  10
6.72949
  20
0.56433
  30
0.0
  70
0
  0
VERTEX
  8
a
  10
6.72826
  20
0.58751
  30
0.0
  70
0
  0
VERTEX
  8
a
  10
6.48887
  20
0.64897
  30
0.0
  70
0
  0
VERTEX
  8
a
  10
6.47663
  20
0.62926
  30
0.0
  70
0
  0
VERTEX
  8
a
  10
6.45149
  20
0.59002
  30
0.0
  70
0
  0
VERTEX
  8
a
  10
6.39869
  20
0.51233
  30
0.0
  70
0
  0
VERTEX
  8
a
  10
6.34274
  20
0.43564
  30
0.0
  70
0
  0
VERTEX
  8
a
  10
6.28385
  20
0.35992
  30
0.0
  70
0
  0
VERTEX
  8
a
  10
6.26869
  20
0.34115
  30
0.0
  70
0
  0
VERTEX
  8
a
  10
6.04228
  20
0.40994
  30
0.0
  70
0
  0
VERTEX
  8
a
  10
6.04012
  20
0.43397
  30
0.0
  70
0
  0
VERTEX
  8
a
  10
6.03331
  20
0.52965
  30
0.0
  70
0
  0
VERTEX
  8
a
  10
6.02948
  20
0.6245
  30
0.0
  70
0
  0
VERTEX
  8
a
  10
6.02883
  20
0.71844
  30
0.0
  70
0
  0
VERTEX
  8
a
  10
6.02976
  20
0.76503
  30
0.0
  70
0
  0
VERTEX
  8
a
  10
6.03055
  20
0.78822
  30
0.0
  70
0
  0
VERTEX
  8
a
  10
5.79743
  20
0.87032
  30
0.0
  70
0
  0
VERTEX
  8
a
  10
5.78352
  20
0.85174
  30
0.0
  70
0
  0
VERTEX
  8
a
  10
5.75505
  20
0.81485
  30
0.0
  70
0
  0
VERTEX
  8
a
  10
5.69568
  20
0.74206
  30
0.0
  70
0
  0
VERTEX
  8
a
  10
5.63327
  20
0.67053
  30
0.0
  70
0
  0
VERTEX
  8
a
  10
5.568
  20
0.60024
  30
0.0
  70
0
  0
VERTEX
  8
a
  10
5.55126
  20
0.58285
  30
0.0
  70
0
  0
VERTEX
  8
a
  10
5.3317
  20
0.67111
  30
0.0
  70
0
  0
VERTEX
  8
a
  10
5.33165
  20
0.69525
  30
0.0
  70
0
  0
VERTEX
  8
a
  10
5.3332
  20
0.79115
  30
0.0
  70
0
  0
VERTEX
  8
a
  10
5.33766
  20
0.88598
  30
0.0
  70
0
  0
VERTEX
  8
a
  10
5.34519
  20
0.97961
  30
0.0
  70
0
  0
VERTEX
  8
a
  10
5.35018
  20
1.02594
  30
0.0
  70
0
  0
VERTEX
  8
a
  10
5.35299
  20
1.04898
  30
0.0
  70
0
  0
VERTEX
  8
a
  10
5.12791
  20
1.15108
  30
0.0
  70
0
  0
VERTEX
  8
a
  10
5.11243
  20
1.13379
  30
0.0
  70
0
  0
VERTEX
  8
a
  10
5.08086
  20
1.09952
  30
0.0
  70
0
  0
VERTEX
  8
a
  10
5.01537
  20
1.03218
  30
0.0
  70
0
  0
VERTEX
  8
a
  10
4.94696
  20
0.96636
  30
0.0
  70
0
  0
VERTEX
  8
a
  10
4.87582
  20
0.90202
  30
0.0
  70
0
  0
VERTEX
  8
a
  10
4.85762
  20
0.88617
  30
0.0
  70
0
  0
VERTEX
  8
a
  10
4.6466
  20
0.99322
  30
0.0
  70
0
  0
VERTEX
  8
a
  10
4.64865
  20
1.01727
  30
0.0
  70
0
  0
VERTEX
  8
a
  10
4.65855
  20
1.11268
  30
0.0
  70
0
  0
VERTEX
  8
a
  10
4.67125
  20
1.20676
  30
0.0
  70
0
  0
VERTEX
  8
a
  10
4.68692
  20
1.29938
  30
0.0
  70
0
  0
VERTEX
  8
a
  10
4.69593
  20
1.3451
  30
0.0
  70
0
  0
VERTEX
  8
a
  10
4.70074
  20
1.3678
  30
0.0
  70
0
  0
VERTEX
  8
a
  10
4.48541
  20
1.48913
  30
0.0
  70
0
  0
VERTEX
  8
a
  10
4.46848
  20
1.47325
  30
0.0
  70
0
  0
VERTEX
  8
a
  10
4.43404
  20
1.44187
  30
0.0
  70
0
  0
VERTEX
  8
a
  10
4.36293
  20
1.38048
  30
0.0
  70
0
  0
VERTEX
  8
a
  10
4.28905
  20
1.32088
  30
0.0
  70
0
  0
VERTEX
  8
a
  10
4.21257
  20
1.26299
  30
0.0
  70
0
  0
VERTEX
  8
a
  10
4.19306
  20
1.24878
  30
0.0
  70
0
  0
VERTEX
  8
a
  10
3.99217
  20
1.37382
  30
0.0
  70
0
  0
VERTEX
  8
a
  10
3.99631
  20
1.3976
  30
0.0
  70
0
  0
VERTEX
  8
a
  10
4.01449
  20
1.49178
  30
0.0
  70
0
  0
VERTEX
  8
a
  10
4.03534
  20
1.58439
  30
0.0
  70
0
  0
VERTEX
  8
a
  10
4.05902
  20
1.6753
  30
0.0
  70
0
  0
VERTEX
  8
a
  10
4.07198
  20
1.72006
  30
0.0
  70
0
  0
VERTEX
  8
a
  10
4.07875
  20
1.74225
  30
0.0
  70
0
  0
VERTEX
  8
a
  10
3.87482
  20
1.88189
  30
0.0
  70
0
  0
VERTEX
  8
a
  10
3.85657
  20
1.86755
  30
0.0
  70
0
  0
VERTEX
  8
a
  10
3.81953
  20
1.83928
  30
0.0
  70
0
  0
VERTEX
  8
a
  10
3.74334
  20
1.78433
  30
0.0
  70
0
  0
VERTEX
  8
a
  10
3.66454
  20
1.7314
  30
0.0
  70
0
  0
VERTEX
  8
a
  10
3.5833
  20
1.68039
  30
0.0
  70
0
  0
VERTEX
  8
a
  10
3.56263
  20
1.66793
  30
0.0
  70
0
  0
VERTEX
  8
a
  10
3.3734
  20
1.81001
  30
0.0
  70
0
  0
VERTEX
  8
a
  10
3.3796
  20
1.83334
  30
0.0
  70
0
  0
VERTEX
  8
a
  10
3.40592
  20
1.92558
  30
0.0
  70
0
  0
VERTEX
  8
a
  10
3.43477
  20
2.01601
  30
0.0
  70
0
  0
VERTEX
  8
a
  10
3.46628
  20
2.10451
  30
0.0
  70
0
  0
VERTEX
  8
a
  10
3.48308
  20
2.14797
  30
0.0
  70
0
  0
VERTEX
  8
a
  10
3.49176
  20
2.16949
  30
0.0
  70
0
  0
VERTEX
  8
a
  10
3.30078
  20
2.32637
  30
0.0
  70
0
  0
VERTEX
  8
a
  10
3.28135
  20
2.31367
  30
0.0
  70
0
  0
VERTEX
  8
a
  10
3.24198
  20
2.28874
  30
0.0
  70
0
  0
VERTEX
  8
a
  10
3.1613
  20
2.24064
  30
0.0
  70
0
  0
VERTEX
  8
a
  10
3.07818
  20
2.19478
  30
0.0
  70
0
  0
VERTEX
  8
a
  10
2.99281
  20
2.15105
  30
0.0
  70
0
  0
VERTEX
  8
a
  10
2.97113
  20
2.14044
  30
0.0
  70
0
  0
VERTEX
  8
a
  10
2.79501
  20
2.29847
  30
0.0
  70
0
  0
VERTEX
  8
a
  10
2.80321
  20
2.32116
  30
0.0
  70
0
  0
VERTEX
  8
a
  10
2.83747
  20
2.41076
  30
0.0
  70
0
  0
VERTEX
  8
a
  10
2.87409
  20
2.49834
  30
0.0
  70
0
  0
VERTEX
  8
a
  10
2.9132
  20
2.58375
  30
0.0
  70
0
  0
VERTEX
  8
a
  10
2.93373
  20
2.62558
  30
0.0
  70
0
  0
VERTEX
  8
a
  10
2.94425
  20
2.64626
  30
0.0
  70
0
  0
VERTEX
  8
a
  10
2.76767
  20
2.81919
  30
0.0
  70
0
  0
VERTEX
  8
a
  10
2.74721
  20
2.80824
  30
0.0
  70
0
  0
VERTEX
  8
a
  10
2.70581
  20
2.78683
  30
0.0
  70
0
  0
VERTEX
  8
a
  10
2.62124
  20
2.74595
  30
0.0
  70
0
  0
VERTEX
  8
a
  10
2.53445
  20
2.7075
  30
0.0
  70
0
  0
VERTEX
  8
a
  10
2.44559
  20
2.67138
  30
0.0
  70
0
  0
VERTEX
  8
a
  10
2.42307
  20
2.6627
  30
0.0
  70
0
  0
VERTEX
  8
a
  10
2.26139
  20
2.83547
  30
0.0
  70
0
  0
VERTEX
  8
a
  10
2.27154
  20
2.85737
  30
0.0
  70
0
  0
VERTEX
  8
a
  10
2.31347
  20
2.94364
  30
0.0
  70
0
  0
VERTEX
  8
a
  10
2.35759
  20
3.02769
  30
0.0
  70
0
  0
VERTEX
  8
a
  10
2.40399
  20
3.10937
  30
0.0
  70
0
  0
VERTEX
  8
a
  10
2.42809
  20
3.14925
  30
0.0
  70
0
  0
VERTEX
  8
a
  10
2.44037
  20
3.16894
  30
0.0
  70
0
  0
VERTEX
  8
a
  10
2.27953
  20
3.3566
  30
0.0
  70
0
  0
VERTEX
  8
a
  10
2.2582
  20
3.34747
  30
0.0
  70
0
  0
VERTEX
  8
a
  10
2.2151
  20
3.32976
  30
0.0
  70
0
  0
VERTEX
  8
a
  10
2.12728
  20
3.2964
  30
0.0
  70
0
  0
VERTEX
  8
a
  10
2.03747
  20
3.26566
  30
0.0
  70
0
  0
VERTEX
  8
a
  10
1.9458
  20
3.23742
  30
0.0
  70
0
  0
VERTEX
  8
a
  10
1.92261
  20
3.23074
  30
0.0
  70
0
  0
VERTEX
  8
a
  10
1.7766
  20
3.41695
  30
0.0
  70
0
  0
VERTEX
  8
a
  10
1.78862
  20
3.43788
  30
0.0
  70
0
  0
VERTEX
  8
a
  10
1.83791
  20
3.52016
  30
0.0
  70
0
  0
VERTEX
  8
a
  10
1.88919
  20
3.60005
  30
0.0
  70
0
  0
VERTEX
  8
a
  10
1.94253
  20
3.67737
  30
0.0
  70
0
  0
VERTEX
  8
a
  10
1.97001
  20
3.715
  30
0.0
  70
0
  0
VERTEX
  8
a
  10
1.98397
  20
3.73355
  30
0.0
  70
0
  0
VERTEX
  8
a
  10
1.84009
  20
3.93451
  30
0.0
  70
0
  0
VERTEX
  8
a
  10
1.81804
  20
3.92727
  30
0.0
  70
0
  0
VERTEX
  8
a
  10
1.77356
  20
3.91338
  30
0.0
  70
0
  0
VERTEX
  8
a
  10
1.68318
  20
3.8878
  30
0.0
  70
0
  0
VERTEX
  8
a
  10
1.59102
  20
3.86501
  30
0.0
  70
0
  0
VERTEX
  8
a
  10
1.49724
  20
3.84487
  30
0.0
  70
0
  0
VERTEX
  8
a
  10
1.47356
  20
3.84023
  30
0.0
  70
0
  0
VERTEX
  8
a
  10
1.34433
  20
4.03846
  30
0.0
  70
0
  0
VERTEX
  8
a
  10
1.35813
  20
4.05826
  30
0.0
  70
0
  0
VERTEX
  8
a
  10
1.41441
  20
4.13594
  30
0.0
  70
0
  0
VERTEX
  8
a
  10
1.47245
  20
4.21105
  30
0.0
  70
0
  0
VERTEX
  8
a
  10
1.53233
  20
4.28343
  30
0.0
  70
0
  0
VERTEX
  8
a
  10
1.56299
  20
4.31852
  30
0.0
  70
0
  0
VERTEX
  8
a
  10
1.57851
  20
4.33578
  30
0.0
  70
0
  0
VERTEX
  8
a
  10
1.45269
  20
4.54852
  30
0.0
  70
0
  0
VERTEX
  8
a
  10
1.4301
  20
4.54323
  30
0.0
  70
0
  0
VERTEX
  8
a
  10
1.38458
  20
4.53327
  30
0.0
  70
0
  0
VERTEX
  8
a
  10
1.2923
  20
4.51567
  30
0.0
  70
0
  0
VERTEX
  8
a
  10
1.19852
  20
4.50099
  30
0.0
  70
0
  0
VERTEX
  8
a
  10
1.10334
  20
4.4891
  30
0.0
  70
0
  0
VERTEX
  8
a
  10
1.07934
  20
4.48654
  30
0.0
  70
0
  0
VERTEX
  8
a
  10
0.96788
  20
4.69528
  30
0.0
  70
0
  0
VERTEX
  8
a
  10
0.98335
  20
4.7138
  30
0.0
  70
0
  0
VERTEX
  8
a
  10
1.04619
  20
4.78628
  30
0.0
  70
0
  0
VERTEX
  8
a
  10
1.11056
  20
4.85605
  30
0.0
  70
0
  0
VERTEX
  8
a
  10
1.17651
  20
4.92294
  30
0.0
  70
0
  0
VERTEX
  8
a
  10
1.21011
  20
4.95522
  30
0.0
  70
0
  0
VERTEX
  8
a
  10
1.22708
  20
4.97106
  30
0.0
  70
0
  0
VERTEX
  8
a
  10
1.12029
  20
5.19395
  30
0.0
  70
0
  0
VERTEX
  8
a
  10
1.09731
  20
5.19066
  30
0.0
  70
0
  0
VERTEX
  8
a
  10
1.0511
  20
5.1847
  30
0.0
  70
0
  0
VERTEX
  8
a
  10
0.95764
  20
5.17521
  30
0.0
  70
0
  0
VERTEX
  8
a
  10
0.86293
  20
5.16876
  30
0.0
  70
0
  0
VERTEX
  8
a
  10
0.76708
  20
5.16521
  30
0.0
  70
0
  0
VERTEX
  8
a
  10
0.74295
  20
5.16476
  30
0.0
  70
0
  0
VERTEX
  8
a
  10
0.65011
  20
5.38241
  30
0.0
  70
0
  0
VERTEX
  8
a
  10
0.66714
  20
5.39952
  30
0.0
  70
0
  0
VERTEX
  8
a
  10
0.73605
  20
5.46624
  30
0.0
  70
0
  0
VERTEX
  8
a
  10
0.80625
  20
5.53014
  30
0.0
  70
0
  0
VERTEX
  8
a
  10
0.87779
  20
5.59102
  30
0.0
  70
0
  0
VERTEX
  8
a
  10
0.91408
  20
5.62025
  30
0.0
  70
0
  0
VERTEX
  8
a
  10
0.93235
  20
5.63455
  30
0.0
  70
0
  0
VERTEX
  8
a
  10
0.84539
  20
5.8659
  30
0.0
  70
0
  0
VERTEX
  8
a
  10
0.82222
  20
5.86462
  30
0.0
  70
0
  0
VERTEX
  8
a
  10
0.77566
  20
5.86272
  30
0.0
  70
0
  0
VERTEX
  8
a
  10
0.68174
  20
5.86141
  30
0.0
  70
0
  0
VERTEX
  8
a
  10
0.58682
  20
5.86324
  30
0.0
  70
0
  0
VERTEX
  8
a
  10
0.49103
  20
5.86805
  30
0.0
  70
0
  0
VERTEX
  8
a
  10
0.46695
  20
5.86971
  30
0.0
  70
0
  0
VERTEX
  8
a
  10
0.39343
  20
6.09463
  30
0.0
  70
0
  0
VERTEX
  8
a
  10
0.41189
  20
6.11018
  30
0.0
  70
0
  0
VERTEX
  8
a
  10
0.48635
  20
6.17064
  30
0.0
  70
0
  0
VERTEX
  8
a
  10
0.56186
  20
6.22818
  30
0.0
  70
0
  0
VERTEX
  8
a
  10
0.63843
  20
6.28259
  30
0.0
  70
0
  0
VERTEX
  8
a
  10
0.67712
  20
6.30856
  30
0.0
  70
0
  0
VERTEX
  8
a
  10
0.69658
  20
6.32121
  30
0.0
  70
0
  0
VERTEX
  8
a
  10
0.63011
  20
6.55926
  30
0.0
  70
0
  0
VERTEX
  8
a
  10
0.60692
  20
6.56
  30
0.0
  70
0
  0
VERTEX
  8
a
  10
0.56037
  20
6.56216
  30
0.0
  70
0
  0
VERTEX
  8
a
  10
0.46669
  20
6.56904
  30
0.0
  70
0
  0
VERTEX
  8
a
  10
0.3723
  20
6.57914
  30
0.0
  70
0
  0
VERTEX
  8
a
  10
0.27728
  20
6.59228
  30
0.0
  70
0
  0
VERTEX
  8
a
  10
0.25344
  20
6.59603
  30
0.0
  70
0
  0
VERTEX
  8
a
  10
0.1998
  20
6.8265
  30
0.0
  70
0
  0
VERTEX
  8
a
  10
0.21955
  20
6.84039
  30
0.0
  70
0
  0
VERTEX
  8
a
  10
0.299
  20
6.89413
  30
0.0
  70
0
  0
VERTEX
  8
a
  10
0.37923
  20
6.94487
  30
0.0
  70
0
  0
VERTEX
  8
a
  10
0.46025
  20
6.9924
  30
0.0
  70
0
  0
VERTEX
  8
a
  10
0.50106
  20
7.01489
  30
0.0
  70
0
  0
VERTEX
  8
a
  10
0.52155
  20
7.0258
  30
0.0
  70
0
  0
VERTEX
  8
a
  10
0.47608
  20
7.26873
  30
0.0
  70
0
  0
VERTEX
  8
a
  10
0.45304
  20
7.2715
  30
0.0
  70
0
  0
VERTEX
  8
a
  10
0.40686
  20
7.2777
  30
0.0
  70
0
  0
VERTEX
  8
a
  10
0.31413
  20
7.29272
  30
0.0
  70
0
  0
VERTEX
  8
a
  10
0.22098
  20
7.31101
  30
0.0
  70
0
  0
VERTEX
  8
a
  10
0.12747
  20
7.33239
  30
0.0
  70
0
  0
VERTEX
  8
a
  10
0.10404
  20
7.3382
  30
0.0
  70
0
  0
VERTEX
  8
a
  10
0.0707
  20
7.57246
  30
0.0
  70
0
  0
VERTEX
  8
a
  10
0.09158
  20
7.58458
  30
0.0
  70
0
  0
VERTEX
  8
a
  10
0.17541
  20
7.63119
  30
0.0
  70
0
  0
VERTEX
  8
a
  10
0.25976
  20
7.67474
  30
0.0
  70
0
  0
VERTEX
  8
a
  10
0.34462
  20
7.71503
  30
0.0
  70
0
  0
VERTEX
  8
a
  10
0.38723
  20
7.73388
  30
0.0
  70
0
  0
VERTEX
  8
a
  10
0.40859
  20
7.74296
  30
0.0
  70
0
  0
VERTEX
  8
a
  10
0.38447
  20
7.98894
  30
0.0
  70
0
  0
VERTEX
  8
a
  10
0.36176
  20
7.9937
  30
0.0
  70
0
  0
VERTEX
  8
a
  10
0.31629
  20
8.00391
  30
0.0
  70
0
  0
VERTEX
  8
a
  10
0.22522
  20
8.02695
  30
0.0
  70
0
  0
VERTEX
  8
a
  10
0.13402
  20
8.05329
  30
0.0
  70
0
  0
VERTEX
  8
a
  10
0.04273
  20
8.08273
  30
0.0
  70
0
  0
VERTEX
  8
a
  10
0.0199
  20
8.09056
  30
0.0
  70
0
  0
VERTEX
  8
a
  10
0.00711
  20
8.32684
  30
0.0
  70
0
  0
VERTEX
  8
a
  10
0.02896
  20
8.33709
  30
0.0
  70
0
  0
VERTEX
  8
a
  10
0.11653
  20
8.37622
  30
0.0
  70
0
  0
VERTEX
  8
a
  10
0.20436
  20
8.41225
  30
0.0
  70
0
  0
VERTEX
  8
a
  10
0.2924
  20
8.445
  30
0.0
  70
0
  0
VERTEX
  8
a
  10
0.3365
  20
8.46006
  30
0.0
  70
0
  0
VERTEX
  8
a
  10
0.35857
  20
8.46724
  30
0.0
  70
0
  0
VERTEX
  8
a
  10
0.35598
  20
8.71438
  30
0.0
  70
0
  0
VERTEX
  8
a
  10
0.33377
  20
8.7211
  30
0.0
  70
0
  0
VERTEX
  8
a
  10
0.28936
  20
8.73524
  30
0.0
  70
0
  0
VERTEX
  8
a
  10
0.20065
  20
8.76613
  30
0.0
  70
0
  0
VERTEX
  8
a
  10
0.11209
  20
8.80032
  30
0.0
  70
0
  0
VERTEX
  8
a
  10
0.02372
  20
8.8376
  30
0.0
  70
0
  0
VERTEX
  8
a
  10
0.00165
  20
8.84739
  30
0.0
  70
0
  0
VERTEX
  8
a
  10
0.0095
  20
9.08389
  30
0.0
  70
0
  0
VERTEX
  8
a
  10
0.03216
  20
9.0922
  30
0.0
  70
0
  0
VERTEX
  8
a
  10
0.12281
  20
9.12354
  30
0.0
  70
0
  0
VERTEX
  8
a
  10
0.21345
  20
9.15179
  30
0.0
  70
0
  0
VERTEX
  8
a
  10
0.30401
  20
9.17673
  30
0.0
  70
0
  0
VERTEX
  8
a
  10
0.34925
  20
9.18789
  30
0.0
  70
0
  0
VERTEX
  8
a
  10
0.37186
  20
9.19313
  30
0.0
  70
0
  0
VERTEX
  8
a
  10
0.39082
  20
9.43955
  30
0.0
  70
0
  0
VERTEX
  8
a
  10
0.36928
  20
9.44818
  30
0.0
  70
0
  0
VERTEX
  8
a
  10
0.32628
  20
9.46613
  30
0.0
  70
0
  0
VERTEX
  8
a
  10
0.2406
  20
9.50464
  30
0.0
  70
0
  0
VERTEX
  8
a
  10
0.15535
  20
9.54641
  30
0.0
  70
0
  0
VERTEX
  8
a
  10
0.07056
  20
9.59126
  30
0.0
  70
0
  0
VERTEX
  8
a
  10
0.04944
  20
9.60294
  30
0.0
  70
0
  0
VERTEX
  8
a
  10
0.07787
  20
9.83785
  30
0.0
  70
0
  0
VERTEX
  8
a
  10
0.10117
  20
9.84415
  30
0.0
  70
0
  0
VERTEX
  8
a
  10
0.19421
  20
9.86748
  30
0.0
  70
0
  0
VERTEX
  8
a
  10
0.28695
  20
9.88771
  30
0.0
  70
0
  0
VERTEX
  8
a
  10
0.37935
  20
9.90467
  30
0.0
  70
0
  0
VERTEX
  8
a
  10
0.42539
  20
9.91184
  30
0.0
  70
0
  0
VERTEX
  8
a
  10
0.44837
  20
9.91509
  30
0.0
  70
0
  0
VERTEX
  8
a
  10
0.48873
  20
10.15892
  30
0.0
  70
0
  0
VERTEX
  8
a
  10
0.46803
  20
10.1694
  30
0.0
  70
0
  0
VERTEX
  8
a
  10
0.42675
  20
10.19103
  30
0.0
  70
0
  0
VERTEX
  8
a
  10
0.34475
  20
10.23686
  30
0.0
  70
0
  0
VERTEX
  8
a
  10
0.26348
  20
10.2859
  30
0.0
  70
0
  0
VERTEX
  8
a
  10
0.18292
  20
10.33797
  30
0.0
  70
0
  0
VERTEX
  8
a
  10
0.16289
  20
10.35144
  30
0.0
  70
0
  0
VERTEX
  8
a
  10
0.21168
  20
10.58298
  30
0.0
  70
0
  0
VERTEX
  8
a
  10
0.23544
  20
10.58723
  30
0.0
  70
0
  0
VERTEX
  8
a
  10
0.33016
  20
10.60236
  30
0.0
  70
0
  0
VERTEX
  8
a
  10
0.42432
  20
10.61443
  30
0.0
  70
0
  0
VERTEX
  8
a
  10
0.51784
  20
10.62327
  30
0.0
  70
0
  0
VERTEX
  8
a
  10
0.56433
  20
10.62641
  30
0.0
  70
0
  0
VERTEX
  8
a
  10
0.58751
  20
10.62764
  30
0.0
  70
0
  0
VERTEX
  8
a
  10
0.64897
  20
10.86703
  30
0.0
  70
0
  0
VERTEX
  8
a
  10
0.62926
  20
10.87927
  30
0.0
  70
0
  0
VERTEX
  8
a
  10
0.59002
  20
10.90441
  30
0.0
  70
0
  0
VERTEX
  8
a
  10
0.51233
  20
10.95721
  30
0.0
  70
0
  0
VERTEX
  8
a
  10
0.43564
  20
11.01315
  30
0.0
  70
0
  0
VERTEX
  8
a
  10
0.35992
  20
11.07204
  30
0.0
  70
0
  0
VERTEX
  8
a
  10
0.34115
  20
11.08721
  30
0.0
  70
0
  0
VERTEX
  8
a
  10
0.40994
  20
11.31362
  30
0.0
  70
0
  0
VERTEX
  8
a
  10
0.43397
  20
11.31577
  30
0.0
  70
0
  0
VERTEX
  8
a
  10
0.52965
  20
11.32259
  30
0.0
  70
0
  0
VERTEX
  8
a
  10
0.6245
  20
11.32642
  30
0.0
  70
0
  0
VERTEX
  8
a
  10
0.71844
  20
11.32707
  30
0.0
  70
0
  0
VERTEX
  8
a
  10
0.76503
  20
11.32614
  30
0.0
  70
0
  0
VERTEX
  8
a
  10
0.78822
  20
11.32535
  30
0.0
  70
0
  0
VERTEX
  8
a
  10
0.87032
  20
11.55847
  30
0.0
  70
0
  0
VERTEX
  8
a
  10
0.85174
  20
11.57238
  30
0.0
  70
0
  0
VERTEX
  8
a
  10
0.81485
  20
11.60085
  30
0.0
  70
0
  0
VERTEX
  8
a
  10
0.74206
  20
11.66022
  30
0.0
  70
0
  0
VERTEX
  8
a
  10
0.67053
  20
11.72263
  30
0.0
  70
0
  0
VERTEX
  8
a
  10
0.60024
  20
11.7879
  30
0.0
  70
0
  0
VERTEX
  8
a
  10
0.58285
  20
11.80464
  30
0.0
  70
0
  0
VERTEX
  8
a
  10
0.67111
  20
12.02419
  30
0.0
  70
0
  0
VERTEX
  8
a
  10
0.69525
  20
12.02425
  30
0.0
  70
0
  0
VERTEX
  8
a
  10
0.79115
  20
12.0227
  30
0.0
  70
0
  0
VERTEX
  8
a
  10
0.88598
  20
12.01824
  30
0.0
  70
0
  0
VERTEX
  8
a
  10
0.97961
  20
12.01071
  30
0.0
  70
0
  0
VERTEX
  8
a
  10
1.02594
  20
12.00572
  30
0.0
  70
0
  0
VERTEX
  8
a
  10
1.04898
  20
12.00291
  30
0.0
  70
0
  0
VERTEX
  8
a
  10
1.15108
  20
12.22799
  30
0.0
  70
0
  0
VERTEX
  8
a
  10
1.13379
  20
12.24346
  30
0.0
  70
0
  0
VERTEX
  8
a
  10
1.09952
  20
12.27504
  30
0.0
  70
0
  0
VERTEX
  8
a
  10
1.03218
  20
12.34053
  30
0.0
  70
0
  0
VERTEX
  8
a
  10
0.96636
  20
12.40894
  30
0.0
  70
0
  0
VERTEX
  8
a
  10
0.90202
  20
12.48008
  30
0.0
  70
0
  0
VERTEX
  8
a
  10
0.88617
  20
12.49828
  30
0.0
  70
0
  0
VERTEX
  8
a
  10
0.99322
  20
12.7093
  30
0.0
  70
0
  0
VERTEX
  8
a
  10
1.01727
  20
12.70725
  30
0.0
  70
0
  0
VERTEX
  8
a
  10
1.11268
  20
12.69735
  30
0.0
  70
0
  0
VERTEX
  8
a
  10
1.20676
  20
12.68464
  30
0.0
  70
0
  0
VERTEX
  8
a
  10
1.29938
  20
12.66898
  30
0.0
  70
0
  0
VERTEX
  8
a
  10
1.3451
  20
12.65997
  30
0.0
  70
0
  0
VERTEX
  8
a
  10
1.3678
  20
12.65516
  30
0.0
  70
0
  0
VERTEX
  8
a
  10
1.48913
  20
12.87049
  30
0.0
  70
0
  0
VERTEX
  8
a
  10
1.47325
  20
12.88741
  30
0.0
  70
0
  0
VERTEX
  8
a
  10
1.44187
  20
12.92186
  30
0.0
  70
0
  0
VERTEX
  8
a
  10
1.38048
  20
12.99297
  30
0.0
  70
0
  0
VERTEX
  8
a
  10
1.32088
  20
13.06685
  30
0.0
  70
0
  0
VERTEX
  8
a
  10
1.26299
  20
13.14333
  30
0.0
  70
0
  0
VERTEX
  8
a
  10
1.24878
  20
13.16284
  30
0.0
  70
0
  0
VERTEX
  8
a
  10
1.37382
  20
13.36373
  30
0.0
  70
0
  0
VERTEX
  8
a
  10
1.3976
  20
13.35959
  30
0.0
  70
0
  0
VERTEX
  8
a
  10
1.49178
  20
13.34141
  30
0.0
  70
0
  0
VERTEX
  8
a
  10
1.58439
  20
13.32056
  30
0.0
  70
0
  0
VERTEX
  8
a
  10
1.6753
  20
13.29688
  30
0.0
  70
0
  0
VERTEX
  8
a
  10
1.72006
  20
13.28392
  30
0.0
  70
0
  0
VERTEX
  8
a
  10
1.74225
  20
13.27715
  30
0.0
  70
0
  0
VERTEX
  8
a
  10
1.88189
  20
13.48108
  30
0.0
  70
0
  0
VERTEX
  8
a
  10
1.86755
  20
13.49933
  30
0.0
  70
0
  0
VERTEX
  8
a
  10
1.83928
  20
13.53637
  30
0.0
  70
0
  0
VERTEX
  8
a
  10
1.78433
  20
13.61256
  30
0.0
  70
0
  0
VERTEX
  8
a
  10
1.7314
  20
13.69136
  30
0.0
  70
0
  0
VERTEX
  8
a
  10
1.68039
  20
13.7726
  30
0.0
  70
0
  0
VERTEX
  8
a
  10
1.66793
  20
13.79327
  30
0.0
  70
0
  0
VERTEX
  8
a
  10
1.81001
  20
13.9825
  30
0.0
  70
0
  0
VERTEX
  8
a
  10
1.83334
  20
13.9763
  30
0.0
  70
0
  0
VERTEX
  8
a
  10
1.92558
  20
13.94998
  30
0.0
  70
0
  0
VERTEX
  8
a
  10
2.01601
  20
13.92113
  30
0.0
  70
0
  0
VERTEX
  8
a
  10
2.10451
  20
13.88962
  30
0.0
  70
0
  0
VERTEX
  8
a
  10
2.14797
  20
13.87281
  30
0.0
  70
0
  0
VERTEX
  8
a
  10
2.16949
  20
13.86413
  30
0.0
  70
0
  0
VERTEX
  8
a
  10
2.32637
  20
14.05512
  30
0.0
  70
0
  0
VERTEX
  8
a
  10
2.31367
  20
14.07455
  30
0.0
  70
0
  0
VERTEX
  8
a
  10
2.28874
  20
14.11391
  30
0.0
  70
0
  0
VERTEX
  8
a
  10
2.24064
  20
14.1946
  30
0.0
  70
0
  0
VERTEX
  8
a
  10
2.19478
  20
14.27771
  30
0.0
  70
0
  0
VERTEX
  8
a
  10
2.15105
  20
14.36309
  30
0.0
  70
0
  0
VERTEX
  8
a
  10
2.14044
  20
14.38477
  30
0.0
  70
0
  0
VERTEX
  8
a
  10
2.29847
  20
14.56089
  30
0.0
  70
0
  0
VERTEX
  8
a
  10
2.32116
  20
14.55269
  30
0.0
  70
0
  0
VERTEX
  8
a
  10
2.41076
  20
14.51843
  30
0.0
  70
0
  0
VERTEX
  8
a
  10
2.49834
  20
14.48181
  30
0.0
  70
0
  0
VERTEX
  8
a
  10
2.58375
  20
14.4427
  30
0.0
  70
0
  0
VERTEX
  8
a
  10
2.62558
  20
14.42217
  30
0.0
  70
0
  0
VERTEX
  8
a
  10
2.64626
  20
14.41165
  30
0.0
  70
0
  0
VERTEX
  8
a
  10
2.81919
  20
14.58823
  30
0.0
  70
0
  0
VERTEX
  8
a
  10
2.80824
  20
14.60869
  30
0.0
  70
0
  0
VERTEX
  8
a
  10
2.78683
  20
14.65008
  30
0.0
  70
0
  0
VERTEX
  8
a
  10
2.74595
  20
14.73466
  30
0.0
  70
0
  0
VERTEX
  8
a
  10
2.7075
  20
14.82145
  30
0.0
  70
0
  0
VERTEX
  8
a
  10
2.67138
  20
14.91031
  30
0.0
  70
0
  0
VERTEX
  8
a
  10
2.6627
  20
14.93283
  30
0.0
  70
0
  0
VERTEX
  8
a
  10
2.83547
  20
15.09451
  30
0.0
  70
0
  0
VERTEX
  8
a
  10
2.85737
  20
15.08436
  30
0.0
  70
0
  0
VERTEX
  8
a
  10
2.94364
  20
15.04243
  30
0.0
  70
0
  0
VERTEX
  8
a
  10
3.02769
  20
14.99831
  30
0.0
  70
0
  0
VERTEX
  8
a
  10
3.10937
  20
14.95191
  30
0.0
  70
0
  0
VERTEX
  8
a
  10
3.14925
  20
14.92781
  30
0.0
  70
0
  0
VERTEX
  8
a
  10
3.16894
  20
14.91553
  30
0.0
  70
0
  0
VERTEX
  8
a
  10
3.3566
  20
15.07637
  30
0.0
  70
0
  0
VERTEX
  8
a
  10
3.34747
  20
15.0977
  30
0.0
  70
0
  0
VERTEX
  8
a
  10
3.32976
  20
15.1408
  30
0.0
  70
0
  0
VERTEX
  8
a
  10
3.2964
  20
15.22862
  30
0.0
  70
0
  0
VERTEX
  8
a
  10
3.26566
  20
15.31843
  30
0.0
  70
0
  0
VERTEX
  8
a
  10
3.23742
  20
15.4101
  30
0.0
  70
0
  0
VERTEX
  8
a
  10
3.23074
  20
15.43329
  30
0.0
  70
0
  0
VERTEX
  8
a
  10
3.41695
  20
15.5793
  30
0.0
  70
0
  0
VERTEX
  8
a
  10
3.43788
  20
15.56728
  30
0.0
  70
0
  0
VERTEX
  8
a
  10
3.52016
  20
15.51799
  30
0.0
  70
0
  0
VERTEX
  8
a
  10
3.60005
  20
15.46671
  30
0.0
  70
0
  0
VERTEX
  8
a
  10
3.67737
  20
15.41337
  30
0.0
  70
0
  0
VERTEX
  8
a
  10
3.715
  20
15.38589
  30
0.0
  70
0
  0
VERTEX
  8
a
  10
3.73355
  20
15.37193
  30
0.0
  70
0
  0
VERTEX
  8
a
  10
3.93451
  20
15.51581
  30
0.0
  70
0
  0
VERTEX
  8
a
  10
3.92727
  20
15.53786
  30
0.0
  70
0
  0
VERTEX
  8
a
  10
3.91338
  20
15.58234
  30
0.0
  70
0
  0
VERTEX
  8
a
  10
3.8878
  20
15.67272
  30
0.0
  70
0
  0
VERTEX
  8
a
  10
3.86501
  20
15.76488
  30
0.0
  70
0
  0
VERTEX
  8
a
  10
3.84487
  20
15.85866
  30
0.0
  70
0
  0
VERTEX
  8
a
  10
3.84023
  20
15.88234
  30
0.0
  70
0
  0
VERTEX
  8
a
  10
4.03846
  20
16.01157
  30
0.0
  70
0
  0
VERTEX
  8
a
  10
4.05826
  20
15.99777
  30
0.0
  70
0
  0
VERTEX
  8
a
  10
4.13594
  20
15.94149
  30
0.0
  70
0
  0
VERTEX
  8
a
  10
4.21105
  20
15.88345
  30
0.0
  70
0
  0
VERTEX
  8
a
  10
4.28343
  20
15.82357
  30
0.0
  70
0
  0
VERTEX
  8
a
  10
4.31852
  20
15.79291
  30
0.0
  70
0
  0
VERTEX
  8
a
  10
4.33578
  20
15.77739
  30
0.0
  70
0
  0
VERTEX
  8
a
  10
4.54852
  20
15.9032
  30
0.0
  70
0
  0
VERTEX
  8
a
  10
4.54323
  20
15.9258
  30
0.0
  70
0
  0
VERTEX
  8
a
  10
4.53327
  20
15.97132
  30
0.0
  70
0
  0
VERTEX
  8
a
  10
4.51567
  20
16.0636
  30
0.0
  70
0
  0
VERTEX
  8
a
  10
4.50099
  20
16.15738
  30
0.0
  70
0
  0
VERTEX
  8
a
  10
4.4891
  20
16.25256
  30
0.0
  70
0
  0
VERTEX
  8
a
  10
4.48654
  20
16.27656
  30
0.0
  70
0
  0
VERTEX
  8
a
  10
4.69528
  20
16.38802
  30
0.0
  70
0
  0
VERTEX
  8
a
  10
4.7138
  20
16.37254
  30
0.0
  70
0
  0
VERTEX
  8
a
  10
4.78628
  20
16.30971
  30
0.0
  70
0
  0
VERTEX
  8
a
  10
4.85605
  20
16.24534
  30
0.0
  70
0
  0
VERTEX
  8
a
  10
4.92294
  20
16.17939
  30
0.0
  70
0
  0
VERTEX
  8
a
  10
4.95522
  20
16.14578
  30
0.0
  70
0
  0
VERTEX
  8
a
  10
4.97106
  20
16.12882
  30
0.0
  70
0
  0
VERTEX
  8
a
  10
5.19395
  20
16.23561
  30
0.0
  70
0
  0
VERTEX
  8
a
  10
5.19066
  20
16.25859
  30
0.0
  70
0
  0
VERTEX
  8
a
  10
5.1847
  20
16.3048
  30
0.0
  70
0
  0
VERTEX
  8
a
  10
5.17521
  20
16.39826
  30
0.0
  70
0
  0
VERTEX
  8
a
  10
5.16876
  20
16.49297
  30
0.0
  70
0
  0
VERTEX
  8
a
  10
5.16521
  20
16.58882
  30
0.0
  70
0
  0
VERTEX
  8
a
  10
5.16476
  20
16.61295
  30
0.0
  70
0
  0
VERTEX
  8
a
  10
5.38241
  20
16.70579
  30
0.0
  70
0
  0
VERTEX
  8
a
  10
5.39952
  20
16.68876
  30
0.0
  70
0
  0
VERTEX
  8
a
  10
5.46624
  20
16.61985
  30
0.0
  70
0
  0
VERTEX
  8
a
  10
5.53014
  20
16.54965
  30
0.0
  70
0
  0
VERTEX
  8
a
  10
5.59102
  20
16.47811
  30
0.0
  70
0
  0
VERTEX
  8
a
  10
5.62025
  20
16.44182
  30
0.0
  70
0
  0
VERTEX
  8
a
  10
5.63455
  20
16.42355
  30
0.0
  70
0
  0
VERTEX
  8
a
  10
5.8659
  20
16.5105
  30
0.0
  70
0
  0
VERTEX
  8
a
  10
5.86462
  20
16.53368
  30
0.0
  70
0
  0
VERTEX
  8
a
  10
5.86272
  20
16.58024
  30
0.0
  70
0
  0
VERTEX
  8
a
  10
5.86141
  20
16.67416
  30
0.0
  70
0
  0
VERTEX
  8
a
  10
5.86324
  20
16.76907
  30
0.0
  70
0
  0
VERTEX
  8
a
  10
5.86805
  20
16.86487
  30
0.0
  70
0
  0
VERTEX
  8
a
  10
5.86971
  20
16.88895
  30
0.0
  70
0
  0
VERTEX
  8
a
  10
6.09463
  20
16.96247
  30
0.0
  70
0
  0
VERTEX
  8
a
  10
6.11018
  20
16.94401
  30
0.0
  70
0
  0
VERTEX
  8
a
  10
6.17064
  20
16.86955
  30
0.0
  70
0
  0
VERTEX
  8
a
  10
6.22818
  20
16.79404
  30
0.0
  70
0
  0
VERTEX
  8
a
  10
6.28259
  20
16.71747
  30
0.0
  70
0
  0
VERTEX
  8
a
  10
6.30856
  20
16.67878
  30
0.0
  70
0
  0
VERTEX
  8
a
  10
6.32121
  20
16.65932
  30
0.0
  70
0
  0
VERTEX
  8
a
  10
6.55926
  20
16.72579
  30
0.0
  70
0
  0
VERTEX
  8
a
  10
6.56
  20
16.74898
  30
0.0
  70
0
  0
VERTEX
  8
a
  10
6.56216
  20
16.79553
  30
0.0
  70
0
  0
VERTEX
  8
a
  10
6.56904
  20
16.88921
  30
0.0
  70
0
  0
VERTEX
  8
a
  10
6.57914
  20
16.9836
  30
0.0
  70
0
  0
VERTEX
  8
a
  10
6.59228
  20
17.07862
  30
0.0
  70
0
  0
VERTEX
  8
a
  10
6.59603
  20
17.10246
  30
0.0
  70
0
  0
VERTEX
  8
a
  10
6.8265
  20
17.15609
  30
0.0
  70
0
  0
VERTEX
  8
a
  10
6.84039
  20
17.13635
  30
0.0
  70
0
  0
VERTEX
  8
a
  10
6.89413
  20
17.0569
  30
0.0
  70
0
  0
VERTEX
  8
a
  10
6.94487
  20
16.97667
  30
0.0
  70
0
  0
VERTEX
  8
a
  10
6.9924
  20
16.89565
  30
0.0
  70
0
  0
VERTEX
  8
a
  10
7.01489
  20
16.85484
  30
0.0
  70
0
  0
VERTEX
  8
a
  10
7.0258
  20
16.83435
  30
0.0
  70
0
  0
VERTEX
  8
a
  10
7.26873
  20
16.87982
  30
0.0
  70
0
  0
VERTEX
  8
a
  10
7.2715
  20
16.90286
  30
0.0
  70
0
  0
VERTEX
  8
a
  10
7.2777
  20
16.94904
  30
0.0
  70
0
  0
VERTEX
  8
a
  10
7.29272
  20
17.04177
  30
0.0
  70
0
  0
VERTEX
  8
a
  10
7.31101
  20
17.13492
  30
0.0
  70
0
  0
VERTEX
  8
a
  10
7.33239
  20
17.22843
  30
0.0
  70
0
  0
VERTEX
  8
a
  10
7.3382
  20
17.25186
  30
0.0
  70
0
  0
VERTEX
  8
a
  10
7.57246
  20
17.2852
  30
0.0
  70
0
  0
VERTEX
  8
a
  10
7.58458
  20
17.26432
  30
0.0
  70
0
  0
VERTEX
  8
a
  10
7.63119
  20
17.18049
  30
0.0
  70
0
  0
VERTEX
  8
a
  10
7.67474
  20
17.09614
  30
0.0
  70
0
  0
VERTEX
  8
a
  10
7.71503
  20
17.01128
  30
0.0
  70
0
  0
VERTEX
  8
a
  10
7.73388
  20
16.96867
  30
0.0
  70
0
  0
VERTEX
  8
a
  10
7.74296
  20
16.94731
  30
0.0
  70
0
  0
VERTEX
  8
a
  10
7.98894
  20
16.97143
  30
0.0
  70
0
  0
VERTEX
  8
a
  10
7.9937
  20
16.99414
  30
0.0
  70
0
  0
VERTEX
  8
a
  10
8.00391
  20
17.03961
  30
0.0
  70
0
  0
VERTEX
  8
a
  10
8.02695
  20
17.13067
  30
0.0
  70
0
  0
VERTEX
  8
a
  10
8.05329
  20
17.22188
  30
0.0
  70
0
  0
VERTEX
  8
a
  10
8.08273
  20
17.31317
  30
0.0
  70
0
  0
VERTEX
  8
a
  10
8.09056
  20
17.336
  30
0.0
  70
0
  0
VERTEX
  8
a
  10
8.32684
  20
17.34879
  30
0.0
  70
0
  0
VERTEX
  8
a
  10
8.33709
  20
17.32694
  30
0.0
  70
0
  0
VERTEX
  8
a
  10
8.37622
  20
17.23937
  30
0.0
  70
0
  0
VERTEX
  8
a
  10
8.41225
  20
17.15154
  30
0.0
  70
0
  0
VERTEX
  8
a
  10
8.445
  20
17.0635
  30
0.0
  70
0
  0
VERTEX
  8
a
  10
8.46006
  20
17.0194
  30
0.0
  70
0
  0
VERTEX
  8
a
  10
8.46724
  20
16.99733
  30
0.0
  70
0
  0
VERTEX
  8
a
  10
8.71438
  20
16.99992
  30
0.0
  70
0
  0
VERTEX
  8
a
  10
8.7211
  20
17.02213
  30
0.0
  70
0
  0
VERTEX
  8
a
  10
8.73524
  20
17.06654
  30
0.0
  70
0
  0
VERTEX
  8
a
  10
8.76613
  20
17.15525
  30
0.0
  70
0
  0
VERTEX
  8
a
  10
8.80032
  20
17.24381
  30
0.0
  70
0
  0
VERTEX
  8
a
  10
8.8376
  20
17.33218
  30
0.0
  70
0
  0
VERTEX
  8
a
  10
8.84739
  20
17.35424
  30
0.0
  70
0
  0
VERTEX
  8
a
  10
9.08389
  20
17.3464
  30
0.0
  70
0
  0
VERTEX
  8
a
  10
9.0922
  20
17.32374
  30
0.0
  70
0
  0
VERTEX
  8
a
  10
9.12354
  20
17.23308
  30
0.0
  70
0
  0
VERTEX
  8
a
  10
9.15179
  20
17.14245
  30
0.0
  70
0
  0
VERTEX
  8
a
  10
9.17673
  20
17.05189
  30
0.0
  70
0
  0
VERTEX
  8
a
  10
9.18789
  20
17.00665
  30
0.0
  70
0
  0
VERTEX
  8
a
  10
9.19313
  20
16.98404
  30
0.0
  70
0
  0
VERTEX
  8
a
  10
9.43955
  20
16.96508
  30
0.0
  70
0
  0
VERTEX
  8
a
  10
9.44818
  20
16.98662
  30
0.0
  70
0
  0
VERTEX
  8
a
  10
9.46613
  20
17.02962
  30
0.0
  70
0
  0
VERTEX
  8
a
  10
9.50464
  20
17.1153
  30
0.0
  70
0
  0
VERTEX
  8
a
  10
9.54641
  20
17.20055
  30
0.0
  70
0
  0
VERTEX
  8
a
  10
9.59126
  20
17.28534
  30
0.0
  70
0
  0
VERTEX
  8
a
  10
9.60294
  20
17.30646
  30
0.0
  70
0
  0
VERTEX
  8
a
  10
9.83785
  20
17.27803
  30
0.0
  70
0
  0
VERTEX
  8
a
  10
9.84415
  20
17.25473
  30
0.0
  70
0
  0
VERTEX
  8
a
  10
9.86748
  20
17.16169
  30
0.0
  70
0
  0
VERTEX
  8
a
  10
9.88771
  20
17.06895
  30
0.0
  70
0
  0
VERTEX
  8
a
  10
9.90467
  20
16.97655
  30
0.0
  70
0
  0
VERTEX
  8
a
  10
9.91184
  20
16.93051
  30
0.0
  70
0
  0
VERTEX
  8
a
  10
9.91509
  20
16.90753
  30
0.0
  70
0
  0
VERTEX
  8
a
  10
10.15892
  20
16.86716
  30
0.0
  70
0
  0
VERTEX
  8
a
  10
10.1694
  20
16.88787
  30
0.0
  70
0
  0
VERTEX
  8
a
  10
10.19103
  20
16.92915
  30
0.0
  70
0
  0
VERTEX
  8
a
  10
10.23686
  20
17.01115
  30
0.0
  70
0
  0
VERTEX
  8
a
  10
10.2859
  20
17.09242
  30
0.0
  70
0
  0
VERTEX
  8
a
  10
10.33797
  20
17.17298
  30
0.0
  70
0
  0
VERTEX
  8
a
  10
10.35144
  20
17.19301
  30
0.0
  70
0
  0
VERTEX
  8
a
  10
10.58298
  20
17.14421
  30
0.0
  70
0
  0
VERTEX
  8
a
  10
10.58723
  20
17.12045
  30
0.0
  70
0
  0
VERTEX
  8
a
  10
10.60236
  20
17.02574
  30
0.0
  70
0
  0
VERTEX
  8
a
  10
10.61443
  20
16.93158
  30
0.0
  70
0
  0
VERTEX
  8
a
  10
10.62327
  20
16.83806
  30
0.0
  70
0
  0
VERTEX
  8
a
  10
10.62641
  20
16.79157
  30
0.0
  70
0
  0
VERTEX
  8
a
  10
10.62764
  20
16.76839
  30
0.0
  70
0
  0
VERTEX
  8
a
  10
10.86703
  20
16.70693
  30
0.0
  70
0
  0
VERTEX
  8
a
  10
10.87927
  20
16.72664
  30
0.0
  70
0
  0
VERTEX
  8
a
  10
10.90441
  20
16.76587
  30
0.0
  70
0
  0
VERTEX
  8
a
  10
10.95721
  20
16.84357
  30
0.0
  70
0
  0
VERTEX
  8
a
  10
11.01315
  20
16.92026
  30
0.0
  70
0
  0
VERTEX
  8
a
  10
11.07204
  20
16.99598
  30
0.0
  70
0
  0
VERTEX
  8
a
  10
11.08721
  20
17.01475
  30
0.0
  70
0
  0
VERTEX
  8
a
  10
11.31362
  20
16.94596
  30
0.0
  70
0
  0
VERTEX
  8
a
  10
11.31577
  20
16.92192
  30
0.0
  70
0
  0
VERTEX
  8
a
  10
11.32259
  20
16.82625
  30
0.0
  70
0
  0
VERTEX
  8
a
  10
11.32642
  20
16.73139
  30
0.0
  70
0
  0
VERTEX
  8
a
  10
11.32707
  20
16.63746
  30
0.0
  70
0
  0
VERTEX
  8
a
  10
11.32614
  20
16.59087
  30
0.0
  70
0
  0
VERTEX
  8
a
  10
11.32535
  20
16.56768
  30
0.0
  70
0
  0
VERTEX
  8
a
  10
11.55847
  20
16.48558
  30
0.0
  70
0
  0
VERTEX
  8
a
  10
11.57238
  20
16.50416
  30
0.0
  70
0
  0
VERTEX
  8
a
  10
11.60085
  20
16.54105
  30
0.0
  70
0
  0
VERTEX
  8
a
  10
11.66022
  20
16.61384
  30
0.0
  70
0
  0
VERTEX
  8
a
  10
11.72263
  20
16.68537
  30
0.0
  70
0
  0
VERTEX
  8
a
  10
11.7879
  20
16.75566
  30
0.0
  70
0
  0
VERTEX
  8
a
  10
11.80464
  20
16.77305
  30
0.0
  70
0
  0
VERTEX
  8
a
  10
12.02419
  20
16.68479
  30
0.0
  70
0
  0
VERTEX
  8
a
  10
12.02425
  20
16.66065
  30
0.0
  70
0
  0
VERTEX
  8
a
  10
12.0227
  20
16.56474
  30
0.0
  70
0
  0
VERTEX
  8
a
  10
12.01824
  20
16.46992
  30
0.0
  70
0
  0
VERTEX
  8
a
  10
12.01071
  20
16.37629
  30
0.0
  70
0
  0
VERTEX
  8
a
  10
12.00572
  20
16.32995
  30
0.0
  70
0
  0
VERTEX
  8
a
  10
12.00291
  20
16.30692
  30
0.0
  70
0
  0
VERTEX
  8
a
  10
12.22799
  20
16.20482
  30
0.0
  70
0
  0
VERTEX
  8
a
  10
12.24346
  20
16.22211
  30
0.0
  70
0
  0
VERTEX
  8
a
  10
12.27504
  20
16.25638
  30
0.0
  70
0
  0
VERTEX
  8
a
  10
12.34053
  20
16.32372
  30
0.0
  70
0
  0
VERTEX
  8
a
  10
12.40894
  20
16.38954
  30
0.0
  70
0
  0
VERTEX
  8
a
  10
12.48008
  20
16.45388
  30
0.0
  70
0
  0
VERTEX
  8
a
  10
12.49828
  20
16.46973
  30
0.0
  70
0
  0
VERTEX
  8
a
  10
12.7093
  20
16.36267
  30
0.0
  70
0
  0
VERTEX
  8
a
  10
12.70725
  20
16.33863
  30
0.0
  70
0
  0
VERTEX
  8
a
  10
12.69735
  20
16.24322
  30
0.0
  70
0
  0
VERTEX
  8
a
  10
12.68464
  20
16.14914
  30
0.0
  70
0
  0
VERTEX
  8
a
  10
12.66898
  20
16.05652
  30
0.0
  70
0
  0
VERTEX
  8
a
  10
12.65997
  20
16.0108
  30
0.0
  70
0
  0
VERTEX
  8
a
  10
12.65516
  20
15.9881
  30
0.0
  70
0
  0
VERTEX
  8
a
  10
12.87049
  20
15.86677
  30
0.0
  70
0
  0
VERTEX
  8
a
  10
12.88741
  20
15.88265
  30
0.0
  70
0
  0
VERTEX
  8
a
  10
12.92186
  20
15.91403
  30
0.0
  70
0
  0
VERTEX
  8
a
  10
12.99297
  20
15.97541
  30
0.0
  70
0
  0
VERTEX
  8
a
  10
13.06685
  20
16.03502
  30
0.0
  70
0
  0
VERTEX
  8
a
  10
13.14333
  20
16.09291
  30
0.0
  70
0
  0
VERTEX
  8
a
  10
13.16284
  20
16.10712
  30
0.0
  70
0
  0
VERTEX
  8
a
  10
13.36373
  20
15.98208
  30
0.0
  70
0
  0
VERTEX
  8
a
  10
13.35959
  20
15.9583
  30
0.0
  70
0
  0
VERTEX
  8
a
  10
13.34141
  20
15.86412
  30
0.0
  70
0
  0
VERTEX
  8
a
  10
13.32056
  20
15.77151
  30
0.0
  70
0
  0
VERTEX
  8
a
  10
13.29688
  20
15.6806
  30
0.0
  70
0
  0
VERTEX
  8
a
  10
13.28392
  20
15.63584
  30
0.0
  70
0
  0
VERTEX
  8
a
  10
13.27715
  20
15.61365
  30
0.0
  70
0
  0
VERTEX
  8
a
  10
13.48108
  20
15.47401
  30
0.0
  70
0
  0
VERTEX
  8
a
  10
13.49933
  20
15.48835
  30
0.0
  70
0
  0
VERTEX
  8
a
  10
13.53637
  20
15.51662
  30
0.0
  70
0
  0
VERTEX
  8
a
  10
13.61256
  20
15.57157
  30
0.0
  70
0
  0
VERTEX
  8
a
  10
13.69136
  20
15.6245
  30
0.0
  70
0
  0
VERTEX
  8
a
  10
13.7726
  20
15.67551
  30
0.0
  70
0
  0
VERTEX
  8
a
  10
13.79327
  20
15.68797
  30
0.0
  70
0
  0
VERTEX
  8
a
  10
13.9825
  20
15.54589
  30
0.0
  70
0
  0
VERTEX
  8
a
  10
13.9763
  20
15.52256
  30
0.0
  70
0
  0
VERTEX
  8
a
  10
13.94998
  20
15.43032
  30
0.0
  70
0
  0
VERTEX
  8
a
  10
13.92113
  20
15.33988
  30
0.0
  70
0
  0
VERTEX
  8
a
  10
13.88962
  20
15.25139
  30
0.0
  70
0
  0
VERTEX
  8
a
  10
13.87281
  20
15.20793
  30
0.0
  70
0
  0
VERTEX
  8
a
  10
13.86413
  20
15.18641
  30
0.0
  70
0
  0
VERTEX
  8
a
  10
14.05512
  20
15.02953
  30
0.0
  70
0
  0
VERTEX
  8
a
  10
14.07455
  20
15.04222
  30
0.0
  70
0
  0
VERTEX
  8
a
  10
14.11391
  20
15.06715
  30
0.0
  70
0
  0
VERTEX
  8
a
  10
14.1946
  20
15.11525
  30
0.0
  70
0
  0
VERTEX
  8
a
  10
14.27771
  20
15.16112
  30
0.0
  70
0
  0
VERTEX
  8
a
  10
14.36309
  20
15.20485
  30
0.0
  70
0
  0
VERTEX
  8
a
  10
14.38477
  20
15.21546
  30
0.0
  70
0
  0
VERTEX
  8
a
  10
14.56089
  20
15.05743
  30
0.0
  70
0
  0
VERTEX
  8
a
  10
14.55269
  20
15.03473
  30
0.0
  70
0
  0
VERTEX
  8
a
  10
14.51843
  20
14.94514
  30
0.0
  70
0
  0
VERTEX
  8
a
  10
14.48181
  20
14.85756
  30
0.0
  70
0
  0
VERTEX
  8
a
  10
14.4427
  20
14.77215
  30
0.0
  70
0
  0
VERTEX
  8
a
  10
14.42217
  20
14.73032
  30
0.0
  70
0
  0
VERTEX
  8
a
  10
14.41165
  20
14.70963
  30
0.0
  70
0
  0
VERTEX
  8
a
  10
14.58823
  20
14.53671
  30
0.0
  70
0
  0
VERTEX
  8
a
  10
14.60869
  20
14.54766
  30
0.0
  70
0
  0
VERTEX
  8
a
  10
14.65008
  20
14.56907
  30
0.0
  70
0
  0
VERTEX
  8
a
  10
14.73466
  20
14.60995
  30
0.0
  70
0
  0
VERTEX
  8
a
  10
14.82145
  20
14.6484
  30
0.0
  70
0
  0
VERTEX
  8
a
  10
14.91031
  20
14.68452
  30
0.0
  70
0
  0
VERTEX
  8
a
  10
14.93283
  20
14.6932
  30
0.0
  70
0
  0
VERTEX
  8
a
  10
15.09451
  20
14.52042
  30
0.0
  70
0
  0
VERTEX
  8
a
  10
15.08436
  20
14.49853
  30
0.0
  70
0
  0
VERTEX
  8
a
  10
15.04243
  20
14.41226
  30
0.0
  70
0
  0
VERTEX
  8
a
  10
14.99831
  20
14.3282
  30
0.0
  70
0
  0
VERTEX
  8
a
  10
14.95191
  20
14.24653
  30
0.0
  70
0
  0
VERTEX
  8
a
  10
14.92781
  20
14.20664
  30
0.0
  70
0
  0
VERTEX
  8
a
  10
14.91553
  20
14.18696
  30
0.0
  70
0
  0
VERTEX
  8
a
  10
15.07637
  20
13.9993
  30
0.0
  70
0
  0
VERTEX
  8
a
  10
15.0977
  20
14.00843
  30
0.0
  70
0
  0
VERTEX
  8
a
  10
15.1408
  20
14.02614
  30
0.0
  70
0
  0
VERTEX
  8
a
  10
15.22862
  20
14.0595
  30
0.0
  70
0
  0
VERTEX
  8
a
  10
15.31843
  20
14.09024
  30
0.0
  70
0
  0
VERTEX
  8
a
  10
15.4101
  20
14.11848
  30
0.0
  70
0
  0
VERTEX
  8
a
  10
15.43329
  20
14.12516
  30
0.0
  70
0
  0
VERTEX
  8
a
  10
15.5793
  20
13.93895
  30
0.0
  70
0
  0
VERTEX
  8
a
  10
15.56728
  20
13.91802
  30
0.0
  70
0
  0
VERTEX
  8
a
  10
15.51799
  20
13.83574
  30
0.0
  70
0
  0
VERTEX
  8
a
  10
15.46671
  20
13.75585
  30
0.0
  70
0
  0
VERTEX
  8
a
  10
15.41337
  20
13.67853
  30
0.0
  70
0
  0
VERTEX
  8
a
  10
15.38589
  20
13.6409
  30
0.0
  70
0
  0
VERTEX
  8
a
  10
15.37193
  20
13.62235
  30
0.0
  70
0
  0
VERTEX
  8
a
  10
15.51581
  20
13.42139
  30
0.0
  70
0
  0
VERTEX
  8
a
  10
15.53786
  20
13.42863
  30
0.0
  70
0
  0
VERTEX
  8
a
  10
15.58234
  20
13.44252
  30
0.0
  70
0
  0
VERTEX
  8
a
  10
15.67272
  20
13.46809
  30
0.0
  70
0
  0
VERTEX
  8
a
  10
15.76488
  20
13.49089
  30
0.0
  70
0
  0
VERTEX
  8
a
  10
15.85866
  20
13.51103
  30
0.0
  70
0
  0
VERTEX
  8
a
  10
15.88234
  20
13.51567
  30
0.0
  70
0
  0
VERTEX
  8
a
  10
16.01157
  20
13.31744
  30
0.0
  70
0
  0
VERTEX
  8
a
  10
15.99777
  20
13.29764
  30
0.0
  70
0
  0
VERTEX
  8
a
  10
15.94149
  20
13.21996
  30
0.0
  70
0
  0
VERTEX
  8
a
  10
15.88345
  20
13.14485
  30
0.0
  70
0
  0
VERTEX
  8
a
  10
15.82357
  20
13.07247
  30
0.0
  70
0
  0
VERTEX
  8
a
  10
15.79291
  20
13.03737
  30
0.0
  70
0
  0
VERTEX
  8
a
  10
15.77739
  20
13.02012
  30
0.0
  70
0
  0
VERTEX
  8
a
  10
15.9032
  20
12.80738
  30
0.0
  70
0
  0
VERTEX
  8
a
  10
15.9258
  20
12.81267
  30
0.0
  70
0
  0
VERTEX
  8
a
  10
15.97132
  20
12.82263
  30
0.0
  70
0
  0
VERTEX
  8
a
  10
16.0636
  20
12.84023
  30
0.0
  70
0
  0
VERTEX
  8
a
  10
16.15738
  20
12.8549
  30
0.0
  70
0
  0
VERTEX
  8
a
  10
16.25256
  20
12.8668
  30
0.0
  70
0
  0
VERTEX
  8
a
  10
16.27656
  20
12.86935
  30
0.0
  70
0
  0
VERTEX
  8
a
  10
16.38802
  20
12.66062
  30
0.0
  70
0
  0
VERTEX
  8
a
  10
16.37254
  20
12.6421
  30
0.0
  70
0
  0
VERTEX
  8
a
  10
16.30971
  20
12.56962
  30
0.0
  70
0
  0
VERTEX
  8
a
  10
16.24534
  20
12.49985
  30
0.0
  70
0
  0
VERTEX
  8
a
  10
16.17939
  20
12.43296
  30
0.0
  70
0
  0
VERTEX
  8
a
  10
16.14578
  20
12.40068
  30
0.0
  70
0
  0
VERTEX
  8
a
  10
16.12882
  20
12.38484
  30
0.0
  70
0
  0
VERTEX
  8
a
  10
16.23561
  20
12.16195
  30
0.0
  70
0
  0
VERTEX
  8
a
  10
16.25859
  20
12.16524
  30
0.0
  70
0
  0
VERTEX
  8
a
  10
16.3048
  20
12.1712
  30
0.0
  70
0
  0
VERTEX
  8
a
  10
16.39826
  20
12.18069
  30
0.0
  70
0
  0
VERTEX
  8
a
  10
16.49297
  20
12.18713
  30
0.0
  70
0
  0
VERTEX
  8
a
  10
16.58882
  20
12.19069
  30
0.0
  70
0
  0
VERTEX
  8
a
  10
16.61295
  20
12.19114
  30
0.0
  70
0
  0
VERTEX
  8
a
  10
16.70579
  20
11.97349
  30
0.0
  70
0
  0
VERTEX
  8
a
  10
16.68876
  20
11.95638
  30
0.0
  70
0
  0
VERTEX
  8
a
  10
16.61985
  20
11.88966
  30
0.0
  70
0
  0
VERTEX
  8
a
  10
16.54965
  20
11.82576
  30
0.0
  70
0
  0
VERTEX
  8
a
  10
16.47811
  20
11.76488
  30
0.0
  70
0
  0
VERTEX
  8
a
  10
16.44182
  20
11.73565
  30
0.0
  70
0
  0
VERTEX
  8
a
  10
16.42355
  20
11.72135
  30
0.0
  70
0
  0
VERTEX
  8
a
  10
16.5105
  20
11.48999
  30
0.0
  70
0
  0
VERTEX
  8
a
  10
16.53368
  20
11.49128
  30
0.0
  70
0
  0
VERTEX
  8
a
  10
16.58024
  20
11.49318
  30
0.0
  70
0
  0
VERTEX
  8
a
  10
16.67416
  20
11.49449
  30
0.0
  70
0
  0
VERTEX
  8
a
  10
16.76907
  20
11.49266
  30
0.0
  70
0
  0
VERTEX
  8
a
  10
16.86487
  20
11.48785
  30
0.0
  70
0
  0
VERTEX
  8
a
  10
16.88895
  20
11.48619
  30
0.0
  70
0
  0
VERTEX
  8
a
  10
16.96247
  20
11.26127
  30
0.0
  70
0
  0
VERTEX
  8
a
  10
16.94401
  20
11.24572
  30
0.0
  70
0
  0
VERTEX
  8
a
  10
16.86955
  20
11.18526
  30
0.0
  70
0
  0
VERTEX
  8
a
  10
16.79404
  20
11.12772
  30
0.0
  70
0
  0
VERTEX
  8
a
  10
16.71747
  20
11.0733
  30
0.0
  70
0
  0
VERTEX
  8
a
  10
16.67878
  20
11.04734
  30
0.0
  70
0
  0
VERTEX
  8
a
  10
16.65932
  20
11.03469
  30
0.0
  70
0
  0
VERTEX
  8
a
  10
16.72579
  20
10.79664
  30
0.0
  70
0
  0
VERTEX
  8
a
  10
16.74898
  20
10.7959
  30
0.0
  70
0
  0
VERTEX
  8
a
  10
16.79553
  20
10.79374
  30
0.0
  70
0
  0
VERTEX
  8
a
  10
16.88921
  20
10.78686
  30
0.0
  70
0
  0
VERTEX
  8
a
  10
16.9836
  20
10.77676
  30
0.0
  70
0
  0
VERTEX
  8
a
  10
17.07862
  20
10.76362
  30
0.0
  70
0
  0
VERTEX
  8
a
  10
17.10246
  20
10.75987
  30
0.0
  70
0
  0
VERTEX
  8
a
  10
17.15609
  20
10.5294
  30
0.0
  70
0
  0
VERTEX
  8
a
  10
17.13635
  20
10.51551
  30
0.0
  70
0
  0
VERTEX
  8
a
  10
17.0569
  20
10.46177
  30
0.0
  70
0
  0
VERTEX
  8
a
  10
16.97667
  20
10.41103
  30
0.0
  70
0
  0
VERTEX
  8
a
  10
16.89565
  20
10.3635
  30
0.0
  70
0
  0
VERTEX
  8
a
  10
16.85484
  20
10.34101
  30
0.0
  70
0
  0
VERTEX
  8
a
  10
16.83435
  20
10.3301
  30
0.0
  70
0
  0
VERTEX
  8
a
  10
16.87982
  20
10.08716
  30
0.0
  70
0
  0
VERTEX
  8
a
  10
16.90286
  20
10.0844
  30
0.0
  70
0
  0
VERTEX
  8
a
  10
16.94904
  20
10.07819
  30
0.0
  70
0
  0
VERTEX
  8
a
  10
17.04177
  20
10.06318
  30
0.0
  70
0
  0
VERTEX
  8
a
  10
17.13492
  20
10.04489
  30
0.0
  70
0
  0
VERTEX
  8
a
  10
17.22843
  20
10.02351
  30
0.0
  70
0
  0
VERTEX
  8
a
  10
17.25186
  20
10.0177
  30
0.0
  70
0
  0
VERTEX
  8
a
  10
17.2852
  20
9.78344
  30
0.0
  70
0
  0
VERTEX
  8
a
  10
17.26432
  20
9.77132
  30
0.0
  70
0
  0
VERTEX
  8
a
  10
17.18049
  20
9.72471
  30
0.0
  70
0
  0
VERTEX
  8
a
  10
17.09614
  20
9.68116
  30
0.0
  70
0
  0
VERTEX
  8
a
  10
17.01128
  20
9.64086
  30
0.0
  70
0
  0
VERTEX
  8
a
  10
16.96867
  20
9.62202
  30
0.0
  70
0
  0
VERTEX
  8
a
  10
16.94731
  20
9.61294
  30
0.0
  70
0
  0
VERTEX
  8
a
  10
16.97143
  20
9.36696
  30
0.0
  70
0
  0
VERTEX
  8
a
  10
16.99414
  20
9.3622
  30
0.0
  70
0
  0
VERTEX
  8
a
  10
17.03961
  20
9.35199
  30
0.0
  70
0
  0
VERTEX
  8
a
  10
17.13067
  20
9.32895
  30
0.0
  70
0
  0
VERTEX
  8
a
  10
17.22188
  20
9.30261
  30
0.0
  70
0
  0
VERTEX
  8
a
  10
17.31317
  20
9.27317
  30
0.0
  70
0
  0
VERTEX
  8
a
  10
17.336
  20
9.26534
  30
0.0
  70
0
  0
VERTEX
  8
a
  10
17.34879
  20
9.02906
  30
0.0
  70
0
  0
VERTEX
  8
a
  10
17.32694
  20
9.01881
  30
0.0
  70
0
  0
VERTEX
  8
a
  10
17.23937
  20
8.97968
  30
0.0
  70
0
  0
VERTEX
  8
a
  10
17.15154
  20
8.94365
  30
0.0
  70
0
  0
VERTEX
  8
a
  10
17.0635
  20
8.9109
  30
0.0
  70
0
  0
VERTEX
  8
a
  10
17.0194
  20
8.89584
  30
0.0
  70
0
  0
VERTEX
  8
a
  10
16.99733
  20
8.88866
  30
0.0
  70
0
  0
SEQEND
  0
CIRCLE
  8
a
  10
8.67795
  20
8.67795
  30
0.0
  40
0.125
  0
POLYLINE
  8
a
  66
1
  10
0.0
  20
0.0
  70
1
  0
VERTEX
  8
a
  10
17.36184
  20
8.52602
  30
0.0
  70
0
  0
VERTEX
  8
a
  10
17.35173
  20
8.54206
  30
0.0
  70
0
  0
VERTEX
  8
a
  10
17.34243
  20
8.54763
  30
0.0
  70
0
  0
VERTEX
  8
a
  10
17.33328
  20
8.55128
  30
0.0
  70
0
  0
VERTEX
  8
a
  10
17.31517
  20
8.55569
  30
0.0
  70
0
  0
VERTEX
  8
a
  10
17.29721
  20
8.55783
  30
0.0
  70
0
  0
VERTEX
  8
a
  10
17.27929
  20
8.55936
  30
0.0
  70
0
  0
VERTEX
  8
a
  10
17.24332
  20
8.56514
  30
0.0
  70
0
  0
VERTEX
  8
a
  10
17.20724
  20
8.57366
  30
0.0
  70
0
  0
VERTEX
  8
a
  10
17.1711
  20
8.58445
  30
0.0
  70
0
  0
VERTEX
  8
a
  10
17.13496
  20
8.59727
  30
0.0
  70
0
  0
VERTEX
  8
a
  10
17.09886
  20
8.61197
  30
0.0
  70
0
  0
VERTEX
  8
a
  10
17.06283
  20
8.62844
  30
0.0
  70
0
  0
VERTEX
  8
a
  10
17.02691
  20
8.6466
  30
0.0
  70
0
  0
VERTEX
  8
a
  10
17.00006
  20
8.66129
  30
0.0
  70
0
  0
VERTEX
  8
a
  10
17.00953
  20
8.88725
  30
0.0
  70
0
  0
VERTEX
  8
a
  10
17.03751
  20
8.89964
  30
0.0
  70
0
  0
VERTEX
  8
a
  10
17.07483
  20
8.91473
  30
0.0
  70
0
  0
VERTEX
  8
a
  10
17.11211
  20
8.92813
  30
0.0
  70
0
  0
VERTEX
  8
a
  10
17.14932
  20
8.93976
  30
0.0
  70
0
  0
VERTEX
  8
a
  10
17.1864
  20
8.94951
  30
0.0
  70
0
  0
VERTEX
  8
a
  10
17.22331
  20
8.95724
  30
0.0
  70
0
  0
VERTEX
  8
a
  10
17.25998
  20
8.96271
  30
0.0
  70
0
  0
VERTEX
  8
a
  10
17.29631
  20
8.96546
  30
0.0
  70
0
  0
VERTEX
  8
a
  10
17.3143
  20
8.96549
  30
0.0
  70
0
  0
VERTEX
  8
a
  10
17.33237
  20
8.96611
  30
0.0
  70
0
  0
VERTEX
  8
a
  10
17.35078
  20
8.969
  30
0.0
  70
0
  0
VERTEX
  8
a
  10
17.36021
  20
8.97187
  30
0.0
  70
0
  0
VERTEX
  8
a
  10
17.36994
  20
8.97664
  30
0.0
  70
0
  0
VERTEX
  8
a
  10
17.38136
  20
8.99177
  30
0.0
  70
0
  0
VERTEX
  8
a
  10
17.42694
  20
9.19909
  30
0.0
  70
0
  0
VERTEX
  8
a
  10
17.42292
  20
9.21761
  30
0.0
  70
0
  0
VERTEX
  8
a
  10
17.41609
  20
9.22602
  30
0.0
  70
0
  0
VERTEX
  8
a
  10
17.40874
  20
9.23258
  30
0.0
  70
0
  0
VERTEX
  8
a
  10
17.39323
  20
9.24293
  30
0.0
  70
0
  0
VERTEX
  8
a
  10
17.37709
  20
9.25107
  30
0.0
  70
0
  0
VERTEX
  8
a
  10
17.36078
  20
9.25864
  30
0.0
  70
0
  0
VERTEX
  8
a
  10
17.32895
  20
9.27638
  30
0.0
  70
0
  0
VERTEX
  8
a
  10
17.29795
  20
9.29672
  30
0.0
  70
0
  0
VERTEX
  8
a
  10
17.26769
  20
9.31922
  30
0.0
  70
0
  0
VERTEX
  8
a
  10
17.23811
  20
9.34363
  30
0.0
  70
0
  0
VERTEX
  8
a
  10
17.20922
  20
9.36979
  30
0.0
  70
0
  0
VERTEX
  8
a
  10
17.18099
  20
9.39759
  30
0.0
  70
0
  0
VERTEX
  8
a
  10
17.15345
  20
9.42694
  30
0.0
  70
0
  0
VERTEX
  8
a
  10
17.13324
  20
9.44993
  30
0.0
  70
0
  0
VERTEX
  8
a
  10
17.21943
  20
9.65902
  30
0.0
  70
0
  0
VERTEX
  8
a
  10
17.24996
  20
9.6611
  30
0.0
  70
0
  0
VERTEX
  8
a
  10
17.29019
  20
9.66252
  30
0.0
  70
0
  0
VERTEX
  8
a
  10
17.3298
  20
9.66235
  30
0.0
  70
0
  0
VERTEX
  8
a
  10
17.36874
  20
9.66055
  30
0.0
  70
0
  0
VERTEX
  8
a
  10
17.40692
  20
9.65704
  30
0.0
  70
0
  0
VERTEX
  8
a
  10
17.44425
  20
9.65167
  30
0.0
  70
0
  0
VERTEX
  8
a
  10
17.48058
  20
9.64427
  30
0.0
  70
0
  0
VERTEX
  8
a
  10
17.51566
  20
9.63443
  30
0.0
  70
0
  0
VERTEX
  8
a
  10
17.53257
  20
9.62831
  30
0.0
  70
0
  0
VERTEX
  8
a
  10
17.54977
  20
9.62271
  30
0.0
  70
0
  0
VERTEX
  8
a
  10
17.56806
  20
9.61912
  30
0.0
  70
0
  0
VERTEX
  8
a
  10
17.5779
  20
9.6186
  30
0.0
  70
0
  0
VERTEX
  8
a
  10
17.58867
  20
9.61975
  30
0.0
  70
0
  0
VERTEX
  8
a
  10
17.60457
  20
9.63007
  30
0.0
  70
0
  0
VERTEX
  8
a
  10
17.71831
  20
9.80929
  30
0.0
  70
0
  0
VERTEX
  8
a
  10
17.72088
  20
9.82807
  30
0.0
  70
0
  0
VERTEX
  8
a
  10
17.71734
  20
9.83831
  30
0.0
  70
0
  0
VERTEX
  8
a
  10
17.71267
  20
9.84699
  30
0.0
  70
0
  0
VERTEX
  8
a
  10
17.70164
  20
9.86202
  30
0.0
  70
0
  0
VERTEX
  8
a
  10
17.68925
  20
9.87519
  30
0.0
  70
0
  0
VERTEX
  8
a
  10
17.67651
  20
9.88789
  30
0.0
  70
0
  0
VERTEX
  8
a
  10
17.65267
  20
9.91544
  30
0.0
  70
0
  0
VERTEX
  8
a
  10
17.6305
  20
9.94516
  30
0.0
  70
0
  0
VERTEX
  8
a
  10
17.60976
  20
9.97665
  30
0.0
  70
0
  0
VERTEX
  8
a
  10
17.59032
  20
10.0097
  30
0.0
  70
0
  0
VERTEX
  8
a
  10
17.57211
  20
10.04417
  30
0.0
  70
0
  0
VERTEX
  8
a
  10
17.55509
  20
10.07994
  30
0.0
  70
0
  0
VERTEX
  8
a
  10
17.53925
  20
10.11694
  30
0.0
  70
0
  0
VERTEX
  8
a
  10
17.52813
  20
10.14546
  30
0.0
  70
0
  0
VERTEX
  8
a
  10
17.68063
  20
10.31246
  30
0.0
  70
0
  0
VERTEX
  8
a
  10
17.71003
  20
10.30397
  30
0.0
  70
0
  0
VERTEX
  8
a
  10
17.74831
  20
10.29155
  30
0.0
  70
0
  0
VERTEX
  8
a
  10
17.78548
  20
10.27784
  30
0.0
  70
0
  0
VERTEX
  8
a
  10
17.82146
  20
10.26283
  30
0.0
  70
0
  0
VERTEX
  8
a
  10
17.85614
  20
10.24647
  30
0.0
  70
0
  0
VERTEX
  8
a
  10
17.88938
  20
10.22866
  30
0.0
  70
0
  0
VERTEX
  8
a
  10
17.92098
  20
10.20928
  30
0.0
  70
0
  0
VERTEX
  8
a
  10
17.95058
  20
10.18803
  30
0.0
  70
0
  0
VERTEX
  8
a
  10
17.96438
  20
10.1765
  30
0.0
  70
0
  0
VERTEX
  8
a
  10
17.97862
  20
10.16536
  30
0.0
  70
0
  0
VERTEX
  8
a
  10
17.99458
  20
10.15573
  30
0.0
  70
0
  0
VERTEX
  8
a
  10
18.00365
  20
10.15187
  30
0.0
  70
0
  0
VERTEX
  8
a
  10
18.01417
  20
10.14927
  30
0.0
  70
0
  0
VERTEX
  8
a
  10
18.03264
  20
10.15353
  30
0.0
  70
0
  0
VERTEX
  8
a
  10
18.20082
  20
10.28304
  30
0.0
  70
0
  0
VERTEX
  8
a
  10
18.20965
  20
10.29981
  30
0.0
  70
0
  0
VERTEX
  8
a
  10
18.20983
  20
10.31065
  30
0.0
  70
0
  0
VERTEX
  8
a
  10
18.20841
  20
10.3204
  30
0.0
  70
0
  0
VERTEX
  8
a
  10
18.20318
  20
10.33829
  30
0.0
  70
0
  0
VERTEX
  8
a
  10
18.19605
  20
10.35491
  30
0.0
  70
0
  0
VERTEX
  8
a
  10
18.18842
  20
10.37119
  30
0.0
  70
0
  0
VERTEX
  8
a
  10
18.17544
  20
10.40524
  30
0.0
  70
0
  0
VERTEX
  8
a
  10
18.16477
  20
10.44075
  30
0.0
  70
0
  0
VERTEX
  8
a
  10
18.15605
  20
10.47743
  30
0.0
  70
0
  0
VERTEX
  8
a
  10
18.14909
  20
10.51514
  30
0.0
  70
0
  0
VERTEX
  8
a
  10
18.14377
  20
10.55376
  30
0.0
  70
0
  0
VERTEX
  8
a
  10
18.14001
  20
10.5932
  30
0.0
  70
0
  0
VERTEX
  8
a
  10
18.13778
  20
10.63338
  30
0.0
  70
0
  0
VERTEX
  8
a
  10
18.13708
  20
10.66398
  30
0.0
  70
0
  0
VERTEX
  8
a
  10
18.3375
  20
10.76876
  30
0.0
  70
0
  0
VERTEX
  8
a
  10
18.36223
  20
10.75072
  30
0.0
  70
0
  0
VERTEX
  8
a
  10
18.39395
  20
10.72595
  30
0.0
  70
0
  0
VERTEX
  8
a
  10
18.42419
  20
10.70036
  30
0.0
  70
0
  0
VERTEX
  8
a
  10
18.45287
  20
10.67395
  30
0.0
  70
0
  0
VERTEX
  8
a
  10
18.47985
  20
10.64671
  30
0.0
  70
0
  0
VERTEX
  8
a
  10
18.505
  20
10.61861
  30
0.0
  70
0
  0
VERTEX
  8
a
  10
18.52807
  20
10.58959
  30
0.0
  70
0
  0
VERTEX
  8
a
  10
18.54862
  20
10.5595
  30
0.0
  70
0
  0
VERTEX
  8
a
  10
18.55764
  20
10.54394
  30
0.0
  70
0
  0
VERTEX
  8
a
  10
18.56721
  20
10.5286
  30
0.0
  70
0
  0
VERTEX
  8
a
  10
18.57892
  20
10.5141
  30
0.0
  70
0
  0
VERTEX
  8
a
  10
18.58612
  20
10.50737
  30
0.0
  70
0
  0
VERTEX
  8
a
  10
18.59512
  20
10.50133
  30
0.0
  70
0
  0
VERTEX
  8
a
  10
18.61393
  20
10.49901
  30
0.0
  70
0
  0
VERTEX
  8
a
  10
18.81626
  20
10.56319
  30
0.0
  70
0
  0
VERTEX
  8
a
  10
18.8303
  20
10.57593
  30
0.0
  70
0
  0
VERTEX
  8
a
  10
18.83417
  20
10.58605
  30
0.0
  70
0
  0
VERTEX
  8
a
  10
18.83617
  20
10.5957
  30
0.0
  70
0
  0
VERTEX
  8
a
  10
18.83738
  20
10.6143
  30
0.0
  70
0
  0
VERTEX
  8
a
  10
18.83636
  20
10.63236
  30
0.0
  70
0
  0
VERTEX
  8
a
  10
18.83476
  20
10.65027
  30
0.0
  70
0
  0
VERTEX
  8
a
  10
18.8342
  20
10.6867
  30
0.0
  70
0
  0
VERTEX
  8
a
  10
18.83633
  20
10.72371
  30
0.0
  70
0
  0
VERTEX
  8
a
  10
18.84068
  20
10.76117
  30
0.0
  70
0
  0
VERTEX
  8
a
  10
18.84703
  20
10.79899
  30
0.0
  70
0
  0
VERTEX
  8
a
  10
18.85524
  20
10.8371
  30
0.0
  70
0
  0
VERTEX
  8
a
  10
18.8652
  20
10.87544
  30
0.0
  70
0
  0
VERTEX
  8
a
  10
18.87684
  20
10.91397
  30
0.0
  70
0
  0
VERTEX
  8
a
  10
18.88665
  20
10.94296
  30
0.0
  70
0
  0
VERTEX
  8
a
  10
19.11082
  20
10.97287
  30
0.0
  70
0
  0
VERTEX
  8
a
  10
19.12789
  20
10.94746
  30
0.0
  70
0
  0
VERTEX
  8
a
  10
19.14923
  20
10.91334
  30
0.0
  70
0
  0
VERTEX
  8
a
  10
19.16889
  20
10.87895
  30
0.0
  70
0
  0
VERTEX
  8
a
  10
19.18681
  20
10.84433
  30
0.0
  70
0
  0
VERTEX
  8
a
  10
19.20285
  20
10.8095
  30
0.0
  70
0
  0
VERTEX
  8
a
  10
19.21687
  20
10.77449
  30
0.0
  70
0
  0
VERTEX
  8
a
  10
19.22862
  20
10.73933
  30
0.0
  70
0
  0
VERTEX
  8
a
  10
19.23764
  20
10.70402
  30
0.0
  70
0
  0
VERTEX
  8
a
  10
19.24079
  20
10.68632
  30
0.0
  70
0
  0
VERTEX
  8
a
  10
19.24454
  20
10.66863
  30
0.0
  70
0
  0
VERTEX
  8
a
  10
19.25058
  20
10.651
  30
0.0
  70
0
  0
VERTEX
  8
a
  10
19.25505
  20
10.64221
  30
0.0
  70
0
  0
VERTEX
  8
a
  10
19.26144
  20
10.63346
  30
0.0
  70
0
  0
VERTEX
  8
a
  10
19.27832
  20
10.62484
  30
0.0
  70
0
  0
VERTEX
  8
a
  10
19.4904
  20
10.61596
  30
0.0
  70
0
  0
VERTEX
  8
a
  10
19.50795
  20
10.62312
  30
0.0
  70
0
  0
VERTEX
  8
a
  10
19.51505
  20
10.63131
  30
0.0
  70
0
  0
VERTEX
  8
a
  10
19.52023
  20
10.6397
  30
0.0
  70
0
  0
VERTEX
  8
a
  10
19.52773
  20
10.65676
  30
0.0
  70
0
  0
VERTEX
  8
a
  10
19.53294
  20
10.67408
  30
0.0
  70
0
  0
VERTEX
  8
a
  10
19.53757
  20
10.69145
  30
0.0
  70
0
  0
VERTEX
  8
a
  10
19.54951
  20
10.72588
  30
0.0
  70
0
  0
VERTEX
  8
a
  10
19.56416
  20
10.75994
  30
0.0
  70
0
  0
VERTEX
  8
a
  10
19.58106
  20
10.79365
  30
0.0
  70
0
  0
VERTEX
  8
a
  10
19.59996
  20
10.82701
  30
0.0
  70
0
  0
VERTEX
  8
a
  10
19.62071
  20
10.86001
  30
0.0
  70
0
  0
VERTEX
  8
a
  10
19.64318
  20
10.89263
  30
0.0
  70
0
  0
VERTEX
  8
a
  10
19.66731
  20
10.92486
  30
0.0
  70
0
  0
VERTEX
  8
a
  10
19.68644
  20
10.94875
  30
0.0
  70
0
  0
VERTEX
  8
a
  10
19.90732
  20
10.90018
  30
0.0
  70
0
  0
VERTEX
  8
a
  10
19.91466
  20
10.87047
  30
0.0
  70
0
  0
VERTEX
  8
a
  10
19.92305
  20
10.8311
  30
0.0
  70
0
  0
VERTEX
  8
a
  10
19.92976
  20
10.79206
  30
0.0
  70
0
  0
VERTEX
  8
a
  10
19.93475
  20
10.7534
  30
0.0
  70
0
  0
VERTEX
  8
a
  10
19.93792
  20
10.71519
  30
0.0
  70
0
  0
VERTEX
  8
a
  10
19.93912
  20
10.67749
  30
0.0
  70
0
  0
VERTEX
  8
a
  10
19.93814
  20
10.64043
  30
0.0
  70
0
  0
VERTEX
  8
a
  10
19.93454
  20
10.60417
  30
0.0
  70
0
  0
VERTEX
  8
a
  10
19.93144
  20
10.58646
  30
0.0
  70
0
  0
VERTEX
  8
a
  10
19.92892
  20
10.56855
  30
0.0
  70
0
  0
VERTEX
  8
a
  10
19.92856
  20
10.54992
  30
0.0
  70
0
  0
VERTEX
  8
a
  10
19.92975
  20
10.54013
  30
0.0
  70
0
  0
VERTEX
  8
a
  10
19.93276
  20
10.52972
  30
0.0
  70
0
  0
VERTEX
  8
a
  10
19.94568
  20
10.51586
  30
0.0
  70
0
  0
VERTEX
  8
a
  10
20.14194
  20
10.43497
  30
0.0
  70
0
  0
VERTEX
  8
a
  10
20.16088
  20
10.4357
  30
0.0
  70
0
  0
VERTEX
  8
a
  10
20.17035
  20
10.44097
  30
0.0
  70
0
  0
VERTEX
  8
a
  10
20.17808
  20
10.44707
  30
0.0
  70
0
  0
VERTEX
  8
a
  10
20.19096
  20
10.46055
  30
0.0
  70
0
  0
VERTEX
  8
a
  10
20.20179
  20
10.47503
  30
0.0
  70
0
  0
VERTEX
  8
a
  10
20.21208
  20
10.48978
  30
0.0
  70
0
  0
VERTEX
  8
a
  10
20.23507
  20
10.51805
  30
0.0
  70
0
  0
VERTEX
  8
a
  10
20.26049
  20
10.54504
  30
0.0
  70
0
  0
VERTEX
  8
a
  10
20.2879
  20
10.57093
  30
0.0
  70
0
  0
VERTEX
  8
a
  10
20.31707
  20
10.59582
  30
0.0
  70
0
  0
VERTEX
  8
a
  10
20.34785
  20
10.61974
  30
0.0
  70
0
  0
VERTEX
  8
a
  10
20.38013
  20
10.64271
  30
0.0
  70
0
  0
VERTEX
  8
a
  10
20.41382
  20
10.66473
  30
0.0
  70
0
  0
VERTEX
  8
a
  10
20.43997
  20
10.68064
  30
0.0
  70
0
  0
VERTEX
  8
a
  10
20.63092
  20
10.55946
  30
0.0
  70
0
  0
VERTEX
  8
a
  10
20.62766
  20
10.52903
  30
0.0
  70
0
  0
VERTEX
  8
a
  10
20.62207
  20
10.48917
  30
0.0
  70
0
  0
VERTEX
  8
a
  10
20.61503
  20
10.45018
  30
0.0
  70
0
  0
VERTEX
  8
a
  10
20.6065
  20
10.41215
  30
0.0
  70
0
  0
VERTEX
  8
a
  10
20.5964
  20
10.37515
  30
0.0
  70
0
  0
VERTEX
  8
a
  10
20.58464
  20
10.33932
  30
0.0
  70
0
  0
VERTEX
  8
a
  10
20.57104
  20
10.30483
  30
0.0
  70
0
  0
VERTEX
  8
a
  10
20.55526
  20
10.27199
  30
0.0
  70
0
  0
VERTEX
  8
a
  10
20.54629
  20
10.2564
  30
0.0
  70
0
  0
VERTEX
  8
a
  10
20.53779
  20
10.24044
  30
0.0
  70
0
  0
VERTEX
  8
a
  10
20.53109
  20
10.22305
  30
0.0
  70
0
  0
VERTEX
  8
a
  10
20.52886
  20
10.21345
  30
0.0
  70
0
  0
VERTEX
  8
a
  10
20.52812
  20
10.20264
  30
0.0
  70
0
  0
VERTEX
  8
a
  10
20.53552
  20
10.18519
  30
0.0
  70
0
  0
VERTEX
  8
a
  10
20.69227
  20
10.04206
  30
0.0
  70
0
  0
VERTEX
  8
a
  10
20.71032
  20
10.03627
  30
0.0
  70
0
  0
VERTEX
  8
a
  10
20.72102
  20
10.03798
  30
0.0
  70
0
  0
VERTEX
  8
a
  10
20.73038
  20
10.04107
  30
0.0
  70
0
  0
VERTEX
  8
a
  10
20.74709
  20
10.04932
  30
0.0
  70
0
  0
VERTEX
  8
a
  10
20.76222
  20
10.05923
  30
0.0
  70
0
  0
VERTEX
  8
a
  10
20.77693
  20
10.06957
  30
0.0
  70
0
  0
VERTEX
  8
a
  10
20.80821
  20
10.08827
  30
0.0
  70
0
  0
VERTEX
  8
a
  10
20.84132
  20
10.10494
  30
0.0
  70
0
  0
VERTEX
  8
a
  10
20.87594
  20
10.1199
  30
0.0
  70
0
  0
VERTEX
  8
a
  10
20.91186
  20
10.13331
  30
0.0
  70
0
  0
VERTEX
  8
a
  10
20.94897
  20
10.14525
  30
0.0
  70
0
  0
VERTEX
  8
a
  10
20.98716
  20
10.1558
  30
0.0
  70
0
  0
VERTEX
  8
a
  10
21.02635
  20
10.16498
  30
0.0
  70
0
  0
VERTEX
  8
a
  10
21.05636
  20
10.17098
  30
0.0
  70
0
  0
VERTEX
  8
a
  10
21.19435
  20
9.9918
  30
0.0
  70
0
  0
VERTEX
  8
a
  10
21.18088
  20
9.96432
  30
0.0
  70
0
  0
VERTEX
  8
a
  10
21.16199
  20
9.92877
  30
0.0
  70
0
  0
VERTEX
  8
a
  10
21.14204
  20
9.89454
  30
0.0
  70
0
  0
VERTEX
  8
a
  10
21.12101
  20
9.86172
  30
0.0
  70
0
  0
VERTEX
  8
a
  10
21.09887
  20
9.83041
  30
0.0
  70
0
  0
VERTEX
  8
a
  10
21.07557
  20
9.80077
  30
0.0
  70
0
  0
VERTEX
  8
a
  10
21.05099
  20
9.77301
  30
0.0
  70
0
  0
VERTEX
  8
a
  10
21.02493
  20
9.74755
  30
0.0
  70
0
  0
VERTEX
  8
a
  10
21.01117
  20
9.73596
  30
0.0
  70
0
  0
VERTEX
  8
a
  10
20.99773
  20
9.72387
  30
0.0
  70
0
  0
VERTEX
  8
a
  10
20.98548
  20
9.70982
  30
0.0
  70
0
  0
VERTEX
  8
a
  10
20.9801
  20
9.70156
  30
0.0
  70
0
  0
VERTEX
  8
a
  10
20.97571
  20
9.69165
  30
0.0
  70
0
  0
VERTEX
  8
a
  10
20.9767
  20
9.67273
  30
0.0
  70
0
  0
VERTEX
  8
a
  10
21.07504
  20
9.48461
  30
0.0
  70
0
  0
VERTEX
  8
a
  10
21.09002
  20
9.473
  30
0.0
  70
0
  0
VERTEX
  8
a
  10
21.10066
  20
9.47095
  30
0.0
  70
0
  0
VERTEX
  8
a
  10
21.11051
  20
9.47065
  30
0.0
  70
0
  0
VERTEX
  8
a
  10
21.12904
  20
9.47269
  30
0.0
  70
0
  0
VERTEX
  8
a
  10
21.14664
  20
9.47683
  30
0.0
  70
0
  0
VERTEX
  8
a
  10
21.164
  20
9.48152
  30
0.0
  70
0
  0
VERTEX
  8
a
  10
21.19979
  20
9.48839
  30
0.0
  70
0
  0
VERTEX
  8
a
  10
21.23661
  20
9.49273
  30
0.0
  70
0
  0
VERTEX
  8
a
  10
21.27425
  20
9.49495
  30
0.0
  70
0
  0
VERTEX
  8
a
  10
21.3126
  20
9.49526
  30
0.0
  70
0
  0
VERTEX
  8
a
  10
21.35155
  20
9.49379
  30
0.0
  70
0
  0
VERTEX
  8
a
  10
21.39104
  20
9.49064
  30
0.0
  70
0
  0
VERTEX
  8
a
  10
21.43101
  20
9.48586
  30
0.0
  70
0
  0
VERTEX
  8
a
  10
21.46126
  20
9.48124
  30
0.0
  70
0
  0
VERTEX
  8
a
  10
21.52964
  20
9.26567
  30
0.0
  70
0
  0
VERTEX
  8
a
  10
21.50759
  20
9.24445
  30
0.0
  70
0
  0
VERTEX
  8
a
  10
21.47768
  20
9.21751
  30
0.0
  70
0
  0
VERTEX
  8
a
  10
21.44723
  20
9.19217
  30
0.0
  70
0
  0
VERTEX
  8
a
  10
21.41625
  20
9.16852
  30
0.0
  70
0
  0
VERTEX
  8
a
  10
21.38473
  20
9.14667
  30
0.0
  70
0
  0
VERTEX
  8
a
  10
21.35269
  20
9.12678
  30
0.0
  70
0
  0
VERTEX
  8
a
  10
21.3201
  20
9.1091
  30
0.0
  70
0
  0
VERTEX
  8
a
  10
21.2869
  20
9.09409
  30
0.0
  70
0
  0
VERTEX
  8
a
  10
21.27002
  20
9.08791
  30
0.0
  70
0
  0
VERTEX
  8
a
  10
21.25325
  20
9.08115
  30
0.0
  70
0
  0
VERTEX
  8
a
  10
21.23693
  20
9.07213
  30
0.0
  70
0
  0
VERTEX
  8
a
  10
21.22905
  20
9.06621
  30
0.0
  70
0
  0
VERTEX
  8
a
  10
21.22154
  20
9.0584
  30
0.0
  70
0
  0
VERTEX
  8
a
  10
21.21599
  20
9.04028
  30
0.0
  70
0
  0
VERTEX
  8
a
  10
21.24406
  20
8.82987
  30
0.0
  70
0
  0
VERTEX
  8
a
  10
21.25417
  20
8.81384
  30
0.0
  70
0
  0
VERTEX
  8
a
  10
21.26347
  20
8.80827
  30
0.0
  70
0
  0
VERTEX
  8
a
  10
21.27262
  20
8.80462
  30
0.0
  70
0
  0
VERTEX
  8
a
  10
21.29073
  20
8.8002
  30
0.0
  70
0
  0
VERTEX
  8
a
  10
21.30869
  20
8.79807
  30
0.0
  70
0
  0
VERTEX
  8
a
  10
21.32661
  20
8.79654
  30
0.0
  70
0
  0
VERTEX
  8
a
  10
21.36258
  20
8.79076
  30
0.0
  70
0
  0
VERTEX
  8
a
  10
21.39866
  20
8.78224
  30
0.0
  70
0
  0
VERTEX
  8
a
  10
21.4348
  20
8.77145
  30
0.0
  70
0
  0
VERTEX
  8
a
  10
21.47094
  20
8.75863
  30
0.0
  70
0
  0
VERTEX
  8
a
  10
21.50704
  20
8.74393
  30
0.0
  70
0
  0
VERTEX
  8
a
  10
21.54307
  20
8.72746
  30
0.0
  70
0
  0
VERTEX
  8
a
  10
21.57899
  20
8.7093
  30
0.0
  70
0
  0
VERTEX
  8
a
  10
21.60584
  20
8.69461
  30
0.0
  70
0
  0
VERTEX
  8
a
  10
21.59637
  20
8.46865
  30
0.0
  70
0
  0
VERTEX
  8
a
  10
21.56838
  20
8.45625
  30
0.0
  70
0
  0
VERTEX
  8
a
  10
21.53107
  20
8.44116
  30
0.0
  70
0
  0
VERTEX
  8
a
  10
21.49379
  20
8.42777
  30
0.0
  70
0
  0
VERTEX
  8
a
  10
21.45658
  20
8.41614
  30
0.0
  70
0
  0
VERTEX
  8
a
  10
21.4195
  20
8.40639
  30
0.0
  70
0
  0
VERTEX
  8
a
  10
21.38259
  20
8.39866
  30
0.0
  70
0
  0
VERTEX
  8
a
  10
21.34592
  20
8.39319
  30
0.0
  70
0
  0
VERTEX
  8
a
  10
21.30959
  20
8.39044
  30
0.0
  70
0
  0
VERTEX
  8
a
  10
21.2916
  20
8.39041
  30
0.0
  70
0
  0
VERTEX
  8
a
  10
21.27353
  20
8.38979
  30
0.0
  70
0
  0
VERTEX
  8
a
  10
21.25512
  20
8.3869
  30
0.0
  70
0
  0
VERTEX
  8
a
  10
21.24569
  20
8.38403
  30
0.0
  70
0
  0
VERTEX
  8
a
  10
21.23596
  20
8.37926
  30
0.0
  70
0
  0
VERTEX
  8
a
  10
21.22454
  20
8.36413
  30
0.0
  70
0
  0
VERTEX
  8
a
  10
21.17896
  20
8.15681
  30
0.0
  70
0
  0
VERTEX
  8
a
  10
21.18298
  20
8.13829
  30
0.0
  70
0
  0
VERTEX
  8
a
  10
21.18981
  20
8.12988
  30
0.0
  70
0
  0
VERTEX
  8
a
  10
21.19716
  20
8.12332
  30
0.0
  70
0
  0
VERTEX
  8
a
  10
21.21267
  20
8.11297
  30
0.0
  70
0
  0
VERTEX
  8
a
  10
21.22881
  20
8.10482
  30
0.0
  70
0
  0
VERTEX
  8
a
  10
21.24512
  20
8.09726
  30
0.0
  70
0
  0
VERTEX
  8
a
  10
21.27695
  20
8.07952
  30
0.0
  70
0
  0
VERTEX
  8
a
  10
21.30795
  20
8.05918
  30
0.0
  70
0
  0
VERTEX
  8
a
  10
21.33821
  20
8.03668
  30
0.0
  70
0
  0
VERTEX
  8
a
  10
21.36778
  20
8.01227
  30
0.0
  70
0
  0
VERTEX
  8
a
  10
21.39668
  20
7.98611
  30
0.0
  70
0
  0
VERTEX
  8
a
  10
21.42491
  20
7.95831
  30
0.0
  70
0
  0
VERTEX
  8
a
  10
21.45245
  20
7.92896
  30
0.0
  70
0
  0
VERTEX
  8
a
  10
21.47266
  20
7.90597
  30
0.0
  70
0
  0
VERTEX
  8
a
  10
21.38647
  20
7.69687
  30
0.0
  70
0
  0
VERTEX
  8
a
  10
21.35594
  20
7.6948
  30
0.0
  70
0
  0
VERTEX
  8
a
  10
21.31571
  20
7.69338
  30
0.0
  70
0
  0
VERTEX
  8
a
  10
21.2761
  20
7.69355
  30
0.0
  70
0
  0
VERTEX
  8
a
  10
21.23716
  20
7.69535
  30
0.0
  70
0
  0
VERTEX
  8
a
  10
21.19897
  20
7.69886
  30
0.0
  70
0
  0
VERTEX
  8
a
  10
21.16165
  20
7.70422
  30
0.0
  70
0
  0
VERTEX
  8
a
  10
21.12532
  20
7.71163
  30
0.0
  70
0
  0
VERTEX
  8
a
  10
21.09024
  20
7.72147
  30
0.0
  70
0
  0
VERTEX
  8
a
  10
21.07333
  20
7.72759
  30
0.0
  70
0
  0
VERTEX
  8
a
  10
21.05613
  20
7.73319
  30
0.0
  70
0
  0
VERTEX
  8
a
  10
21.03784
  20
7.73677
  30
0.0
  70
0
  0
VERTEX
  8
a
  10
21.028
  20
7.7373
  30
0.0
  70
0
  0
VERTEX
  8
a
  10
21.01723
  20
7.73615
  30
0.0
  70
0
  0
VERTEX
  8
a
  10
21.00132
  20
7.72583
  30
0.0
  70
0
  0
VERTEX
  8
a
  10
20.88758
  20
7.54661
  30
0.0
  70
0
  0
VERTEX
  8
a
  10
20.88502
  20
7.52783
  30
0.0
  70
0
  0
VERTEX
  8
a
  10
20.88856
  20
7.51759
  30
0.0
  70
0
  0
VERTEX
  8
a
  10
20.89323
  20
7.5089
  30
0.0
  70
0
  0
VERTEX
  8
a
  10
20.90426
  20
7.49388
  30
0.0
  70
0
  0
VERTEX
  8
a
  10
20.91665
  20
7.4807
  30
0.0
  70
0
  0
VERTEX
  8
a
  10
20.92939
  20
7.46801
  30
0.0
  70
0
  0
VERTEX
  8
a
  10
20.95323
  20
7.44046
  30
0.0
  70
0
  0
VERTEX
  8
a
  10
20.9754
  20
7.41074
  30
0.0
  70
0
  0
VERTEX
  8
a
  10
20.99614
  20
7.37925
  30
0.0
  70
0
  0
VERTEX
  8
a
  10
21.01558
  20
7.3462
  30
0.0
  70
0
  0
VERTEX
  8
a
  10
21.03379
  20
7.31173
  30
0.0
  70
0
  0
VERTEX
  8
a
  10
21.05081
  20
7.27595
  30
0.0
  70
0
  0
VERTEX
  8
a
  10
21.06665
  20
7.23895
  30
0.0
  70
0
  0
VERTEX
  8
a
  10
21.07777
  20
7.21044
  30
0.0
  70
0
  0
VERTEX
  8
a
  10
20.92527
  20
7.04343
  30
0.0
  70
0
  0
VERTEX
  8
a
  10
20.89587
  20
7.05193
  30
0.0
  70
0
  0
VERTEX
  8
a
  10
20.85759
  20
7.06435
  30
0.0
  70
0
  0
VERTEX
  8
a
  10
20.82042
  20
7.07806
  30
0.0
  70
0
  0
VERTEX
  8
a
  10
20.78444
  20
7.09306
  30
0.0
  70
0
  0
VERTEX
  8
a
  10
20.74976
  20
7.10943
  30
0.0
  70
0
  0
VERTEX
  8
a
  10
20.71652
  20
7.12724
  30
0.0
  70
0
  0
VERTEX
  8
a
  10
20.68491
  20
7.14662
  30
0.0
  70
0
  0
VERTEX
  8
a
  10
20.65531
  20
7.16787
  30
0.0
  70
0
  0
VERTEX
  8
a
  10
20.64152
  20
7.1794
  30
0.0
  70
0
  0
VERTEX
  8
a
  10
20.62728
  20
7.19054
  30
0.0
  70
0
  0
VERTEX
  8
a
  10
20.61131
  20
7.20017
  30
0.0
  70
0
  0
VERTEX
  8
a
  10
20.60225
  20
7.20403
  30
0.0
  70
0
  0
VERTEX
  8
a
  10
20.59173
  20
7.20663
  30
0.0
  70
0
  0
VERTEX
  8
a
  10
20.57326
  20
7.20237
  30
0.0
  70
0
  0
VERTEX
  8
a
  10
20.40508
  20
7.07286
  30
0.0
  70
0
  0
VERTEX
  8
a
  10
20.39624
  20
7.05609
  30
0.0
  70
0
  0
VERTEX
  8
a
  10
20.39607
  20
7.04525
  30
0.0
  70
0
  0
VERTEX
  8
a
  10
20.39749
  20
7.0355
  30
0.0
  70
0
  0
VERTEX
  8
a
  10
20.40272
  20
7.01761
  30
0.0
  70
0
  0
VERTEX
  8
a
  10
20.40985
  20
7.00099
  30
0.0
  70
0
  0
VERTEX
  8
a
  10
20.41748
  20
6.98471
  30
0.0
  70
0
  0
VERTEX
  8
a
  10
20.43046
  20
6.95066
  30
0.0
  70
0
  0
VERTEX
  8
a
  10
20.44113
  20
6.91515
  30
0.0
  70
0
  0
VERTEX
  8
a
  10
20.44985
  20
6.87847
  30
0.0
  70
0
  0
VERTEX
  8
a
  10
20.45681
  20
6.84076
  30
0.0
  70
0
  0
VERTEX
  8
a
  10
20.46213
  20
6.80214
  30
0.0
  70
0
  0
VERTEX
  8
a
  10
20.46589
  20
6.7627
  30
0.0
  70
0
  0
VERTEX
  8
a
  10
20.46812
  20
6.72252
  30
0.0
  70
0
  0
VERTEX
  8
a
  10
20.46882
  20
6.69192
  30
0.0
  70
0
  0
VERTEX
  8
a
  10
20.2684
  20
6.58714
  30
0.0
  70
0
  0
VERTEX
  8
a
  10
20.24367
  20
6.60518
  30
0.0
  70
0
  0
VERTEX
  8
a
  10
20.21195
  20
6.62995
  30
0.0
  70
0
  0
VERTEX
  8
a
  10
20.18171
  20
6.65554
  30
0.0
  70
0
  0
VERTEX
  8
a
  10
20.15303
  20
6.68195
  30
0.0
  70
0
  0
VERTEX
  8
a
  10
20.12604
  20
6.70919
  30
0.0
  70
0
  0
VERTEX
  8
a
  10
20.1009
  20
6.73729
  30
0.0
  70
0
  0
VERTEX
  8
a
  10
20.07783
  20
6.76631
  30
0.0
  70
0
  0
VERTEX
  8
a
  10
20.05728
  20
6.7964
  30
0.0
  70
0
  0
VERTEX
  8
a
  10
20.04826
  20
6.81196
  30
0.0
  70
0
  0
VERTEX
  8
a
  10
20.03869
  20
6.8273
  30
0.0
  70
0
  0
VERTEX
  8
a
  10
20.02698
  20
6.8418
  30
0.0
  70
0
  0
VERTEX
  8
a
  10
20.01978
  20
6.84853
  30
0.0
  70
0
  0
VERTEX
  8
a
  10
20.01078
  20
6.85457
  30
0.0
  70
0
  0
VERTEX
  8
a
  10
19.99197
  20
6.85689
  30
0.0
  70
0
  0
VERTEX
  8
a
  10
19.78964
  20
6.79271
  30
0.0
  70
0
  0
VERTEX
  8
a
  10
19.7756
  20
6.77997
  30
0.0
  70
0
  0
VERTEX
  8
a
  10
19.77173
  20
6.76985
  30
0.0
  70
0
  0
VERTEX
  8
a
  10
19.76973
  20
6.7602
  30
0.0
  70
0
  0
VERTEX
  8
a
  10
19.76852
  20
6.7416
  30
0.0
  70
0
  0
VERTEX
  8
a
  10
19.76954
  20
6.72354
  30
0.0
  70
0
  0
VERTEX
  8
a
  10
19.77114
  20
6.70563
  30
0.0
  70
0
  0
VERTEX
  8
a
  10
19.77169
  20
6.6692
  30
0.0
  70
0
  0
VERTEX
  8
a
  10
19.76957
  20
6.63218
  30
0.0
  70
0
  0
VERTEX
  8
a
  10
19.76522
  20
6.59473
  30
0.0
  70
0
  0
VERTEX
  8
a
  10
19.75887
  20
6.55691
  30
0.0
  70
0
  0
VERTEX
  8
a
  10
19.75066
  20
6.5188
  30
0.0
  70
0
  0
VERTEX
  8
a
  10
19.7407
  20
6.48046
  30
0.0
  70
0
  0
VERTEX
  8
a
  10
19.72905
  20
6.44193
  30
0.0
  70
0
  0
VERTEX
  8
a
  10
19.71925
  20
6.41294
  30
0.0
  70
0
  0
VERTEX
  8
a
  10
19.49508
  20
6.38303
  30
0.0
  70
0
  0
VERTEX
  8
a
  10
19.47801
  20
6.40843
  30
0.0
  70
0
  0
VERTEX
  8
a
  10
19.45667
  20
6.44256
  30
0.0
  70
0
  0
VERTEX
  8
a
  10
19.437
  20
6.47695
  30
0.0
  70
0
  0
VERTEX
  8
a
  10
19.41909
  20
6.51157
  30
0.0
  70
0
  0
VERTEX
  8
a
  10
19.40305
  20
6.5464
  30
0.0
  70
0
  0
VERTEX
  8
a
  10
19.38903
  20
6.58141
  30
0.0
  70
0
  0
VERTEX
  8
a
  10
19.37728
  20
6.61657
  30
0.0
  70
0
  0
VERTEX
  8
a
  10
19.36826
  20
6.65187
  30
0.0
  70
0
  0
VERTEX
  8
a
  10
19.36511
  20
6.66958
  30
0.0
  70
0
  0
VERTEX
  8
a
  10
19.36136
  20
6.68727
  30
0.0
  70
0
  0
VERTEX
  8
a
  10
19.35531
  20
6.7049
  30
0.0
  70
0
  0
VERTEX
  8
a
  10
19.35085
  20
6.71369
  30
0.0
  70
0
  0
VERTEX
  8
a
  10
19.34446
  20
6.72244
  30
0.0
  70
0
  0
VERTEX
  8
a
  10
19.32758
  20
6.73105
  30
0.0
  70
0
  0
VERTEX
  8
a
  10
19.1155
  20
6.73994
  30
0.0
  70
0
  0
VERTEX
  8
a
  10
19.09795
  20
6.73277
  30
0.0
  70
0
  0
VERTEX
  8
a
  10
19.09085
  20
6.72459
  30
0.0
  70
0
  0
VERTEX
  8
a
  10
19.08567
  20
6.7162
  30
0.0
  70
0
  0
VERTEX
  8
a
  10
19.07817
  20
6.69914
  30
0.0
  70
0
  0
VERTEX
  8
a
  10
19.07295
  20
6.68182
  30
0.0
  70
0
  0
VERTEX
  8
a
  10
19.06833
  20
6.66444
  30
0.0
  70
0
  0
VERTEX
  8
a
  10
19.05639
  20
6.63002
  30
0.0
  70
0
  0
VERTEX
  8
a
  10
19.04174
  20
6.59596
  30
0.0
  70
0
  0
VERTEX
  8
a
  10
19.02484
  20
6.56225
  30
0.0
  70
0
  0
VERTEX
  8
a
  10
19.00593
  20
6.52889
  30
0.0
  70
0
  0
VERTEX
  8
a
  10
18.98519
  20
6.49589
  30
0.0
  70
0
  0
VERTEX
  8
a
  10
18.96271
  20
6.46326
  30
0.0
  70
0
  0
VERTEX
  8
a
  10
18.93859
  20
6.43104
  30
0.0
  70
0
  0
VERTEX
  8
a
  10
18.91946
  20
6.40715
  30
0.0
  70
0
  0
VERTEX
  8
a
  10
18.69858
  20
6.45572
  30
0.0
  70
0
  0
VERTEX
  8
a
  10
18.69123
  20
6.48543
  30
0.0
  70
0
  0
VERTEX
  8
a
  10
18.68285
  20
6.5248
  30
0.0
  70
0
  0
VERTEX
  8
a
  10
18.67613
  20
6.56384
  30
0.0
  70
0
  0
VERTEX
  8
a
  10
18.67114
  20
6.6025
  30
0.0
  70
0
  0
VERTEX
  8
a
  10
18.66798
  20
6.64071
  30
0.0
  70
0
  0
VERTEX
  8
a
  10
18.66678
  20
6.6784
  30
0.0
  70
0
  0
VERTEX
  8
a
  10
18.66776
  20
6.71547
  30
0.0
  70
0
  0
VERTEX
  8
a
  10
18.67136
  20
6.75172
  30
0.0
  70
0
  0
VERTEX
  8
a
  10
18.67445
  20
6.76944
  30
0.0
  70
0
  0
VERTEX
  8
a
  10
18.67698
  20
6.78734
  30
0.0
  70
0
  0
VERTEX
  8
a
  10
18.67733
  20
6.80598
  30
0.0
  70
0
  0
VERTEX
  8
a
  10
18.67614
  20
6.81576
  30
0.0
  70
0
  0
VERTEX
  8
a
  10
18.67314
  20
6.82618
  30
0.0
  70
0
  0
VERTEX
  8
a
  10
18.66022
  20
6.84004
  30
0.0
  70
0
  0
VERTEX
  8
a
  10
18.46396
  20
6.92093
  30
0.0
  70
0
  0
VERTEX
  8
a
  10
18.44502
  20
6.9202
  30
0.0
  70
0
  0
VERTEX
  8
a
  10
18.43555
  20
6.91493
  30
0.0
  70
0
  0
VERTEX
  8
a
  10
18.42781
  20
6.90883
  30
0.0
  70
0
  0
VERTEX
  8
a
  10
18.41493
  20
6.89535
  30
0.0
  70
0
  0
VERTEX
  8
a
  10
18.40411
  20
6.88087
  30
0.0
  70
0
  0
VERTEX
  8
a
  10
18.39382
  20
6.86612
  30
0.0
  70
0
  0
VERTEX
  8
a
  10
18.37083
  20
6.83785
  30
0.0
  70
0
  0
VERTEX
  8
a
  10
18.34541
  20
6.81086
  30
0.0
  70
0
  0
VERTEX
  8
a
  10
18.318
  20
6.78496
  30
0.0
  70
0
  0
VERTEX
  8
a
  10
18.28883
  20
6.76008
  30
0.0
  70
0
  0
VERTEX
  8
a
  10
18.25804
  20
6.73616
  30
0.0
  70
0
  0
VERTEX
  8
a
  10
18.22577
  20
6.71319
  30
0.0
  70
0
  0
VERTEX
  8
a
  10
18.19208
  20
6.69116
  30
0.0
  70
0
  0
VERTEX
  8
a
  10
18.16593
  20
6.67526
  30
0.0
  70
0
  0
VERTEX
  8
a
  10
17.97498
  20
6.79644
  30
0.0
  70
0
  0
VERTEX
  8
a
  10
17.97824
  20
6.82687
  30
0.0
  70
0
  0
VERTEX
  8
a
  10
17.98383
  20
6.86673
  30
0.0
  70
0
  0
VERTEX
  8
a
  10
17.99087
  20
6.90572
  30
0.0
  70
0
  0
VERTEX
  8
a
  10
17.9994
  20
6.94375
  30
0.0
  70
0
  0
VERTEX
  8
a
  10
18.0095
  20
6.98075
  30
0.0
  70
0
  0
VERTEX
  8
a
  10
18.02126
  20
7.01658
  30
0.0
  70
0
  0
VERTEX
  8
a
  10
18.03486
  20
7.05107
  30
0.0
  70
0
  0
VERTEX
  8
a
  10
18.05064
  20
7.08391
  30
0.0
  70
0
  0
VERTEX
  8
a
  10
18.05961
  20
7.09949
  30
0.0
  70
0
  0
VERTEX
  8
a
  10
18.06811
  20
7.11546
  30
0.0
  70
0
  0
VERTEX
  8
a
  10
18.07481
  20
7.13285
  30
0.0
  70
0
  0
VERTEX
  8
a
  10
18.07704
  20
7.14245
  30
0.0
  70
0
  0
VERTEX
  8
a
  10
18.07777
  20
7.15326
  30
0.0
  70
0
  0
VERTEX
  8
a
  10
18.07038
  20
7.17071
  30
0.0
  70
0
  0
VERTEX
  8
a
  10
17.91363
  20
7.31384
  30
0.0
  70
0
  0
VERTEX
  8
a
  10
17.89558
  20
7.31963
  30
0.0
  70
0
  0
VERTEX
  8
a
  10
17.88487
  20
7.31792
  30
0.0
  70
0
  0
VERTEX
  8
a
  10
17.87552
  20
7.31483
  30
0.0
  70
0
  0
VERTEX
  8
a
  10
17.8588
  20
7.30658
  30
0.0
  70
0
  0
VERTEX
  8
a
  10
17.84368
  20
7.29667
  30
0.0
  70
0
  0
VERTEX
  8
a
  10
17.82897
  20
7.28632
  30
0.0
  70
0
  0
VERTEX
  8
a
  10
17.79769
  20
7.26763
  30
0.0
  70
0
  0
VERTEX
  8
a
  10
17.76458
  20
7.25096
  30
0.0
  70
0
  0
VERTEX
  8
a
  10
17.72996
  20
7.236
  30
0.0
  70
0
  0
VERTEX
  8
a
  10
17.69403
  20
7.22259
  30
0.0
  70
0
  0
VERTEX
  8
a
  10
17.65693
  20
7.21064
  30
0.0
  70
0
  0
VERTEX
  8
a
  10
17.61874
  20
7.2001
  30
0.0
  70
0
  0
VERTEX
  8
a
  10
17.57955
  20
7.19092
  30
0.0
  70
0
  0
VERTEX
  8
a
  10
17.54954
  20
7.18492
  30
0.0
  70
0
  0
VERTEX
  8
a
  10
17.41155
  20
7.3641
  30
0.0
  70
0
  0
VERTEX
  8
a
  10
17.42502
  20
7.39158
  30
0.0
  70
0
  0
VERTEX
  8
a
  10
17.44391
  20
7.42713
  30
0.0
  70
0
  0
VERTEX
  8
a
  10
17.46386
  20
7.46136
  30
0.0
  70
0
  0
VERTEX
  8
a
  10
17.48488
  20
7.49418
  30
0.0
  70
0
  0
VERTEX
  8
a
  10
17.50702
  20
7.52549
  30
0.0
  70
0
  0
VERTEX
  8
a
  10
17.53033
  20
7.55513
  30
0.0
  70
0
  0
VERTEX
  8
a
  10
17.55491
  20
7.58289
  30
0.0
  70
0
  0
VERTEX
  8
a
  10
17.58097
  20
7.60835
  30
0.0
  70
0
  0
VERTEX
  8
a
  10
17.59473
  20
7.61993
  30
0.0
  70
0
  0
VERTEX
  8
a
  10
17.60817
  20
7.63203
  30
0.0
  70
0
  0
VERTEX
  8
a
  10
17.62042
  20
7.64608
  30
0.0
  70
0
  0
VERTEX
  8
a
  10
17.6258
  20
7.65434
  30
0.0
  70
0
  0
VERTEX
  8
a
  10
17.63019
  20
7.66424
  30
0.0
  70
0
  0
VERTEX
  8
a
  10
17.6292
  20
7.68317
  30
0.0
  70
0
  0
VERTEX
  8
a
  10
17.53086
  20
7.87129
  30
0.0
  70
0
  0
VERTEX
  8
a
  10
17.51588
  20
7.8829
  30
0.0
  70
0
  0
VERTEX
  8
a
  10
17.50524
  20
7.88495
  30
0.0
  70
0
  0
VERTEX
  8
a
  10
17.49539
  20
7.88525
  30
0.0
  70
0
  0
VERTEX
  8
a
  10
17.47686
  20
7.88321
  30
0.0
  70
0
  0
VERTEX
  8
a
  10
17.45926
  20
7.87907
  30
0.0
  70
0
  0
VERTEX
  8
a
  10
17.44189
  20
7.87438
  30
0.0
  70
0
  0
VERTEX
  8
a
  10
17.40611
  20
7.86751
  30
0.0
  70
0
  0
VERTEX
  8
a
  10
17.36929
  20
7.86317
  30
0.0
  70
0
  0
VERTEX
  8
a
  10
17.33165
  20
7.86095
  30
0.0
  70
0
  0
VERTEX
  8
a
  10
17.2933
  20
7.86064
  30
0.0
  70
0
  0
VERTEX
  8
a
  10
17.25435
  20
7.86211
  30
0.0
  70
0
  0
VERTEX
  8
a
  10
17.21486
  20
7.86526
  30
0.0
  70
0
  0
VERTEX
  8
a
  10
17.17489
  20
7.87004
  30
0.0
  70
0
  0
VERTEX
  8
a
  10
17.14464
  20
7.87466
  30
0.0
  70
0
  0
VERTEX
  8
a
  10
17.07626
  20
8.09023
  30
0.0
  70
0
  0
VERTEX
  8
a
  10
17.09831
  20
8.11145
  30
0.0
  70
0
  0
VERTEX
  8
a
  10
17.12822
  20
8.13839
  30
0.0
  70
0
  0
VERTEX
  8
a
  10
17.15867
  20
8.16373
  30
0.0
  70
0
  0
VERTEX
  8
a
  10
17.18965
  20
8.18738
  30
0.0
  70
0
  0
VERTEX
  8
a
  10
17.22117
  20
8.20923
  30
0.0
  70
0
  0
VERTEX
  8
a
  10
17.25321
  20
8.22912
  30
0.0
  70
0
  0
VERTEX
  8
a
  10
17.28579
  20
8.2468
  30
0.0
  70
0
  0
VERTEX
  8
a
  10
17.319
  20
8.26181
  30
0.0
  70
0
  0
VERTEX
  8
a
  10
17.33588
  20
8.26799
  30
0.0
  70
0
  0
VERTEX
  8
a
  10
17.35265
  20
8.27475
  30
0.0
  70
0
  0
VERTEX
  8
a
  10
17.36897
  20
8.28376
  30
0.0
  70
0
  0
VERTEX
  8
a
  10
17.37685
  20
8.28969
  30
0.0
  70
0
  0
VERTEX
  8
a
  10
17.38436
  20
8.2975
  30
0.0
  70
0
  0
VERTEX
  8
a
  10
17.38991
  20
8.31562
  30
0.0
  70
0
  0
SEQEND
  0
CIRCLE
  8
a
  10
19.30295
  20
8.67795
  30
0.0
  40
0.125
  0
TEXT
  8
labels
  10
0.0
  20
0.0
  30
0.0
  40
0.1
  1
G1:Toothspacing=.74  Teeth=72  Spur gear  Angle=20.0  Addendum=.2
  41
1.0
  7
ARIAL
  0
TEXT
  8
labels
  10
0.0
  20
-0.2
  30
0.0
  40
0.1
  1
G2:Toothspacing=.74  Teeth=18  Spur gear  Angle=20.0  Addendum=.2
  41
1.0
  7
ARIAL
  0
ENDSEC
  0
EOF
