<?xml version="1.0" encoding="ISO-8859-1" standalone="no"?>
<!DOCTYPE svg PUBLIC "-//W3C//DTD SVG 1.1//EN"
    "http://www.w3.org/Graphics/SVG/1.1/DTD/svg11.dtd">
<svg xmlns="http://www.w3.org/2000/svg"
     xmlns:xlink="http://www.w3.org/1999/xlink" xml:space="preserve"
         width="2161px" height="1736px"
         viewBox="0 0 2161 1736"
         zoomAndPan="disable" preserveAspectRatio="none" >
<!-- Made with the gear generator.  http://woodgears.ca/gear   2015-11-10T14:25:15 -->
<!-- G1:Toothspacing=74.18  Teeth=72  Spur gear  Angle=20.0  Addendum=.2 -->
<!-- G2:Toothspacing=74.18  Teeth=18  Spur gear  Angle=20.0  Addendum=.2 -->
<!-- G2:Toothspacing=74.18  Teeth=18  Spur gear  Angle=20.0  Addendum=.2 -->
<polygon id="G1Gear" data-id="0" class="gear" fill="none" fill-opacity="0.2" stroke="#000"  stroke-miterlimit="10"
points =" 1699.99 864.15 1702.21 863.48 1706.65 862.07 1715.52 858.98 1724.38 855.56 1733.22 851.83 1735.42 850.85 1734.64 827.2
 1732.37 826.37 1723.31 823.24 1714.25 820.41 1705.19 817.92 1700.66 816.8 1698.4 816.28 1696.51 791.63 1698.66 790.77
 1702.96 788.98 1711.53 785.13 1720.05 780.95 1728.53 776.46 1730.65 775.3 1727.8 751.8 1725.47 751.17 1716.17 748.84
 1706.89 746.82 1697.66 745.12 1693.05 744.41 1690.75 744.08 1686.72 719.7 1688.79 718.65 1692.91 716.49 1701.11 711.9
 1709.24 707 1717.3 701.79 1719.3 700.45 1714.42 677.29 1712.05 676.87 1702.57 675.35 1693.16 674.15 1683.81 673.26
 1679.16 672.95 1676.84 672.83 1670.69 648.89 1672.66 647.66 1676.59 645.15 1684.36 639.87 1692.03 634.27 1699.6 628.39
 1701.48 626.87 1694.6 604.23 1692.19 604.01 1682.62 603.33 1673.14 602.95 1663.75 602.88 1659.09 602.98 1656.77 603.06
 1648.56 579.74 1650.42 578.35 1654.1 575.51 1661.38 569.57 1668.54 563.33 1675.57 556.8 1677.3 555.13 1668.48 533.17
 1666.07 533.17 1656.47 533.32 1646.99 533.77 1637.63 534.52 1633 535.02 1630.69 535.3 1620.48 512.79 1622.21 511.24
 1625.64 508.09 1632.37 501.54 1638.95 494.7 1645.39 487.58 1646.97 485.76 1636.27 464.66 1633.86 464.86 1624.32 465.85
 1614.91 467.13 1605.65 468.69 1601.08 469.59 1598.81 470.07 1586.68 448.54 1588.26 446.85 1591.4 443.4 1597.54 436.29
 1603.5 428.9 1609.29 421.26 1610.71 419.31 1598.21 399.22 1595.83 399.63 1586.41 401.45 1577.15 403.53 1568.06 405.9
 1563.58 407.2 1561.36 407.87 1547.4 387.48 1548.84 385.66 1551.66 381.95 1557.16 374.33 1562.45 366.45 1567.55 358.33
 1568.8 356.26 1554.59 337.34 1552.26 337.96 1543.03 340.59 1533.99 343.48 1525.14 346.63 1520.79 348.31 1518.64 349.18
 1502.95 330.08 1504.22 328.14 1506.72 324.2 1511.53 316.13 1516.11 307.82 1520.49 299.28 1521.55 297.11 1505.74 279.5
 1503.47 280.32 1494.51 283.75 1485.76 287.41 1477.21 291.32 1473.03 293.37 1470.96 294.43 1453.67 276.77 1454.77 274.72
 1456.91 270.58 1461 262.12 1464.84 253.44 1468.45 244.56 1469.32 242.31 1452.04 226.14 1449.85 227.15 1441.23 231.35
 1432.82 235.76 1424.65 240.4 1420.66 242.81 1418.7 244.04 1399.93 227.95 1400.84 225.82 1402.61 221.51 1405.95 212.73
 1409.02 203.75 1411.85 194.58 1412.52 192.26 1393.9 177.66 1391.8 178.86 1383.57 183.79 1375.58 188.92 1367.85 194.25
 1364.09 197 1362.24 198.4 1342.14 184.01 1342.86 181.8 1344.25 177.36 1346.81 168.32 1349.09 159.1 1351.1 149.72
 1351.57 147.36 1331.74 134.43 1329.76 135.81 1322 141.44 1314.48 147.25 1307.25 153.23 1303.74 156.3 1302.01 157.85
 1280.74 145.27 1281.27 143.01 1282.26 138.46 1284.02 129.23 1285.49 119.85 1286.68 110.33 1286.94 107.93 1266.06 96.79
 1264.21 98.34 1256.96 104.62 1249.98 111.06 1243.3 117.65 1240.07 121.01 1238.48 122.71 1216.19 112.03 1216.52 109.73
 1217.12 105.11 1218.07 95.76 1218.71 86.29 1219.07 76.71 1219.11 74.29 1197.35 65.01 1195.64 66.71 1188.97 73.6
 1182.58 80.63 1176.49 87.78 1173.56 91.41 1172.13 93.24 1149 84.54 1149.13 82.22 1149.32 77.57 1149.45 68.17
 1149.27 58.68 1148.78 49.1 1148.62 46.69 1126.13 39.34 1124.57 41.19 1118.53 48.64 1112.77 56.19 1107.33 63.84
 1104.73 67.71 1103.47 69.66 1079.66 63.01 1079.59 60.69 1079.37 56.04 1078.69 46.67 1077.68 37.23 1076.36 27.73
 1075.99 25.34 1052.94 19.98 1051.55 21.95 1046.18 29.9 1041.1 37.92 1036.35 46.03 1034.1 50.11 1033.01 52.15
 1008.72 47.61 1008.44 45.3 1007.82 40.69 1006.32 31.41 1004.49 22.1 1002.35 12.75 1001.77 10.4 978.34 7.07
 977.13 9.16 972.47 17.54 968.12 25.98 964.09 34.46 962.2 38.72 961.29 40.86 936.7 38.45 936.22 36.18
 935.2 31.63 932.89 22.52 930.26 13.4 927.32 4.27 926.53 1.99 902.91 0.71 901.88 2.9 897.97 11.65
 894.36 20.44 891.09 29.24 889.58 33.65 888.87 35.86 864.15 35.6 863.48 33.38 862.07 28.94 858.98 20.07
 855.56 11.21 851.83 2.37 850.85 0.17 827.2 0.95 826.37 3.22 823.24 12.28 820.41 21.34 817.92 30.4
 816.8 34.93 816.28 37.19 791.63 39.08 790.77 36.93 788.98 32.63 785.13 24.06 780.95 15.54 776.46 7.06
 775.3 4.94 751.8 7.79 751.17 10.12 748.84 19.42 746.82 28.7 745.12 37.93 744.41 42.54 744.08 44.84
 719.7 48.87 718.65 46.8 716.49 42.68 711.9 34.48 707 26.35 701.79 18.29 700.45 16.29 677.29 21.17
 676.87 23.54 675.35 33.02 674.15 42.43 673.26 51.78 672.95 56.43 672.83 58.75 648.89 64.9 647.66 62.93
 645.15 59 639.87 51.23 634.27 43.56 628.39 35.99 626.87 34.11 604.23 40.99 604.01 43.4 603.33 52.97
 602.95 62.45 602.88 71.84 602.98 76.5 603.06 78.82 579.74 87.03 578.35 85.17 575.51 81.49 569.57 74.21
 563.33 67.05 556.8 60.02 555.13 58.29 533.17 67.11 533.17 69.52 533.32 79.12 533.77 88.6 534.52 97.96
 535.02 102.59 535.3 104.9 512.79 115.11 511.24 113.38 508.09 109.95 501.54 103.22 494.7 96.64 487.58 90.2
 485.76 88.62 464.66 99.32 464.86 101.73 465.85 111.27 467.13 120.68 468.69 129.94 469.59 134.51 470.07 136.78
 448.54 148.91 446.85 147.33 443.4 144.19 436.29 138.05 428.9 132.09 421.26 126.3 419.31 124.88 399.22 137.38
 399.63 139.76 401.45 149.18 403.53 158.44 405.9 167.53 407.2 172.01 407.87 174.23 387.48 188.19 385.66 186.75
 381.95 183.93 374.33 178.43 366.45 173.14 358.33 168.04 356.26 166.79 337.34 181 337.96 183.33 340.59 192.56
 343.48 201.6 346.63 210.45 348.31 214.8 349.18 216.95 330.08 232.64 328.14 231.37 324.2 228.87 316.13 224.06
 307.82 219.48 299.28 215.1 297.11 214.04 279.5 229.85 280.32 232.12 283.75 241.08 287.41 249.83 291.32 258.37
 293.37 262.56 294.43 264.63 276.77 281.92 274.72 280.82 270.58 278.68 262.12 274.59 253.44 270.75 244.56 267.14
 242.31 266.27 226.14 283.55 227.15 285.74 231.35 294.36 235.76 302.77 240.4 310.94 242.81 314.93 244.04 316.89
 227.95 335.66 225.82 334.75 221.51 332.98 212.73 329.64 203.75 326.57 194.58 323.74 192.26 323.07 177.66 341.69
 178.86 343.79 183.79 352.02 188.92 360.01 194.25 367.74 197 371.5 198.4 373.35 184.01 393.45 181.8 392.73
 177.36 391.34 168.32 388.78 159.1 386.5 149.72 384.49 147.36 384.02 134.43 403.85 135.81 405.83 141.44 413.59
 147.25 421.11 153.23 428.34 156.3 431.85 157.85 433.58 145.27 454.85 143.01 454.32 138.46 453.33 129.23 451.57
 119.85 450.1 110.33 448.91 107.93 448.65 96.79 469.53 98.34 471.38 104.62 478.63 111.06 485.61 117.65 492.29
 121.01 495.52 122.71 497.11 112.03 519.4 109.73 519.07 105.11 518.47 95.76 517.52 86.29 516.88 76.71 516.52
 74.29 516.48 65.01 538.24 66.71 539.95 73.6 546.62 80.63 553.01 87.78 559.1 91.41 562.03 93.24 563.46
 84.54 586.59 82.22 586.46 77.57 586.27 68.17 586.14 58.68 586.32 49.1 586.81 46.69 586.97 39.34 609.46
 41.19 611.02 48.64 617.06 56.19 622.82 63.84 628.26 67.71 630.86 69.66 632.12 63.01 655.93 60.69 656
 56.04 656.22 46.67 656.9 37.23 657.91 27.73 659.23 25.34 659.6 19.98 682.65 21.95 684.04 29.9 689.41
 37.92 694.49 46.03 699.24 50.11 701.49 52.15 702.58 47.61 726.87 45.3 727.15 40.69 727.77 31.41 729.27
 22.1 731.1 12.75 733.24 10.4 733.82 7.07 757.25 9.16 758.46 17.54 763.12 25.98 767.47 34.46 771.5
 38.72 773.39 40.86 774.3 38.45 798.89 36.18 799.37 31.63 800.39 22.52 802.69 13.4 805.33 4.27 808.27
 1.99 809.06 0.71 832.68 2.9 833.71 11.65 837.62 20.44 841.23 29.24 844.5 33.65 846.01 35.86 846.72
 35.6 871.44 33.38 872.11 28.94 873.52 20.07 876.61 11.21 880.03 2.37 883.76 0.17 884.74 0.95 908.39
 3.22 909.22 12.28 912.35 21.34 915.18 30.4 917.67 34.93 918.79 37.19 919.31 39.08 943.96 36.93 944.82
 32.63 946.61 24.06 950.46 15.54 954.64 7.06 959.13 4.94 960.29 7.79 983.79 10.12 984.41 19.42 986.75
 28.7 988.77 37.93 990.47 42.54 991.18 44.84 991.51 48.87 1015.89 46.8 1016.94 42.68 1019.1 34.48 1023.69
 26.35 1028.59 18.29 1033.8 16.29 1035.14 21.17 1058.3 23.54 1058.72 33.02 1060.24 42.43 1061.44 51.78 1062.33
 56.43 1062.64 58.75 1062.76 64.9 1086.7 62.93 1087.93 59 1090.44 51.23 1095.72 43.56 1101.32 35.99 1107.2
 34.11 1108.72 40.99 1131.36 43.4 1131.58 52.97 1132.26 62.45 1132.64 71.84 1132.71 76.5 1132.61 78.82 1132.53
 87.03 1155.85 85.17 1157.24 81.49 1160.08 74.21 1166.02 67.05 1172.26 60.02 1178.79 58.29 1180.46 67.11 1202.42
 69.52 1202.42 79.12 1202.27 88.6 1201.82 97.96 1201.07 102.59 1200.57 104.9 1200.29 115.11 1222.8 113.38 1224.35
 109.95 1227.5 103.22 1234.05 96.64 1240.89 90.2 1248.01 88.62 1249.83 99.32 1270.93 101.73 1270.73 111.27 1269.74
 120.68 1268.46 129.94 1266.9 134.51 1266 136.78 1265.52 148.91 1287.05 147.33 1288.74 144.19 1292.19 138.05 1299.3
 132.09 1306.69 126.3 1314.33 124.88 1316.28 137.38 1336.37 139.76 1335.96 149.18 1334.14 158.44 1332.06 167.53 1329.69
 172.01 1328.39 174.23 1327.71 188.19 1348.11 186.75 1349.93 183.93 1353.64 178.43 1361.26 173.14 1369.14 168.04 1377.26
 166.79 1379.33 181 1398.25 183.33 1397.63 192.56 1395 201.6 1392.11 210.45 1388.96 214.8 1387.28 216.95 1386.41
 232.64 1405.51 231.37 1407.45 228.87 1411.39 224.06 1419.46 219.48 1427.77 215.1 1436.31 214.04 1438.48 229.85 1456.09
 232.12 1455.27 241.08 1451.84 249.83 1448.18 258.37 1444.27 262.56 1442.22 264.63 1441.16 281.92 1458.82 280.82 1460.87
 278.68 1465.01 274.59 1473.47 270.75 1482.15 267.14 1491.03 266.27 1493.28 283.55 1509.45 285.74 1508.44 294.36 1504.24
 302.77 1499.83 310.94 1495.19 314.93 1492.78 316.89 1491.55 335.66 1507.64 334.75 1509.77 332.98 1514.08 329.64 1522.86
 326.57 1531.84 323.74 1541.01 323.07 1543.33 341.69 1557.93 343.79 1556.73 352.02 1551.8 360.01 1546.67 367.74 1541.34
 371.5 1538.59 373.35 1537.19 393.45 1551.58 392.73 1553.79 391.34 1558.23 388.78 1567.27 386.5 1576.49 384.49 1585.87
 384.02 1588.23 403.85 1601.16 405.83 1599.78 413.59 1594.15 421.11 1588.34 428.34 1582.36 431.85 1579.29 433.58 1577.74
 454.85 1590.32 454.32 1592.58 453.33 1597.13 451.57 1606.36 450.1 1615.74 448.91 1625.26 448.65 1627.66 469.53 1638.8
 471.38 1637.25 478.63 1630.97 485.61 1624.53 492.29 1617.94 495.52 1614.58 497.11 1612.88 519.4 1623.56 519.07 1625.86
 518.47 1630.48 517.52 1639.83 516.88 1649.3 516.52 1658.88 516.48 1661.3 538.24 1670.58 539.95 1668.88 546.62 1661.99
 553.01 1654.96 559.1 1647.81 562.03 1644.18 563.46 1642.35 586.59 1651.05 586.46 1653.37 586.27 1658.02 586.14 1667.42
 586.32 1676.91 586.81 1686.49 586.97 1688.9 609.46 1696.25 611.02 1694.4 617.06 1686.95 622.82 1679.4 628.26 1671.75
 630.86 1667.88 632.12 1665.93 655.93 1672.58 656 1674.9 656.22 1679.55 656.9 1688.92 657.91 1698.36 659.23 1707.86
 659.6 1710.25 682.65 1715.61 684.04 1713.64 689.41 1705.69 694.49 1697.67 699.24 1689.56 701.49 1685.48 702.58 1683.44
 726.87 1687.98 727.15 1690.29 727.77 1694.9 729.27 1704.18 731.1 1713.49 733.24 1722.84 733.82 1725.19 757.25 1728.52
 758.46 1726.43 763.12 1718.05 767.47 1709.61 771.5 1701.13 773.39 1696.87 774.3 1694.73 798.89 1697.14 799.37 1699.41
 800.39 1703.96 802.69 1713.07 805.33 1722.19 808.27 1731.32 809.06 1733.6 832.68 1734.88 833.71 1732.69 837.62 1723.94
 841.23 1715.15 844.5 1706.35 846.01 1701.94 846.72 1699.73 871.44 1699.99 872.11 1702.21 873.52 1706.65 876.61 1715.52
 880.03 1724.38 883.76 1733.22 884.74 1735.42 908.39 1734.64 909.22 1732.37 912.35 1723.31 915.18 1714.25 917.67 1705.19
 918.79 1700.66 919.31 1698.4 943.96 1696.51 944.82 1698.66 946.61 1702.96 950.46 1711.53 954.64 1720.05 959.13 1728.53
 960.29 1730.65 983.79 1727.8 984.41 1725.47 986.75 1716.17 988.77 1706.89 990.47 1697.66 991.18 1693.05 991.51 1690.75
 1015.89 1686.72 1016.94 1688.79 1019.1 1692.91 1023.69 1701.11 1028.59 1709.24 1033.8 1717.3 1035.14 1719.3 1058.3 1714.42
 1058.72 1712.05 1060.24 1702.57 1061.44 1693.16 1062.33 1683.81 1062.64 1679.16 1062.76 1676.84 1086.7 1670.69 1087.93 1672.66
 1090.44 1676.59 1095.72 1684.36 1101.32 1692.03 1107.2 1699.6 1108.72 1701.48 1131.36 1694.6 1131.58 1692.19 1132.26 1682.62
 1132.64 1673.14 1132.71 1663.75 1132.61 1659.09 1132.53 1656.77 1155.85 1648.56 1157.24 1650.42 1160.08 1654.1 1166.02 1661.38
 1172.26 1668.54 1178.79 1675.57 1180.46 1677.3 1202.42 1668.48 1202.42 1666.07 1202.27 1656.47 1201.82 1646.99 1201.07 1637.63
 1200.57 1633 1200.29 1630.69 1222.8 1620.48 1224.35 1622.21 1227.5 1625.64 1234.05 1632.37 1240.89 1638.95 1248.01 1645.39
 1249.83 1646.97 1270.93 1636.27 1270.73 1633.86 1269.74 1624.32 1268.46 1614.91 1266.9 1605.65 1266 1601.08 1265.52 1598.81
 1287.05 1586.68 1288.74 1588.26 1292.19 1591.4 1299.3 1597.54 1306.69 1603.5 1314.33 1609.29 1316.28 1610.71 1336.37 1598.21
 1335.96 1595.83 1334.14 1586.41 1332.06 1577.15 1329.69 1568.06 1328.39 1563.58 1327.71 1561.36 1348.11 1547.4 1349.93 1548.84
 1353.64 1551.66 1361.26 1557.16 1369.14 1562.45 1377.26 1567.55 1379.33 1568.8 1398.25 1554.59 1397.63 1552.26 1395 1543.03
 1392.11 1533.99 1388.96 1525.14 1387.28 1520.79 1386.41 1518.64 1405.51 1502.95 1407.45 1504.22 1411.39 1506.72 1419.46 1511.53
 1427.77 1516.11 1436.31 1520.49 1438.48 1521.55 1456.09 1505.74 1455.27 1503.47 1451.84 1494.51 1448.18 1485.76 1444.27 1477.21
 1442.22 1473.03 1441.16 1470.96 1458.82 1453.67 1460.87 1454.77 1465.01 1456.91 1473.47 1461 1482.15 1464.84 1491.03 1468.45
 1493.28 1469.32 1509.45 1452.04 1508.44 1449.85 1504.24 1441.23 1499.83 1432.82 1495.19 1424.65 1492.78 1420.66 1491.55 1418.7
 1507.64 1399.93 1509.77 1400.84 1514.08 1402.61 1522.86 1405.95 1531.84 1409.02 1541.01 1411.85 1543.33 1412.52 1557.93 1393.9
 1556.73 1391.8 1551.8 1383.57 1546.67 1375.58 1541.34 1367.85 1538.59 1364.09 1537.19 1362.24 1551.58 1342.14 1553.79 1342.86
 1558.23 1344.25 1567.27 1346.81 1576.49 1349.09 1585.87 1351.1 1588.23 1351.57 1601.16 1331.74 1599.78 1329.76 1594.15 1322
 1588.34 1314.48 1582.36 1307.25 1579.29 1303.74 1577.74 1302.01 1590.32 1280.74 1592.58 1281.27 1597.13 1282.26 1606.36 1284.02
 1615.74 1285.49 1625.26 1286.68 1627.66 1286.94 1638.8 1266.06 1637.25 1264.21 1630.97 1256.96 1624.53 1249.98 1617.94 1243.3
 1614.58 1240.07 1612.88 1238.48 1623.56 1216.19 1625.86 1216.52 1630.48 1217.12 1639.83 1218.07 1649.3 1218.71 1658.88 1219.07
 1661.3 1219.11 1670.58 1197.35 1668.88 1195.64 1661.99 1188.97 1654.96 1182.58 1647.81 1176.49 1644.18 1173.56 1642.35 1172.13
 1651.05 1149 1653.37 1149.13 1658.02 1149.32 1667.42 1149.45 1676.91 1149.27 1686.49 1148.78 1688.9 1148.62 1696.25 1126.13
 1694.4 1124.57 1686.95 1118.53 1679.4 1112.77 1671.75 1107.33 1667.88 1104.73 1665.93 1103.47 1672.58 1079.66 1674.9 1079.59
 1679.55 1079.37 1688.92 1078.69 1698.36 1077.68 1707.86 1076.36 1710.25 1075.99 1715.61 1052.94 1713.64 1051.55 1705.69 1046.18
 1697.67 1041.1 1689.56 1036.35 1685.48 1034.1 1683.44 1033.01 1687.98 1008.72 1690.29 1008.44 1694.9 1007.82 1704.18 1006.32
 1713.49 1004.49 1722.84 1002.35 1725.19 1001.77 1728.52 978.34 1726.43 977.13 1718.05 972.47 1709.61 968.12 1701.13 964.09
 1696.87 962.2 1694.73 961.29 1697.14 936.7 1699.41 936.22 1703.96 935.2 1713.07 932.89 1722.19 930.26 1731.32 927.32
 1733.6 926.53 1734.88 902.91 1732.69 901.88 1723.94 897.97 1715.15 894.36 1706.35 891.09 1701.94 889.58 1699.73 888.87
"/>
<circle id="G1_sh" cx="867.79" cy="867.79" r="12.5" stroke="#000"  fill="none"/>
<polygon id="G2Gear" data-id="0" class="gear" fill="none" fill-opacity="0.2" stroke="#000"  stroke-miterlimit="10"
points =" 1736.18 852.6 1735.17 854.21 1734.24 854.76 1733.33 855.13 1731.52 855.57 1729.72 855.78 1727.93 855.94 1724.33 856.51
 1720.72 857.37 1717.11 858.44 1713.5 859.73 1709.89 861.2 1706.28 862.84 1702.69 864.66 1700.01 866.13 1700.95 888.73
 1703.75 889.96 1707.48 891.47 1711.21 892.81 1714.93 893.98 1718.64 894.95 1722.33 895.72 1726 896.27 1729.63 896.55
 1731.43 896.55 1733.24 896.61 1735.08 896.9 1736.02 897.19 1736.99 897.66 1738.14 899.18 1742.69 919.91 1742.29 921.76
 1741.61 922.6 1740.87 923.26 1739.32 924.29 1737.71 925.11 1736.08 925.86 1732.89 927.64 1729.8 929.67 1726.77 931.92
 1723.81 934.36 1720.92 936.98 1718.1 939.76 1715.34 942.69 1713.32 944.99 1721.94 965.9 1725 966.11 1729.02 966.25
 1732.98 966.24 1736.87 966.06 1740.69 965.7 1744.43 965.17 1748.06 964.43 1751.57 963.44 1753.26 962.83 1754.98 962.27
 1756.81 961.91 1757.79 961.86 1758.87 961.98 1760.46 963.01 1771.83 980.93 1772.09 982.81 1771.73 983.83 1771.27 984.7
 1770.16 986.2 1768.93 987.52 1767.65 988.79 1765.27 991.54 1763.05 994.52 1760.98 997.66 1759.03 1000.97 1757.21 1004.42
 1755.51 1007.99 1753.92 1011.69 1752.81 1014.55 1768.06 1031.25 1771 1030.4 1774.83 1029.15 1778.55 1027.78 1782.15 1026.28
 1785.61 1024.65 1788.94 1022.87 1792.1 1020.93 1795.06 1018.8 1796.44 1017.65 1797.86 1016.54 1799.46 1015.57 1800.37 1015.19
 1801.42 1014.93 1803.26 1015.35 1820.08 1028.3 1820.97 1029.98 1820.98 1031.06 1820.84 1032.04 1820.32 1033.83 1819.61 1035.49
 1818.84 1037.12 1817.54 1040.52 1816.48 1044.07 1815.61 1047.74 1814.91 1051.51 1814.38 1055.38 1814 1059.32 1813.78 1063.34
 1813.71 1066.4 1833.75 1076.88 1836.22 1075.07 1839.4 1072.6 1842.42 1070.04 1845.29 1067.4 1847.99 1064.67 1850.5 1061.86
 1852.81 1058.96 1854.86 1055.95 1855.76 1054.39 1856.72 1052.86 1857.89 1051.41 1858.61 1050.74 1859.51 1050.13 1861.39 1049.9
 1881.63 1056.32 1883.03 1057.59 1883.42 1058.61 1883.62 1059.57 1883.74 1061.43 1883.64 1063.24 1883.48 1065.03 1883.42 1068.67
 1883.63 1072.37 1884.07 1076.12 1884.7 1079.9 1885.52 1083.71 1886.52 1087.54 1887.68 1091.4 1888.67 1094.3 1911.08 1097.29
 1912.79 1094.75 1914.92 1091.33 1916.89 1087.89 1918.68 1084.43 1920.29 1080.95 1921.69 1077.45 1922.86 1073.93 1923.76 1070.4
 1924.08 1068.63 1924.45 1066.86 1925.06 1065.1 1925.5 1064.22 1926.14 1063.35 1927.83 1062.48 1949.04 1061.6 1950.79 1062.31
 1951.5 1063.13 1952.02 1063.97 1952.77 1065.68 1953.29 1067.41 1953.76 1069.15 1954.95 1072.59 1956.42 1075.99 1958.11 1079.36
 1960 1082.7 1962.07 1086 1964.32 1089.26 1966.73 1092.49 1968.64 1094.87 1990.73 1090.02 1991.47 1087.05 1992.3 1083.11
 1992.98 1079.21 1993.48 1075.34 1993.79 1071.52 1993.91 1067.75 1993.81 1064.04 1993.45 1060.42 1993.14 1058.65 1992.89 1056.86
 1992.86 1054.99 1992.98 1054.01 1993.28 1052.97 1994.57 1051.59 2014.19 1043.5 2016.09 1043.57 2017.03 1044.1 2017.81 1044.71
 2019.1 1046.05 2020.18 1047.5 2021.21 1048.98 2023.51 1051.8 2026.05 1054.5 2028.79 1057.09 2031.71 1059.58 2034.79 1061.97
 2038.01 1064.27 2041.38 1066.47 2044 1068.06 2063.09 1055.95 2062.77 1052.9 2062.21 1048.92 2061.5 1045.02 2060.65 1041.21
 2059.64 1037.52 2058.46 1033.93 2057.1 1030.48 2055.53 1027.2 2054.63 1025.64 2053.78 1024.04 2053.11 1022.31 2052.89 1021.35
 2052.81 1020.26 2053.55 1018.52 2069.23 1004.21 2071.03 1003.63 2072.1 1003.8 2073.04 1004.11 2074.71 1004.93 2076.22 1005.92
 2077.69 1006.96 2080.82 1008.83 2084.13 1010.49 2087.59 1011.99 2091.19 1013.33 2094.9 1014.53 2098.72 1015.58 2102.63 1016.5
 2105.64 1017.1 2119.43 999.18 2118.09 996.43 2116.2 992.88 2114.2 989.45 2112.1 986.17 2109.89 983.04 2107.56 980.08
 2105.1 977.3 2102.49 974.75 2101.12 973.6 2099.77 972.39 2098.55 970.98 2098.01 970.16 2097.57 969.17 2097.67 967.27
 2107.5 948.46 2109 947.3 2110.07 947.09 2111.05 947.07 2112.9 947.27 2114.66 947.68 2116.4 948.15 2119.98 948.84
 2123.66 949.27 2127.43 949.49 2131.26 949.53 2135.16 949.38 2139.1 949.06 2143.1 948.59 2146.13 948.12 2152.96 926.57
 2150.76 924.44 2147.77 921.75 2144.72 919.22 2141.62 916.85 2138.47 914.67 2135.27 912.68 2132.01 910.91 2128.69 909.41
 2127 908.79 2125.32 908.11 2123.69 907.21 2122.91 906.62 2122.15 905.84 2121.6 904.03 2124.41 882.99 2125.42 881.38
 2126.35 880.83 2127.26 880.46 2129.07 880.02 2130.87 879.81 2132.66 879.65 2136.26 879.08 2139.87 878.22 2143.48 877.15
 2147.09 875.86 2150.7 874.39 2154.31 872.75 2157.9 870.93 2160.58 869.46 2159.64 846.86 2156.84 845.63 2153.11 844.12
 2149.38 842.78 2145.66 841.61 2141.95 840.64 2138.26 839.87 2134.59 839.32 2130.96 839.04 2129.16 839.04 2127.35 838.98
 2125.51 838.69 2124.57 838.4 2123.6 837.93 2122.45 836.41 2117.9 815.68 2118.3 813.83 2118.98 812.99 2119.72 812.33
 2121.27 811.3 2122.88 810.48 2124.51 809.73 2127.7 807.95 2130.79 805.92 2133.82 803.67 2136.78 801.23 2139.67 798.61
 2142.49 795.83 2145.25 792.9 2147.27 790.6 2138.65 769.69 2135.59 769.48 2131.57 769.34 2127.61 769.35 2123.72 769.53
 2119.9 769.89 2116.16 770.42 2112.53 771.16 2109.02 772.15 2107.33 772.76 2105.61 773.32 2103.78 773.68 2102.8 773.73
 2101.72 773.61 2100.13 772.58 2088.76 754.66 2088.5 752.78 2088.86 751.76 2089.32 750.89 2090.43 749.39 2091.66 748.07
 2092.94 746.8 2095.32 744.05 2097.54 741.07 2099.61 737.92 2101.56 734.62 2103.38 731.17 2105.08 727.6 2106.66 723.9
 2107.78 721.04 2092.53 704.34 2089.59 705.19 2085.76 706.44 2082.04 707.81 2078.44 709.31 2074.98 710.94 2071.65 712.72
 2068.49 714.66 2065.53 716.79 2064.15 717.94 2062.73 719.05 2061.13 720.02 2060.22 720.4 2059.17 720.66 2057.33 720.24
 2040.51 707.29 2039.62 705.61 2039.61 704.53 2039.75 703.55 2040.27 701.76 2040.98 700.1 2041.75 698.47 2043.05 695.07
 2044.11 691.52 2044.98 687.85 2045.68 684.08 2046.21 680.21 2046.59 676.27 2046.81 672.25 2046.88 669.19 2026.84 658.71
 2024.37 660.52 2021.19 662.99 2018.17 665.55 2015.3 668.19 2012.6 670.92 2010.09 673.73 2007.78 676.63 2005.73 679.64
 2004.83 681.2 2003.87 682.73 2002.7 684.18 2001.98 684.85 2001.08 685.46 1999.2 685.69 1978.96 679.27 1977.56 678
 1977.17 676.98 1976.97 676.02 1976.85 674.16 1976.95 672.35 1977.11 670.56 1977.17 666.92 1976.96 663.22 1976.52 659.47
 1975.89 655.69 1975.07 651.88 1974.07 648.05 1972.91 644.19 1971.92 641.29 1949.51 638.3 1947.8 640.84 1945.67 644.26
 1943.7 647.7 1941.91 651.16 1940.3 654.64 1938.9 658.14 1937.73 661.66 1936.83 665.19 1936.51 666.96 1936.14 668.73
 1935.53 670.49 1935.09 671.37 1934.45 672.24 1932.76 673.11 1911.55 673.99 1909.79 673.28 1909.09 672.46 1908.57 671.62
 1907.82 669.91 1907.3 668.18 1906.83 666.44 1905.64 663 1904.17 659.6 1902.48 656.23 1900.59 652.89 1898.52 649.59
 1896.27 646.33 1893.86 643.1 1891.95 640.72 1869.86 645.57 1869.12 648.54 1868.29 652.48 1867.61 656.38 1867.11 660.25
 1866.8 664.07 1866.68 667.84 1866.78 671.55 1867.14 675.17 1867.45 676.94 1867.7 678.73 1867.73 680.6 1867.61 681.58
 1867.31 682.62 1866.02 684 1846.4 692.09 1844.5 692.02 1843.56 691.49 1842.78 690.88 1841.49 689.54 1840.41 688.09
 1839.38 686.61 1837.08 683.79 1834.54 681.09 1831.8 678.5 1828.88 676.01 1825.8 673.62 1822.58 671.32 1819.21 669.12
 1816.59 667.53 1797.5 679.64 1797.82 682.69 1798.38 686.67 1799.09 690.57 1799.94 694.38 1800.95 698.07 1802.13 701.66
 1803.49 705.11 1805.06 708.39 1805.96 709.95 1806.81 711.55 1807.48 713.28 1807.7 714.24 1807.78 715.33 1807.04 717.07
 1791.36 731.38 1789.56 731.96 1788.49 731.79 1787.55 731.48 1785.88 730.66 1784.37 729.67 1782.9 728.63 1779.77 726.76
 1776.46 725.1 1773 723.6 1769.4 722.26 1765.69 721.06 1761.87 720.01 1757.96 719.09 1754.95 718.49 1741.16 736.41
 1742.5 739.16 1744.39 742.71 1746.39 746.14 1748.49 749.42 1750.7 752.55 1753.03 755.51 1755.49 758.29 1758.1 760.84
 1759.47 761.99 1760.82 763.2 1762.04 764.61 1762.58 765.43 1763.02 766.42 1762.92 768.32 1753.09 787.13 1751.59 788.29
 1750.52 788.49 1749.54 788.52 1747.69 788.32 1745.93 787.91 1744.19 787.44 1740.61 786.75 1736.93 786.32 1733.16 786.1
 1729.33 786.06 1725.43 786.21 1721.49 786.53 1717.49 787 1714.46 787.47 1707.63 809.02 1709.83 811.14 1712.82 813.84
 1715.87 816.37 1718.97 818.74 1722.12 820.92 1725.32 822.91 1728.58 824.68 1731.9 826.18 1733.59 826.8 1735.27 827.48
 1736.9 828.38 1737.68 828.97 1738.44 829.75 1738.99 831.56"/>
<circle id="G2_sh" cx="1930.29" cy="867.79" r="12.5" stroke="#000"  fill="none"/>
</svg>
