  999
DXF file created by gear template generator.  2015-11-10T14:21:07
  0
SECTION
  2
HEADER
  9
$ACADVER
  1
AC1006
  9
$INSBASE
  10
0.0
  20
0.0
  30
0.0
  9
$EXTMIN
  10
0.0
  20
0.0
  9
$EXTMAX
  10
10000.0
  20
10000.0
  0
ENDSEC
  0
SECTION
  2
ENTITIES
 0
LWPOLYLINE
 8
profile
 90
540
 70
1
 10
0.35879
 20
2.40908
 10
0.3509
 20
2.42631
 10
0.34242
 20
2.43306
 10
0.33382
 20
2.43789
 10
0.32517
 20
2.44165
 10
0.30776
 20
2.44772
 10
0.29015
 20
2.45096
 10
0.25519
 20
2.46063
 10
0.22049
 20
2.47322
 10
0.18604
 20
2.48816
 10
0.15184
 20
2.50516
 10
0.11793
 20
2.52405
 10
0.08431
 20
2.54471
 10
0.05102
 20
2.56706
 10
0.01809
 20
2.59101
 10
0.05736
 20
2.81373
 10
0.0965
 20
2.82497
 10
0.13543
 20
2.83458
 10
0.17408
 20
2.8425
 10
0.21241
 20
2.84866
 10
0.25036
 20
2.85294
 10
0.28784
 20
2.85519
 10
0.32476
 20
2.85516
 10
0.36092
 20
2.85228
 10
0.37857
 20
2.8493
 10
0.397
 20
2.84906
 10
0.40642
 20
2.84963
 10
0.41615
 20
2.85122
 10
0.42643
 20
2.85467
 10
0.43974
 20
2.86816
 10
0.51234
 20
3.06762
 10
0.51081
 20
3.08652
 10
0.50515
 20
3.09576
 10
0.49873
 20
3.10323
 10
0.49188
 20
3.10972
 10
0.4776
 20
3.12139
 10
0.46216
 20
3.13045
 10
0.43261
 20
3.15149
 10
0.40431
 20
3.17519
 10
0.37705
 20
3.20101
 10
0.35073
 20
3.22869
 10
0.32532
 20
3.25804
 10
0.3008
 20
3.28895
 10
0.27716
 20
3.32133
 10
0.2544
 20
3.35511
 10
0.36748
 20
3.55096
 10
0.40811
 20
3.54814
 10
0.44797
 20
3.54386
 10
0.487
 20
3.53808
 10
0.52513
 20
3.53075
 10
0.56225
 20
3.5218
 10
0.59825
 20
3.5111
 10
0.63292
 20
3.49843
 10
0.66592
 20
3.48337
 10
0.68149
 20
3.47453
 10
0.69873
 20
3.468
 10
0.70777
 20
3.46531
 10
0.71746
 20
3.46348
 10
0.72829
 20
3.4632
 10
0.74542
 20
3.47133
 10
0.88186
 20
3.63393
 10
0.88689
 20
3.65221
 10
0.88473
 20
3.66283
 10
0.88125
 20
3.67205
 10
0.87703
 20
3.68049
 10
0.8676
 20
3.69633
 10
0.8562
 20
3.71013
 10
0.83563
 20
3.74001
 10
0.81714
 20
3.77196
 10
0.80035
 20
3.80555
 10
0.78508
 20
3.84056
 10
0.77125
 20
3.87683
 10
0.75878
 20
3.91426
 10
0.74764
 20
3.95278
 10
0.7378
 20
3.9923
 10
0.91105
 20
4.13767
 10
0.94826
 20
4.12112
 10
0.98426
 20
4.10346
 10
1.01896
 20
4.08468
 10
1.05228
 20
4.06476
 10
1.0841
 20
4.04365
 10
1.11426
 20
4.02128
 10
1.14252
 20
3.99752
 10
1.16837
 20
3.97208
 10
1.17998
 20
3.95845
 10
1.19394
 20
3.94641
 10
1.20152
 20
3.94079
 10
1.21
 20
3.93576
 10
1.22009
 20
3.93179
 10
1.23896
 20
3.93357
 10
1.42279
 20
4.0397
 10
1.43376
 20
4.05516
 10
1.43536
 20
4.06588
 10
1.43525
 20
4.07573
 10
1.43417
 20
4.08511
 10
1.43073
 20
4.10322
 10
1.42473
 20
4.12009
 10
1.41562
 20
4.1552
 10
1.40918
 20
4.19155
 10
1.40489
 20
4.22885
 10
1.40251
 20
4.26697
 10
1.40192
 20
4.30578
 10
1.40301
 20
4.34523
 10
1.40571
 20
4.38523
 10
1.40998
 20
4.42573
 10
1.6225
 20
4.50308
 10
1.65181
 20
4.4748
 10
1.6796
 20
4.4459
 10
1.70578
 20
4.41638
 10
1.73028
 20
4.38626
 10
1.75296
 20
4.35554
 10
1.77365
 20
4.32421
 10
1.79208
 20
4.29222
 10
1.80767
 20
4.25946
 10
1.81392
 20
4.24269
 10
1.82292
 20
4.2266
 10
1.82812
 20
4.21873
 10
1.83437
 20
4.2111
 10
1.84249
 20
4.20392
 10
1.86083
 20
4.19914
 10
2.06987
 20
4.236
 10
2.08547
 20
4.24677
 10
2.09064
 20
4.25629
 10
2.09391
 20
4.26559
 10
2.0961
 20
4.27477
 10
2.09906
 20
4.29297
 10
2.09919
 20
4.31087
 10
2.10264
 20
4.34698
 10
2.10901
 20
4.38334
 10
2.11774
 20
4.41986
 10
2.12855
 20
4.45649
 10
2.14127
 20
4.49317
 10
2.15578
 20
4.52986
 10
2.172
 20
4.56652
 10
2.18987
 20
4.60312
 10
2.41603
 20
4.60312
 10
2.4339
 20
4.56652
 10
2.45012
 20
4.52986
 10
2.46463
 20
4.49317
 10
2.47735
 20
4.45649
 10
2.48816
 20
4.41986
 10
2.49688
 20
4.38334
 10
2.50326
 20
4.34698
 10
2.50671
 20
4.31087
 10
2.50684
 20
4.29297
 10
2.5098
 20
4.27477
 10
2.51199
 20
4.26559
 10
2.51526
 20
4.25629
 10
2.52043
 20
4.24677
 10
2.53603
 20
4.236
 10
2.74507
 20
4.19914
 10
2.76341
 20
4.20392
 10
2.77153
 20
4.2111
 10
2.77778
 20
4.21873
 10
2.78298
 20
4.2266
 10
2.79198
 20
4.24269
 10
2.79823
 20
4.25946
 10
2.81382
 20
4.29222
 10
2.83225
 20
4.32421
 10
2.85294
 20
4.35554
 10
2.87562
 20
4.38626
 10
2.90012
 20
4.41638
 10
2.9263
 20
4.4459
 10
2.95409
 20
4.4748
 10
2.98339
 20
4.50308
 10
3.19591
 20
4.42573
 10
3.20019
 20
4.38523
 10
3.20289
 20
4.34523
 10
3.20398
 20
4.30578
 10
3.20338
 20
4.26697
 10
3.20101
 20
4.22885
 10
3.19672
 20
4.19155
 10
3.19028
 20
4.1552
 10
3.18117
 20
4.12009
 10
3.17517
 20
4.10322
 10
3.17173
 20
4.08511
 10
3.17065
 20
4.07573
 10
3.17053
 20
4.06588
 10
3.17214
 20
4.05516
 10
3.18311
 20
4.0397
 10
3.36694
 20
3.93357
 10
3.38581
 20
3.93179
 10
3.3959
 20
3.93576
 10
3.40437
 20
3.94079
 10
3.41196
 20
3.94641
 10
3.42592
 20
3.95845
 10
3.43753
 20
3.97208
 10
3.46338
 20
3.99752
 10
3.49164
 20
4.02128
 10
3.5218
 20
4.04365
 10
3.55362
 20
4.06476
 10
3.58694
 20
4.08468
 10
3.62164
 20
4.10346
 10
3.65763
 20
4.12112
 10
3.69485
 20
4.13767
 10
3.8681
 20
3.9923
 10
3.85826
 20
3.95278
 10
3.84712
 20
3.91426
 10
3.83465
 20
3.87683
 10
3.82082
 20
3.84056
 10
3.80555
 20
3.80555
 10
3.78876
 20
3.77196
 10
3.77027
 20
3.74001
 10
3.7497
 20
3.71013
 10
3.7383
 20
3.69633
 10
3.72887
 20
3.68049
 10
3.72465
 20
3.67205
 10
3.72117
 20
3.66283
 10
3.71901
 20
3.65221
 10
3.72404
 20
3.63393
 10
3.86048
 20
3.47133
 10
3.87761
 20
3.4632
 10
3.88844
 20
3.46348
 10
3.89813
 20
3.46531
 10
3.90717
 20
3.468
 10
3.92441
 20
3.47453
 10
3.93998
 20
3.48337
 10
3.97298
 20
3.49843
 10
4.00765
 20
3.5111
 10
4.04365
 20
3.5218
 10
4.08077
 20
3.53075
 10
4.11889
 20
3.53808
 10
4.15793
 20
3.54386
 10
4.19779
 20
3.54814
 10
4.23842
 20
3.55096
 10
4.3515
 20
3.35511
 10
4.32874
 20
3.32133
 10
4.3051
 20
3.28895
 10
4.28058
 20
3.25804
 10
4.25517
 20
3.22869
 10
4.22885
 20
3.20101
 10
4.20159
 20
3.17519
 10
4.17328
 20
3.15149
 10
4.14374
 20
3.13045
 10
4.1283
 20
3.12139
 10
4.11402
 20
3.10972
 10
4.10717
 20
3.10323
 10
4.10075
 20
3.09576
 10
4.09509
 20
3.08652
 10
4.09356
 20
3.06762
 10
4.16616
 20
2.86816
 10
4.17947
 20
2.85467
 10
4.18975
 20
2.85122
 10
4.19947
 20
2.84963
 10
4.20889
 20
2.84906
 10
4.22733
 20
2.8493
 10
4.24498
 20
2.85228
 10
4.28114
 20
2.85516
 10
4.31806
 20
2.85519
 10
4.35554
 20
2.85294
 10
4.39349
 20
2.84866
 10
4.43182
 20
2.8425
 10
4.47047
 20
2.83458
 10
4.5094
 20
2.82497
 10
4.54854
 20
2.81373
 10
4.58781
 20
2.59101
 10
4.55487
 20
2.56706
 10
4.52159
 20
2.54471
 10
4.48797
 20
2.52405
 10
4.45406
 20
2.50516
 10
4.41986
 20
2.48816
 10
4.38541
 20
2.47322
 10
4.35071
 20
2.46063
 10
4.31575
 20
2.45096
 10
4.29814
 20
2.44772
 10
4.28073
 20
2.44165
 10
4.27207
 20
2.43789
 10
4.26348
 20
2.43306
 10
4.255
 20
2.42631
 10
4.24711
 20
2.40908
 10
4.24711
 20
2.19682
 10
4.255
 20
2.17958
 10
4.26348
 20
2.17284
 10
4.27207
 20
2.16801
 10
4.28073
 20
2.16425
 10
4.29814
 20
2.15818
 10
4.31575
 20
2.15494
 10
4.35071
 20
2.14527
 10
4.38541
 20
2.13268
 10
4.41986
 20
2.11774
 10
4.45406
 20
2.10074
 10
4.48797
 20
2.08185
 10
4.52159
 20
2.06119
 10
4.55487
 20
2.03884
 10
4.58781
 20
2.01489
 10
4.54854
 20
1.79217
 10
4.5094
 20
1.78092
 10
4.47047
 20
1.77132
 10
4.43182
 20
1.7634
 10
4.39349
 20
1.75724
 10
4.35554
 20
1.75296
 10
4.31806
 20
1.75071
 10
4.28114
 20
1.75074
 10
4.24498
 20
1.75362
 10
4.22733
 20
1.7566
 10
4.20889
 20
1.75684
 10
4.19947
 20
1.75627
 10
4.18975
 20
1.75467
 10
4.17947
 20
1.75123
 10
4.16616
 20
1.73774
 10
4.09356
 20
1.53828
 10
4.09509
 20
1.51938
 10
4.10075
 20
1.51014
 10
4.10717
 20
1.50267
 10
4.11402
 20
1.49618
 10
4.1283
 20
1.48451
 10
4.14374
 20
1.47545
 10
4.17328
 20
1.45441
 10
4.20159
 20
1.43071
 10
4.22885
 20
1.40489
 10
4.25517
 20
1.37721
 10
4.28058
 20
1.34786
 10
4.3051
 20
1.31695
 10
4.32874
 20
1.28457
 10
4.3515
 20
1.25079
 10
4.23842
 20
1.05493
 10
4.19779
 20
1.05776
 10
4.15793
 20
1.06204
 10
4.11889
 20
1.06782
 10
4.08077
 20
1.07515
 10
4.04365
 20
1.0841
 10
4.00765
 20
1.0948
 10
3.97298
 20
1.10746
 10
3.93998
 20
1.12253
 10
3.92441
 20
1.13137
 10
3.90717
 20
1.1379
 10
3.89813
 20
1.14059
 10
3.88844
 20
1.14242
 10
3.87761
 20
1.1427
 10
3.86048
 20
1.13457
 10
3.72404
 20
0.97197
 10
3.71901
 20
0.95369
 10
3.72117
 20
0.94307
 10
3.72465
 20
0.93385
 10
3.72887
 20
0.92541
 10
3.7383
 20
0.90956
 10
3.7497
 20
0.89577
 10
3.77027
 20
0.86589
 10
3.78876
 20
0.83394
 10
3.80555
 20
0.80035
 10
3.82082
 20
0.76534
 10
3.83465
 20
0.72907
 10
3.84712
 20
0.69164
 10
3.85826
 20
0.65312
 10
3.8681
 20
0.6136
 10
3.69485
 20
0.46823
 10
3.65763
 20
0.48478
 10
3.62164
 20
0.50244
 10
3.58694
 20
0.52122
 10
3.55362
 20
0.54114
 10
3.5218
 20
0.56225
 10
3.49164
 20
0.58462
 10
3.46338
 20
0.60838
 10
3.43753
 20
0.63382
 10
3.42592
 20
0.64745
 10
3.41196
 20
0.65949
 10
3.40437
 20
0.66511
 10
3.3959
 20
0.67014
 10
3.38581
 20
0.6741
 10
3.36694
 20
0.67233
 10
3.18311
 20
0.56619
 10
3.17214
 20
0.55074
 10
3.17053
 20
0.54002
 10
3.17065
 20
0.53017
 10
3.17173
 20
0.52079
 10
3.17517
 20
0.50268
 10
3.18117
 20
0.48581
 10
3.19028
 20
0.4507
 10
3.19672
 20
0.41435
 10
3.20101
 20
0.37705
 10
3.20338
 20
0.33893
 10
3.20398
 20
0.30011
 10
3.20289
 20
0.26067
 10
3.20019
 20
0.22067
 10
3.19591
 20
0.18017
 10
2.98339
 20
0.10282
 10
2.95409
 20
0.1311
 10
2.9263
 20
0.16
 10
2.90012
 20
0.18952
 10
2.87562
 20
0.21964
 10
2.85294
 20
0.25036
 10
2.83225
 20
0.28169
 10
2.81382
 20
0.31368
 10
2.79823
 20
0.34643
 10
2.79198
 20
0.36321
 10
2.78298
 20
0.3793
 10
2.77778
 20
0.38717
 10
2.77153
 20
0.3948
 10
2.76341
 20
0.40197
 10
2.74507
 20
0.40676
 10
2.53603
 20
0.3699
 10
2.52043
 20
0.35913
 10
2.51526
 20
0.34961
 10
2.51199
 20
0.34031
 10
2.5098
 20
0.33113
 10
2.50684
 20
0.31293
 10
2.50671
 20
0.29503
 10
2.50326
 20
0.25892
 10
2.49688
 20
0.22256
 10
2.48816
 20
0.18604
 10
2.47735
 20
0.14941
 10
2.46463
 20
0.11273
 10
2.45012
 20
0.07604
 10
2.4339
 20
0.03937
 10
2.41603
 20
0.00278
 10
2.18987
 20
0.00278
 10
2.172
 20
0.03937
 10
2.15578
 20
0.07604
 10
2.14127
 20
0.11273
 10
2.12855
 20
0.14941
 10
2.11774
 20
0.18604
 10
2.10901
 20
0.22256
 10
2.10264
 20
0.25892
 10
2.09919
 20
0.29503
 10
2.09906
 20
0.31293
 10
2.0961
 20
0.33113
 10
2.09391
 20
0.34031
 10
2.09064
 20
0.34961
 10
2.08547
 20
0.35913
 10
2.06987
 20
0.3699
 10
1.86083
 20
0.40676
 10
1.84249
 20
0.40197
 10
1.83437
 20
0.3948
 10
1.82812
 20
0.38717
 10
1.82292
 20
0.3793
 10
1.81392
 20
0.36321
 10
1.80767
 20
0.34643
 10
1.79208
 20
0.31368
 10
1.77365
 20
0.28169
 10
1.75296
 20
0.25036
 10
1.73028
 20
0.21964
 10
1.70578
 20
0.18952
 10
1.6796
 20
0.16
 10
1.65181
 20
0.1311
 10
1.6225
 20
0.10282
 10
1.40998
 20
0.18017
 10
1.40571
 20
0.22067
 10
1.40301
 20
0.26067
 10
1.40192
 20
0.30011
 10
1.40251
 20
0.33893
 10
1.40489
 20
0.37705
 10
1.40918
 20
0.41435
 10
1.41562
 20
0.4507
 10
1.42473
 20
0.48581
 10
1.43073
 20
0.50268
 10
1.43417
 20
0.52079
 10
1.43525
 20
0.53017
 10
1.43536
 20
0.54002
 10
1.43376
 20
0.55074
 10
1.42279
 20
0.56619
 10
1.23896
 20
0.67233
 10
1.22009
 20
0.6741
 10
1.21
 20
0.67014
 10
1.20152
 20
0.66511
 10
1.19394
 20
0.65949
 10
1.17998
 20
0.64745
 10
1.16837
 20
0.63382
 10
1.14252
 20
0.60838
 10
1.11426
 20
0.58462
 10
1.0841
 20
0.56225
 10
1.05228
 20
0.54114
 10
1.01896
 20
0.52122
 10
0.98426
 20
0.50244
 10
0.94826
 20
0.48478
 10
0.91105
 20
0.46823
 10
0.7378
 20
0.6136
 10
0.74764
 20
0.65312
 10
0.75878
 20
0.69164
 10
0.77125
 20
0.72907
 10
0.78508
 20
0.76534
 10
0.80035
 20
0.80035
 10
0.81714
 20
0.83394
 10
0.83563
 20
0.86589
 10
0.8562
 20
0.89577
 10
0.8676
 20
0.90956
 10
0.87703
 20
0.92541
 10
0.88125
 20
0.93385
 10
0.88473
 20
0.94307
 10
0.88689
 20
0.95369
 10
0.88186
 20
0.97197
 10
0.74542
 20
1.13457
 10
0.72829
 20
1.1427
 10
0.71746
 20
1.14242
 10
0.70777
 20
1.14059
 10
0.69873
 20
1.1379
 10
0.68149
 20
1.13137
 10
0.66592
 20
1.12253
 10
0.63292
 20
1.10746
 10
0.59825
 20
1.0948
 10
0.56225
 20
1.0841
 10
0.52513
 20
1.07515
 10
0.487
 20
1.06782
 10
0.44797
 20
1.06204
 10
0.40811
 20
1.05776
 10
0.36748
 20
1.05493
 10
0.2544
 20
1.25079
 10
0.27716
 20
1.28457
 10
0.3008
 20
1.31695
 10
0.32532
 20
1.34786
 10
0.35073
 20
1.37721
 10
0.37705
 20
1.40489
 10
0.40431
 20
1.43071
 10
0.43261
 20
1.45441
 10
0.46216
 20
1.47545
 10
0.4776
 20
1.48451
 10
0.49188
 20
1.49618
 10
0.49873
 20
1.50267
 10
0.50515
 20
1.51014
 10
0.51081
 20
1.51938
 10
0.51234
 20
1.53828
 10
0.43974
 20
1.73774
 10
0.42643
 20
1.75123
 10
0.41615
 20
1.75467
 10
0.40642
 20
1.75627
 10
0.397
 20
1.75684
 10
0.37857
 20
1.7566
 10
0.36092
 20
1.75362
 10
0.32476
 20
1.75074
 10
0.28784
 20
1.75071
 10
0.25036
 20
1.75296
 10
0.21241
 20
1.75724
 10
0.17408
 20
1.7634
 10
0.13543
 20
1.77132
 10
0.0965
 20
1.78092
 10
0.05736
 20
1.79217
 10
0.01809
 20
2.01489
 10
0.05102
 20
2.03884
 10
0.08431
 20
2.06119
 10
0.11793
 20
2.08185
 10
0.15184
 20
2.10074
 10
0.18604
 20
2.11774
 10
0.22049
 20
2.13268
 10
0.25519
 20
2.14527
 10
0.29015
 20
2.15494
 10
0.30776
 20
2.15818
 10
0.32517
 20
2.16425
 10
0.33382
 20
2.16801
 10
0.34242
 20
2.17284
 10
0.3509
 20
2.17958
 10
0.35879
 20
2.19682
 0
CIRCLE
 8
profile
 10
2.30295
 20
2.30295
 40
0.125
  0
ENDSEC
  0
EOF
